{"glyphs":{"0":{"ha":978,"x_min":64,"x_max":914,"o":"m 489 -17 q 261 47 357 -17 q 115 224 165 111 q 64 486 64 338 q 115 748 64 635 q 260 925 165 861 q 489 989 356 989 q 717 925 622 989 q 863 748 813 861 q 914 486 914 635 q 863 224 914 338 q 717 47 813 111 q 489 -17 622 -17 m 489 151 q 611 192 558 151 q 694 308 664 233 q 724 486 724 383 q 694 665 724 590 q 611 779 664 739 q 489 819 558 819 q 367 779 419 819 q 284 665 314 739 q 254 486 254 590 q 284 308 254 383 q 367 192 314 233 q 489 151 419 151 z "},"1":{"ha":506,"x_min":43,"x_max":410,"o":"m 215 0 l 215 757 l 43 711 l 43 861 l 296 972 l 410 972 l 410 0 l 215 0 z "},"2":{"ha":801,"x_min":69,"x_max":749,"o":"m 69 0 l 69 138 q 242 279 158 208 q 393 420 326 350 q 499 557 460 490 q 538 686 538 624 q 524 758 538 725 q 480 810 510 790 q 401 831 450 831 q 319 808 353 831 q 269 749 286 786 q 253 667 253 713 l 71 667 q 119 846 75 774 q 239 953 164 918 q 407 989 314 989 q 581 951 510 989 q 688 847 651 913 q 725 697 725 782 q 702 572 725 633 q 638 453 679 511 q 546 343 597 396 q 439 242 494 290 q 331 153 383 194 l 749 153 l 749 0 l 69 0 z "},"3":{"ha":838,"x_min":67,"x_max":753,"o":"m 417 -17 q 243 18 322 -17 q 117 124 164 53 q 67 303 69 194 l 250 303 q 271 220 251 257 q 328 162 290 183 q 417 140 365 140 q 500 160 465 140 q 553 211 535 179 q 571 285 571 243 q 547 366 571 333 q 480 415 522 399 q 383 432 438 432 l 311 432 l 311 586 l 383 586 q 498 618 451 586 q 544 714 544 650 q 510 799 544 767 q 415 831 476 831 q 311 792 349 831 q 269 696 274 753 l 86 696 q 133 853 90 788 q 247 954 175 919 q 415 989 319 989 q 587 953 517 989 q 693 858 657 918 q 729 729 729 799 q 708 628 729 672 q 650 554 686 583 q 571 513 614 525 q 666 470 625 501 q 730 390 707 439 q 753 278 753 342 q 715 131 753 199 q 601 24 676 64 q 417 -17 525 -17 z "},"4":{"ha":903,"x_min":63,"x_max":854,"o":"m 540 0 l 540 176 l 63 176 l 63 325 l 515 972 l 728 972 l 728 339 l 854 339 l 854 176 l 728 176 l 728 0 l 540 0 m 263 339 l 553 339 l 553 765 l 553 765 l 263 339 z "},"5":{"ha":864,"x_min":90,"x_max":792,"o":"m 443 -17 q 260 21 338 -17 q 140 124 183 58 q 90 272 97 189 l 274 272 q 329 181 283 218 q 444 143 375 143 q 532 168 494 143 q 590 235 569 193 q 611 332 611 278 q 590 428 611 388 q 531 490 568 468 q 447 513 494 513 q 345 484 388 513 q 285 415 303 456 l 103 415 l 183 972 l 729 972 l 729 808 l 322 808 l 282 592 q 364 644 313 624 q 479 665 415 665 q 617 638 558 665 q 714 563 675 610 q 772 458 753 517 q 792 333 792 399 q 766 193 792 257 q 694 82 740 129 q 584 9 647 35 q 443 -17 521 -17 z "},"6":{"ha":881,"x_min":69,"x_max":800,"o":"m 461 -17 q 276 24 351 -17 q 155 132 200 64 q 90 284 110 200 q 69 454 69 368 q 115 738 69 618 q 247 923 161 857 q 456 989 333 989 q 629 949 558 989 q 739 846 700 910 q 785 708 778 782 l 610 708 q 558 802 599 769 q 454 835 518 835 q 350 799 394 835 q 281 690 306 763 q 253 508 257 618 q 253 504 253 507 q 253 500 253 501 q 311 567 275 538 q 394 613 347 596 q 494 629 442 629 q 644 590 575 629 q 757 481 714 551 q 800 313 800 410 q 758 149 800 225 q 639 28 715 74 q 461 -17 563 -17 m 450 144 q 538 165 500 144 q 599 223 576 186 q 621 307 621 260 q 599 393 621 357 q 538 450 576 429 q 449 471 499 471 q 361 450 400 471 q 299 392 322 429 q 276 308 276 356 q 299 223 276 260 q 362 165 322 186 q 450 144 401 144 z "},"7":{"ha":746,"x_min":40,"x_max":703,"o":"m 154 0 l 511 813 l 40 813 l 40 972 l 703 972 l 703 840 l 349 0 l 154 0 z "},"8":{"ha":879,"x_min":83,"x_max":796,"o":"m 439 -17 q 258 19 339 -17 q 131 121 178 56 q 83 272 83 186 q 103 381 83 332 q 160 467 124 429 q 246 524 196 504 q 145 607 183 553 q 107 729 107 661 q 144 857 107 797 q 256 953 182 917 q 439 989 329 989 q 622 953 549 989 q 733 857 696 917 q 771 729 771 797 q 733 608 771 663 q 632 524 694 553 q 719 466 682 503 q 776 381 756 429 q 796 272 796 332 q 748 121 796 186 q 619 19 700 56 q 439 -17 539 -17 m 439 140 q 568 182 525 140 q 611 288 611 224 q 566 399 611 358 q 439 440 521 440 q 312 399 358 440 q 265 288 265 358 q 310 182 265 224 q 439 140 354 140 m 439 578 q 548 614 510 578 q 586 707 586 650 q 548 802 586 768 q 439 836 510 836 q 331 802 369 836 q 292 706 292 768 q 331 614 292 650 q 439 578 369 578 z "},"9":{"ha":882,"x_min":81,"x_max":811,"o":"m 425 -17 q 253 23 324 -17 q 144 126 182 63 q 97 264 106 190 l 272 264 q 324 170 285 203 q 428 138 364 138 q 531 173 488 138 q 600 280 575 208 q 628 457 625 351 q 628 465 628 461 q 628 472 628 469 q 571 406 608 436 q 487 360 533 376 q 388 343 440 343 q 238 382 308 343 q 124 492 167 421 q 81 660 81 563 q 124 824 81 749 q 243 944 167 899 q 419 989 319 989 q 606 949 531 989 q 726 840 681 908 q 791 688 771 772 q 811 518 811 604 q 766 235 811 356 q 635 49 721 115 q 425 -17 549 -17 m 432 501 q 520 522 482 501 q 581 580 558 543 q 604 664 604 617 q 581 750 604 713 q 519 808 558 788 q 431 828 481 828 q 343 807 382 828 q 283 750 304 786 q 261 665 261 714 q 283 580 261 617 q 343 522 304 543 q 432 501 382 501 z "},"A":{"ha":985,"x_min":31,"x_max":953,"o":"m 31 0 l 386 972 l 599 972 l 953 0 l 754 0 l 492 758 l 492 758 l 228 0 l 31 0 m 188 221 l 238 367 l 732 367 l 781 221 l 188 221 z "},"Á":{"ha":985,"x_min":31,"x_max":953,"o":"m 31 0 l 386 972 l 599 972 l 953 0 l 754 0 l 492 758 l 492 758 l 228 0 l 31 0 m 188 221 l 238 367 l 732 367 l 781 221 l 188 221 m 346 1032 l 329 1156 l 633 1331 l 633 1331 l 656 1188 l 346 1032 z "},"Ă":{"ha":985,"x_min":31,"x_max":953,"o":"m 31 0 l 386 972 l 599 972 l 953 0 l 754 0 l 492 758 l 492 758 l 228 0 l 31 0 m 188 221 l 238 367 l 732 367 l 781 221 l 188 221 m 493 1039 q 376 1065 425 1039 q 300 1140 326 1092 q 274 1254 274 1188 l 274 1278 l 372 1278 q 399 1204 372 1231 q 493 1178 425 1178 q 587 1204 560 1178 q 614 1278 614 1231 l 713 1278 l 713 1253 q 685 1139 713 1188 q 609 1065 658 1090 q 493 1039 560 1039 z "},"Â":{"ha":985,"x_min":31,"x_max":953,"o":"m 31 0 l 386 972 l 599 972 l 953 0 l 754 0 l 492 758 l 492 758 l 228 0 l 31 0 m 188 221 l 238 367 l 732 367 l 781 221 l 188 221 m 288 1035 l 288 1169 l 493 1279 l 697 1169 l 697 1035 l 493 1150 l 288 1035 z "},"Ä":{"ha":985,"x_min":31,"x_max":953,"o":"m 31 0 l 386 972 l 599 972 l 953 0 l 754 0 l 492 758 l 492 758 l 228 0 l 31 0 m 188 221 l 238 367 l 732 367 l 781 221 l 188 221 m 364 1065 q 302 1091 328 1065 q 276 1154 276 1117 q 302 1217 276 1192 q 364 1243 328 1243 q 428 1217 403 1243 q 454 1154 454 1192 q 428 1091 454 1117 q 364 1065 403 1065 m 619 1065 q 556 1091 582 1065 q 531 1154 531 1117 q 556 1217 531 1192 q 619 1243 582 1243 q 683 1217 657 1243 q 708 1154 708 1192 q 683 1091 708 1117 q 619 1065 657 1065 z "},"À":{"ha":985,"x_min":31,"x_max":953,"o":"m 31 0 l 386 972 l 599 972 l 953 0 l 754 0 l 492 758 l 492 758 l 228 0 l 31 0 m 188 221 l 238 367 l 732 367 l 781 221 l 188 221 m 638 1032 l 329 1188 l 350 1331 l 350 1331 l 656 1156 l 638 1032 z "},"Ā":{"ha":985,"x_min":31,"x_max":953,"o":"m 31 0 l 386 972 l 599 972 l 953 0 l 754 0 l 492 758 l 492 758 l 228 0 l 31 0 m 188 221 l 238 367 l 732 367 l 781 221 l 188 221 m 231 1085 l 231 1217 l 756 1217 l 756 1085 l 231 1085 z "},"Ą":{"ha":985,"x_min":31,"x_max":961,"o":"m 31 0 l 386 972 l 599 972 l 953 0 l 754 0 l 492 758 l 492 758 l 228 0 l 31 0 m 188 221 l 238 367 l 732 367 l 781 221 l 188 221 m 839 -293 q 744 -278 788 -293 q 676 -229 701 -262 q 650 -146 650 -196 q 668 -74 650 -108 q 730 -6 686 -39 q 850 60 774 28 l 913 88 l 954 0 l 883 -35 q 813 -82 833 -60 q 792 -129 792 -104 q 810 -169 792 -154 q 863 -185 829 -185 q 909 -179 883 -185 q 961 -164 935 -174 l 961 -274 q 903 -288 935 -283 q 839 -293 872 -293 z "},"Å":{"ha":985,"x_min":31,"x_max":953,"o":"m 31 0 l 386 972 l 599 972 l 953 0 l 754 0 l 492 758 l 492 758 l 228 0 l 31 0 m 188 221 l 238 367 l 732 367 l 781 221 l 188 221 m 493 1040 q 381 1083 428 1040 q 333 1199 333 1125 q 381 1314 333 1272 q 493 1356 428 1356 q 607 1314 560 1356 q 654 1199 654 1272 q 607 1083 654 1125 q 493 1040 560 1040 m 493 1124 q 544 1144 524 1124 q 565 1199 565 1165 q 544 1253 565 1233 q 493 1272 524 1272 q 443 1253 464 1272 q 422 1199 422 1233 q 443 1144 422 1165 q 493 1124 464 1124 z "},"Ã":{"ha":985,"x_min":31,"x_max":953,"o":"m 31 0 l 386 972 l 599 972 l 953 0 l 754 0 l 492 758 l 492 758 l 228 0 l 31 0 m 188 221 l 238 367 l 732 367 l 781 221 l 188 221 m 581 1043 q 512 1059 540 1043 q 460 1091 483 1075 q 407 1107 436 1107 q 369 1092 385 1107 q 347 1044 353 1076 l 249 1044 q 308 1180 264 1138 q 415 1222 351 1222 q 483 1206 456 1222 q 535 1174 511 1190 q 589 1158 560 1158 q 628 1174 613 1158 q 649 1221 644 1190 l 747 1221 q 690 1086 733 1129 q 581 1043 646 1043 z "},"Æ":{"ha":1313,"x_min":31,"x_max":1238,"o":"m 31 0 l 553 972 l 1238 972 l 1238 824 l 865 824 l 865 567 l 1196 567 l 1196 422 l 865 422 l 865 149 l 1238 149 l 1238 0 l 678 0 l 678 829 l 678 829 l 235 0 l 31 0 m 231 188 l 308 332 l 767 332 l 767 188 l 231 188 z "},"Ǽ":{"ha":1313,"x_min":31,"x_max":1238,"o":"m 31 0 l 553 972 l 1238 972 l 1238 824 l 865 824 l 865 567 l 1196 567 l 1196 422 l 865 422 l 865 149 l 1238 149 l 1238 0 l 678 0 l 678 829 l 678 829 l 235 0 l 31 0 m 231 188 l 308 332 l 767 332 l 767 188 l 231 188 m 646 1032 l 629 1156 l 933 1331 l 933 1331 l 956 1188 l 646 1032 z "},"B":{"ha":886,"x_min":96,"x_max":828,"o":"m 96 0 l 96 972 l 494 972 q 665 940 596 972 q 770 852 735 908 q 806 722 806 796 q 774 599 806 649 q 690 522 742 549 q 575 490 638 494 l 597 506 q 716 470 664 503 q 798 383 768 438 q 828 265 828 329 q 790 128 828 188 q 682 34 753 68 q 508 0 611 0 l 96 0 m 283 153 l 478 153 q 596 188 554 153 q 638 288 638 222 q 594 390 638 353 q 475 426 551 426 l 283 426 l 283 153 m 283 567 l 464 567 q 576 600 538 567 q 614 694 614 633 q 576 788 614 754 q 463 822 538 822 l 283 822 l 283 567 z "},"C":{"ha":1025,"x_min":64,"x_max":961,"o":"m 532 -17 q 281 47 386 -17 q 120 223 176 110 q 64 485 64 336 q 120 747 64 633 q 281 925 176 861 q 532 989 386 989 q 821 901 708 989 q 961 654 933 814 l 757 654 q 681 776 739 732 q 531 819 624 819 q 383 778 444 819 q 288 663 321 738 q 254 485 254 589 q 288 307 254 382 q 383 192 321 232 q 531 151 444 151 q 681 192 624 151 q 756 307 738 233 l 961 307 q 821 69 933 156 q 532 -17 708 -17 z "},"Ć":{"ha":1025,"x_min":64,"x_max":961,"o":"m 532 -17 q 281 47 386 -17 q 120 223 176 110 q 64 485 64 336 q 120 747 64 633 q 281 925 176 861 q 532 989 386 989 q 821 901 708 989 q 961 654 933 814 l 757 654 q 681 776 739 732 q 531 819 624 819 q 383 778 444 819 q 288 663 321 738 q 254 485 254 589 q 288 307 254 382 q 383 192 321 232 q 531 151 444 151 q 681 192 624 151 q 756 307 738 233 l 961 307 q 821 69 933 156 q 532 -17 708 -17 m 365 1032 l 349 1156 l 653 1331 l 653 1331 l 675 1188 l 365 1032 z "},"Č":{"ha":1025,"x_min":64,"x_max":961,"o":"m 532 -17 q 281 47 386 -17 q 120 223 176 110 q 64 485 64 336 q 120 747 64 633 q 281 925 176 861 q 532 989 386 989 q 821 901 708 989 q 961 654 933 814 l 757 654 q 681 776 739 732 q 531 819 624 819 q 383 778 444 819 q 288 663 321 738 q 254 485 254 589 q 288 307 254 382 q 383 192 321 232 q 531 151 444 151 q 681 192 624 151 q 756 307 738 233 l 961 307 q 821 69 933 156 q 532 -17 708 -17 m 513 1035 l 307 1146 l 307 1279 l 513 1160 l 717 1279 l 717 1146 l 513 1035 z "},"Ç":{"ha":1025,"x_min":64,"x_max":961,"o":"m 532 -17 q 281 47 386 -17 q 120 223 176 110 q 64 485 64 336 q 120 747 64 633 q 281 925 176 861 q 532 989 386 989 q 821 901 708 989 q 961 654 933 814 l 757 654 q 681 776 739 732 q 531 819 624 819 q 383 778 444 819 q 288 663 321 738 q 254 485 254 589 q 288 307 254 382 q 383 192 321 232 q 531 151 444 151 q 681 192 624 151 q 756 307 738 233 l 961 307 q 821 69 933 156 q 532 -17 708 -17 m 389 -371 l 389 -264 l 549 -264 q 601 -252 583 -264 q 619 -215 619 -240 q 601 -179 619 -190 q 549 -168 583 -168 l 463 -168 l 463 6 l 579 6 l 579 -71 q 666 -85 625 -69 q 733 -133 707 -100 q 758 -218 758 -165 q 733 -303 758 -269 q 666 -354 707 -337 q 576 -371 625 -371 l 389 -371 z "},"Ċ":{"ha":1025,"x_min":64,"x_max":961,"o":"m 532 -17 q 281 47 386 -17 q 120 223 176 110 q 64 485 64 336 q 120 747 64 633 q 281 925 176 861 q 532 989 386 989 q 821 901 708 989 q 961 654 933 814 l 757 654 q 681 776 739 732 q 531 819 624 819 q 383 778 444 819 q 288 663 321 738 q 254 485 254 589 q 288 307 254 382 q 383 192 321 232 q 531 151 444 151 q 681 192 624 151 q 756 307 738 233 l 961 307 q 821 69 933 156 q 532 -17 708 -17 m 511 1061 q 449 1087 475 1061 q 424 1149 424 1113 q 449 1212 424 1186 q 511 1238 475 1238 q 576 1212 550 1238 q 601 1149 601 1186 q 576 1087 601 1113 q 511 1061 550 1061 z "},"D":{"ha":982,"x_min":96,"x_max":918,"o":"m 96 0 l 96 972 l 421 972 q 701 912 590 972 q 865 742 811 851 q 918 486 918 633 q 865 230 918 339 q 701 60 811 121 q 421 0 592 0 l 96 0 m 283 161 l 411 161 q 599 200 531 161 q 697 312 668 239 q 726 486 726 385 q 697 662 726 589 q 599 774 668 735 q 411 813 531 813 l 283 813 l 283 161 z "},"Ď":{"ha":982,"x_min":96,"x_max":918,"o":"m 96 0 l 96 972 l 421 972 q 701 912 590 972 q 865 742 811 851 q 918 486 918 633 q 865 230 918 339 q 701 60 811 121 q 421 0 592 0 l 96 0 m 283 161 l 411 161 q 599 200 531 161 q 697 312 668 239 q 726 486 726 385 q 697 662 726 589 q 599 774 668 735 q 411 813 531 813 l 283 813 l 283 161 m 403 1035 l 197 1146 l 197 1279 l 403 1160 l 607 1279 l 607 1146 l 403 1035 z "},"Đ":{"ha":999,"x_min":8,"x_max":935,"o":"m 8 407 l 8 567 l 538 567 l 538 407 l 8 407 m 111 0 l 111 972 l 438 972 q 717 912 607 972 q 881 742 828 851 q 935 486 935 633 q 881 230 935 339 q 717 60 828 121 q 438 0 607 0 l 111 0 m 299 161 l 428 161 q 616 200 547 161 q 714 312 685 239 q 743 486 743 385 q 714 662 743 589 q 616 774 685 735 q 428 813 547 813 l 299 813 l 299 161 z "},"Ð":{"ha":999,"x_min":8,"x_max":935,"o":"m 8 407 l 8 567 l 538 567 l 538 407 l 8 407 m 111 0 l 111 972 l 438 972 q 717 912 607 972 q 881 742 828 851 q 935 486 935 633 q 881 230 935 339 q 717 60 828 121 q 438 0 607 0 l 111 0 m 299 161 l 428 161 q 616 200 547 161 q 714 312 685 239 q 743 486 743 385 q 714 662 743 589 q 616 774 685 735 q 428 813 547 813 l 299 813 l 299 161 z "},"E":{"ha":810,"x_min":96,"x_max":735,"o":"m 96 0 l 96 972 l 735 972 l 735 821 l 283 821 l 283 567 l 693 567 l 693 421 l 283 421 l 283 151 l 735 151 l 735 0 l 96 0 z "},"É":{"ha":810,"x_min":96,"x_max":735,"o":"m 96 0 l 96 972 l 735 972 l 735 821 l 283 821 l 283 567 l 693 567 l 693 421 l 283 421 l 283 151 l 735 151 l 735 0 l 96 0 m 269 1032 l 253 1156 l 557 1331 l 557 1331 l 579 1188 l 269 1032 z "},"Ĕ":{"ha":810,"x_min":96,"x_max":735,"o":"m 96 0 l 96 972 l 735 972 l 735 821 l 283 821 l 283 567 l 693 567 l 693 421 l 283 421 l 283 151 l 735 151 l 735 0 l 96 0 m 417 1039 q 299 1065 349 1039 q 224 1140 250 1092 q 197 1254 197 1188 l 197 1278 l 296 1278 q 322 1204 296 1231 q 417 1178 349 1178 q 510 1204 483 1178 q 538 1278 538 1231 l 636 1278 l 636 1253 q 609 1139 636 1188 q 533 1065 582 1090 q 417 1039 483 1039 z "},"Ě":{"ha":810,"x_min":96,"x_max":735,"o":"m 96 0 l 96 972 l 735 972 l 735 821 l 283 821 l 283 567 l 693 567 l 693 421 l 283 421 l 283 151 l 735 151 l 735 0 l 96 0 m 417 1035 l 211 1146 l 211 1279 l 417 1160 l 621 1279 l 621 1146 l 417 1035 z "},"Ê":{"ha":810,"x_min":96,"x_max":735,"o":"m 96 0 l 96 972 l 735 972 l 735 821 l 283 821 l 283 567 l 693 567 l 693 421 l 283 421 l 283 151 l 735 151 l 735 0 l 96 0 m 211 1035 l 211 1169 l 417 1279 l 621 1169 l 621 1035 l 417 1150 l 211 1035 z "},"Ë":{"ha":810,"x_min":96,"x_max":735,"o":"m 96 0 l 96 972 l 735 972 l 735 821 l 283 821 l 283 567 l 693 567 l 693 421 l 283 421 l 283 151 l 735 151 l 735 0 l 96 0 m 288 1065 q 226 1091 251 1065 q 200 1154 200 1117 q 226 1217 200 1192 q 288 1243 251 1243 q 352 1217 326 1243 q 378 1154 378 1192 q 352 1091 378 1117 q 288 1065 326 1065 m 543 1065 q 480 1091 506 1065 q 454 1154 454 1117 q 480 1217 454 1192 q 543 1243 506 1243 q 606 1217 581 1243 q 632 1154 632 1192 q 606 1091 632 1117 q 543 1065 581 1065 z "},"Ė":{"ha":810,"x_min":96,"x_max":735,"o":"m 96 0 l 96 972 l 735 972 l 735 821 l 283 821 l 283 567 l 693 567 l 693 421 l 283 421 l 283 151 l 735 151 l 735 0 l 96 0 m 414 1061 q 352 1087 378 1061 q 326 1149 326 1113 q 352 1212 326 1186 q 414 1238 378 1238 q 478 1212 453 1238 q 504 1149 504 1186 q 478 1087 504 1113 q 414 1061 453 1061 z "},"È":{"ha":810,"x_min":96,"x_max":735,"o":"m 96 0 l 96 972 l 735 972 l 735 821 l 283 821 l 283 567 l 693 567 l 693 421 l 283 421 l 283 151 l 735 151 l 735 0 l 96 0 m 561 1032 l 253 1188 l 274 1331 l 274 1331 l 579 1156 l 561 1032 z "},"Ē":{"ha":810,"x_min":96,"x_max":735,"o":"m 96 0 l 96 972 l 735 972 l 735 821 l 283 821 l 283 567 l 693 567 l 693 421 l 283 421 l 283 151 l 735 151 l 735 0 l 96 0 m 153 1085 l 153 1217 l 678 1217 l 678 1085 l 153 1085 z "},"Ę":{"ha":810,"x_min":96,"x_max":743,"o":"m 96 0 l 96 972 l 735 972 l 735 821 l 283 821 l 283 567 l 693 567 l 693 421 l 283 421 l 283 151 l 735 151 l 735 0 l 96 0 m 621 -293 q 526 -278 569 -293 q 458 -229 483 -262 q 432 -146 432 -196 q 450 -74 432 -108 q 512 -6 468 -39 q 632 60 556 28 l 694 88 l 736 0 l 665 -35 q 594 -82 615 -60 q 574 -129 574 -104 q 592 -169 574 -154 q 644 -185 611 -185 q 691 -179 665 -185 q 743 -164 717 -174 l 743 -274 q 685 -288 717 -283 q 621 -293 654 -293 z "},"Ẽ":{"ha":810,"x_min":96,"x_max":735,"o":"m 96 0 l 96 972 l 735 972 l 735 821 l 283 821 l 283 567 l 693 567 l 693 421 l 283 421 l 283 151 l 735 151 l 735 0 l 96 0 m 504 1043 q 435 1059 464 1043 q 383 1091 407 1075 q 331 1107 360 1107 q 292 1092 308 1107 q 271 1044 276 1076 l 172 1044 q 231 1180 188 1138 q 339 1222 275 1222 q 407 1206 379 1222 q 459 1174 435 1190 q 513 1158 483 1158 q 552 1174 536 1158 q 572 1221 568 1190 l 671 1221 q 613 1086 657 1129 q 504 1043 569 1043 z "},"Ə":{"ha":1060,"x_min":64,"x_max":996,"o":"m 525 -17 q 335 16 421 -17 q 189 110 250 49 q 96 260 128 172 q 64 456 64 347 q 65 497 64 475 q 68 540 67 518 l 828 540 l 828 404 l 268 404 q 302 273 269 328 q 392 188 335 218 q 524 158 449 158 q 628 176 579 158 q 713 231 676 194 q 771 319 750 267 q 792 442 792 372 l 792 518 q 757 678 792 613 q 663 780 722 744 q 528 815 604 815 q 381 776 442 815 q 293 667 319 738 l 78 667 q 168 834 106 761 q 322 948 231 907 q 526 989 413 989 q 772 926 667 989 q 937 751 878 864 q 996 486 996 638 q 938 223 996 336 q 773 47 879 110 q 525 -17 667 -17 z "},"F":{"ha":772,"x_min":96,"x_max":729,"o":"m 96 0 l 96 972 l 729 972 l 729 821 l 283 821 l 283 561 l 640 561 l 640 414 l 283 414 l 283 0 l 96 0 z "},"G":{"ha":1081,"x_min":64,"x_max":1001,"o":"m 522 -17 q 281 45 383 -17 q 121 219 178 107 q 64 479 64 331 q 122 744 64 629 q 290 924 181 858 q 553 989 400 989 q 837 907 724 989 q 983 679 950 825 l 774 679 q 697 780 753 743 q 551 817 640 817 q 390 775 457 817 q 289 658 324 733 q 254 479 254 583 q 289 300 254 374 q 388 188 324 226 q 540 150 453 150 q 734 219 668 150 q 813 397 800 288 l 574 397 l 574 538 l 1001 538 l 1001 0 l 828 0 l 814 124 l 814 124 q 742 47 783 78 q 647 -1 701 15 q 522 -17 593 -17 z "},"Ğ":{"ha":1081,"x_min":64,"x_max":1001,"o":"m 522 -17 q 281 45 383 -17 q 121 219 178 107 q 64 479 64 331 q 122 744 64 629 q 290 924 181 858 q 553 989 400 989 q 837 907 724 989 q 983 679 950 825 l 774 679 q 697 780 753 743 q 551 817 640 817 q 390 775 457 817 q 289 658 324 733 q 254 479 254 583 q 289 300 254 374 q 388 188 324 226 q 540 150 453 150 q 734 219 668 150 q 813 397 800 288 l 574 397 l 574 538 l 1001 538 l 1001 0 l 828 0 l 814 124 l 814 124 q 742 47 783 78 q 647 -1 701 15 q 522 -17 593 -17 m 540 1039 q 423 1065 472 1039 q 347 1140 374 1092 q 321 1254 321 1188 l 321 1278 l 419 1278 q 446 1204 419 1231 q 540 1178 472 1178 q 634 1204 607 1178 q 661 1278 661 1231 l 760 1278 l 760 1253 q 733 1139 760 1188 q 656 1065 706 1090 q 540 1039 607 1039 z "},"Ģ":{"ha":1081,"x_min":64,"x_max":1001,"o":"m 522 -17 q 281 45 383 -17 q 121 219 178 107 q 64 479 64 331 q 122 744 64 629 q 290 924 181 858 q 553 989 400 989 q 837 907 724 989 q 983 679 950 825 l 774 679 q 697 780 753 743 q 551 817 640 817 q 390 775 457 817 q 289 658 324 733 q 254 479 254 583 q 289 300 254 374 q 388 188 324 226 q 540 150 453 150 q 734 219 668 150 q 813 397 800 288 l 574 397 l 574 538 l 1001 538 l 1001 0 l 828 0 l 814 124 l 814 124 q 742 47 783 78 q 647 -1 701 15 q 522 -17 593 -17 m 460 -389 l 460 -314 q 513 -292 496 -314 q 529 -226 529 -271 l 529 -206 l 451 -206 l 451 -61 l 608 -61 q 624 -133 619 -99 q 629 -200 629 -168 q 587 -339 629 -289 q 460 -389 544 -389 z "},"Ġ":{"ha":1081,"x_min":64,"x_max":1001,"o":"m 522 -17 q 281 45 383 -17 q 121 219 178 107 q 64 479 64 331 q 122 744 64 629 q 290 924 181 858 q 553 989 400 989 q 837 907 724 989 q 983 679 950 825 l 774 679 q 697 780 753 743 q 551 817 640 817 q 390 775 457 817 q 289 658 324 733 q 254 479 254 583 q 289 300 254 374 q 388 188 324 226 q 540 150 453 150 q 734 219 668 150 q 813 397 800 288 l 574 397 l 574 538 l 1001 538 l 1001 0 l 828 0 l 814 124 l 814 124 q 742 47 783 78 q 647 -1 701 15 q 522 -17 593 -17 m 539 1061 q 477 1087 503 1061 q 451 1149 451 1113 q 477 1212 451 1186 q 539 1238 503 1238 q 603 1212 578 1238 q 629 1149 629 1186 q 603 1087 629 1113 q 539 1061 578 1061 z "},"H":{"ha":992,"x_min":96,"x_max":896,"o":"m 708 0 l 708 972 l 896 972 l 896 0 l 708 0 m 96 0 l 96 972 l 283 972 l 283 0 l 96 0 m 257 421 l 257 572 l 740 572 l 740 421 l 257 421 z "},"Ħ":{"ha":1072,"x_min":39,"x_max":1033,"o":"m 39 685 l 39 835 l 1033 835 l 1033 685 l 39 685 m 750 0 l 750 972 l 938 972 l 938 0 l 750 0 m 136 0 l 136 972 l 324 972 l 324 0 l 136 0 m 299 421 l 299 572 l 781 572 l 781 421 l 299 421 z "},"I":{"ha":378,"x_min":96,"x_max":283,"o":"m 96 0 l 96 972 l 283 972 l 283 0 l 96 0 z "},"Ĳ":{"ha":1081,"x_min":96,"x_max":985,"o":"m 96 0 l 96 972 l 283 972 l 283 0 l 96 0 m 685 -17 q 519 19 590 -17 q 408 126 447 56 q 369 296 369 196 l 557 296 q 570 219 557 251 q 610 169 583 186 q 681 151 638 151 q 748 167 722 151 q 785 213 774 183 q 797 285 797 243 l 797 972 l 985 972 l 985 285 q 903 61 985 139 q 685 -17 822 -17 z "},"Í":{"ha":378,"x_min":26,"x_max":353,"o":"m 96 0 l 96 972 l 283 972 l 283 0 l 96 0 m 43 1032 l 26 1156 l 331 1331 l 331 1331 l 353 1188 l 43 1032 z "},"Ĭ":{"ha":378,"x_min":-29,"x_max":410,"o":"m 96 0 l 96 972 l 283 972 l 283 0 l 96 0 m 190 1039 q 73 1065 122 1039 q -3 1140 24 1092 q -29 1254 -29 1188 l -29 1278 l 69 1278 q 96 1204 69 1231 q 190 1178 122 1178 q 284 1204 257 1178 q 311 1278 311 1231 l 410 1278 l 410 1253 q 383 1139 410 1188 q 306 1065 356 1090 q 190 1039 257 1039 z "},"Î":{"ha":378,"x_min":-15,"x_max":394,"o":"m 96 0 l 96 972 l 283 972 l 283 0 l 96 0 m -15 1035 l -15 1169 l 190 1279 l 394 1169 l 394 1035 l 190 1150 l -15 1035 z "},"Ï":{"ha":378,"x_min":-26,"x_max":406,"o":"m 96 0 l 96 972 l 283 972 l 283 0 l 96 0 m 61 1065 q -1 1091 25 1065 q -26 1154 -26 1117 q -1 1217 -26 1192 q 61 1243 25 1243 q 126 1217 100 1243 q 151 1154 151 1192 q 126 1091 151 1117 q 61 1065 100 1065 m 317 1065 q 253 1091 279 1065 q 228 1154 228 1117 q 253 1217 228 1192 q 317 1243 279 1243 q 380 1217 354 1243 q 406 1154 406 1192 q 380 1091 406 1117 q 317 1065 354 1065 z "},"İ":{"ha":378,"x_min":96,"x_max":283,"o":"m 96 0 l 96 972 l 283 972 l 283 0 l 96 0 m 188 1061 q 126 1087 151 1061 q 100 1149 100 1113 q 126 1212 100 1186 q 188 1238 151 1238 q 252 1212 226 1238 q 278 1149 278 1186 q 252 1087 278 1113 q 188 1061 226 1061 z "},"Ì":{"ha":378,"x_min":26,"x_max":353,"o":"m 96 0 l 96 972 l 283 972 l 283 0 l 96 0 m 335 1032 l 26 1188 l 47 1331 l 47 1331 l 353 1156 l 335 1032 z "},"Ī":{"ha":378,"x_min":-74,"x_max":451,"o":"m 96 0 l 96 972 l 283 972 l 283 0 l 96 0 m -74 1085 l -74 1217 l 451 1217 l 451 1085 l -74 1085 z "},"Į":{"ha":378,"x_min":-21,"x_max":290,"o":"m 96 0 l 96 972 l 283 972 l 283 0 l 96 0 m 168 -293 q 74 -278 117 -293 q 5 -229 31 -262 q -21 -146 -21 -196 q -3 -74 -21 -108 q 59 -6 15 -39 q 179 60 103 28 l 242 88 l 283 0 l 213 -35 q 142 -82 163 -60 q 121 -129 121 -104 q 140 -169 121 -154 q 192 -185 158 -185 q 238 -179 213 -185 q 290 -164 264 -174 l 290 -274 q 233 -288 264 -283 q 168 -293 201 -293 z "},"Ĩ":{"ha":378,"x_min":-54,"x_max":444,"o":"m 96 0 l 96 972 l 283 972 l 283 0 l 96 0 m 278 1043 q 209 1059 238 1043 q 157 1091 181 1075 q 104 1107 133 1107 q 66 1092 82 1107 q 44 1044 50 1076 l -54 1044 q 5 1180 -39 1138 q 113 1222 49 1222 q 181 1206 153 1222 q 233 1174 208 1190 q 286 1158 257 1158 q 326 1174 310 1158 q 346 1221 342 1190 l 444 1221 q 387 1086 431 1129 q 278 1043 343 1043 z "},"J":{"ha":751,"x_min":40,"x_max":656,"o":"m 356 -17 q 190 19 261 -17 q 79 126 118 56 q 40 296 40 196 l 228 296 q 241 219 228 251 q 281 169 254 186 q 351 151 308 151 q 419 167 393 151 q 456 213 444 183 q 468 285 468 243 l 468 972 l 656 972 l 656 285 q 574 61 656 139 q 356 -17 493 -17 z "},"K":{"ha":907,"x_min":96,"x_max":876,"o":"m 96 0 l 96 972 l 283 972 l 283 588 l 635 972 l 865 972 l 508 588 l 876 0 l 647 0 l 374 442 l 283 344 l 283 0 l 96 0 z "},"Ķ":{"ha":907,"x_min":96,"x_max":876,"o":"m 96 0 l 96 972 l 283 972 l 283 588 l 635 972 l 865 972 l 508 588 l 876 0 l 647 0 l 374 442 l 283 344 l 283 0 l 96 0 m 372 -389 l 372 -314 q 425 -292 408 -314 q 442 -226 442 -271 l 442 -206 l 364 -206 l 364 -61 l 521 -61 q 537 -133 532 -99 q 542 -200 542 -168 q 499 -339 542 -289 q 372 -389 457 -389 z "},"L":{"ha":775,"x_min":96,"x_max":710,"o":"m 96 0 l 96 972 l 283 972 l 283 146 l 710 146 l 710 0 l 96 0 z "},"Ĺ":{"ha":775,"x_min":35,"x_max":710,"o":"m 96 0 l 96 972 l 283 972 l 283 146 l 710 146 l 710 0 l 96 0 m 51 1032 l 35 1156 l 339 1331 l 339 1331 l 361 1188 l 51 1032 z "},"Ľ":{"ha":775,"x_min":96,"x_max":710,"o":"m 96 0 l 96 972 l 283 972 l 283 146 l 710 146 l 710 0 l 96 0 m 439 696 l 439 772 q 488 784 472 772 q 504 822 504 796 l 504 849 l 439 849 l 439 996 l 585 996 q 599 924 594 956 q 603 860 603 893 q 561 738 603 781 q 439 696 519 696 z "},"Ļ":{"ha":775,"x_min":96,"x_max":710,"o":"m 96 0 l 96 972 l 283 972 l 283 146 l 710 146 l 710 0 l 96 0 m 358 -389 l 358 -314 q 411 -292 394 -314 q 428 -226 428 -271 l 428 -206 l 350 -206 l 350 -61 l 507 -61 q 523 -133 518 -99 q 528 -200 528 -168 q 485 -339 528 -289 q 358 -389 443 -389 z "},"Ŀ":{"ha":775,"x_min":96,"x_max":710,"o":"m 96 0 l 96 972 l 283 972 l 283 146 l 710 146 l 710 0 l 96 0 m 531 378 q 446 409 478 378 q 414 486 414 440 q 446 563 414 532 q 531 594 478 594 q 613 563 581 594 q 644 486 644 532 q 613 409 644 440 q 531 378 581 378 z "},"Ł":{"ha":810,"x_min":32,"x_max":743,"o":"m 32 369 l 32 525 l 456 664 l 456 508 l 32 369 m 129 0 l 129 972 l 317 972 l 317 146 l 743 146 l 743 0 l 129 0 z "},"M":{"ha":1231,"x_min":96,"x_max":1135,"o":"m 96 0 l 96 972 l 319 972 l 617 365 l 617 365 l 911 972 l 1135 972 l 1135 0 l 947 0 l 947 653 l 947 653 l 690 136 l 542 136 l 283 653 l 283 653 l 283 0 l 96 0 z "},"N":{"ha":1013,"x_min":96,"x_max":918,"o":"m 96 0 l 96 972 l 283 972 l 731 301 l 731 301 l 731 972 l 918 972 l 918 0 l 731 0 l 283 669 l 283 669 l 283 0 l 96 0 z "},"Ń":{"ha":1013,"x_min":96,"x_max":918,"o":"m 96 0 l 96 972 l 283 972 l 731 301 l 731 301 l 731 972 l 918 972 l 918 0 l 731 0 l 283 669 l 283 669 l 283 0 l 96 0 m 360 1032 l 343 1156 l 647 1331 l 647 1331 l 669 1188 l 360 1032 z "},"Ň":{"ha":1013,"x_min":96,"x_max":918,"o":"m 96 0 l 96 972 l 283 972 l 731 301 l 731 301 l 731 972 l 918 972 l 918 0 l 731 0 l 283 669 l 283 669 l 283 0 l 96 0 m 507 1035 l 301 1146 l 301 1279 l 507 1160 l 711 1279 l 711 1146 l 507 1035 z "},"Ņ":{"ha":1013,"x_min":96,"x_max":918,"o":"m 96 0 l 96 972 l 283 972 l 731 301 l 731 301 l 731 972 l 918 972 l 918 0 l 731 0 l 283 669 l 283 669 l 283 0 l 96 0 m 426 -389 l 426 -314 q 479 -292 463 -314 q 496 -226 496 -271 l 496 -206 l 418 -206 l 418 -61 l 575 -61 q 591 -133 586 -99 q 596 -200 596 -168 q 553 -339 596 -289 q 426 -389 511 -389 z "},"Ñ":{"ha":1013,"x_min":96,"x_max":918,"o":"m 96 0 l 96 972 l 283 972 l 731 301 l 731 301 l 731 972 l 918 972 l 918 0 l 731 0 l 283 669 l 283 669 l 283 0 l 96 0 m 594 1043 q 526 1059 554 1043 q 474 1091 497 1075 q 421 1107 450 1107 q 383 1092 399 1107 q 361 1044 367 1076 l 263 1044 q 322 1180 278 1138 q 429 1222 365 1222 q 497 1206 469 1222 q 549 1174 525 1190 q 603 1158 574 1158 q 642 1174 626 1158 q 663 1221 658 1190 l 761 1221 q 703 1086 747 1129 q 594 1043 660 1043 z "},"Ŋ":{"ha":1013,"x_min":96,"x_max":918,"o":"m 96 0 l 96 972 l 283 972 l 731 301 l 731 301 l 731 972 l 918 972 l 918 -68 q 888 -206 918 -154 q 804 -282 858 -258 q 676 -306 750 -306 l 592 -306 l 592 -146 l 649 -146 q 712 -128 693 -146 q 731 -69 731 -111 l 731 0 l 283 669 l 283 669 l 283 0 l 96 0 z "},"O":{"ha":1089,"x_min":64,"x_max":1025,"o":"m 544 -17 q 294 47 403 -17 q 125 224 186 111 q 64 486 64 338 q 125 748 64 635 q 294 925 186 861 q 544 989 403 989 q 796 925 688 989 q 965 748 904 861 q 1025 486 1025 635 q 965 224 1025 338 q 796 47 904 111 q 544 -17 688 -17 m 544 151 q 698 192 633 151 q 799 308 763 233 q 835 486 835 383 q 799 665 835 590 q 698 779 763 739 q 544 819 633 819 q 392 779 457 819 q 290 665 326 739 q 254 486 254 590 q 290 308 254 383 q 392 192 326 233 q 544 151 457 151 z "},"Ó":{"ha":1089,"x_min":64,"x_max":1025,"o":"m 544 -17 q 294 47 403 -17 q 125 224 186 111 q 64 486 64 338 q 125 748 64 635 q 294 925 186 861 q 544 989 403 989 q 796 925 688 989 q 965 748 904 861 q 1025 486 1025 635 q 965 224 1025 338 q 796 47 904 111 q 544 -17 688 -17 m 544 151 q 698 192 633 151 q 799 308 763 233 q 835 486 835 383 q 799 665 835 590 q 698 779 763 739 q 544 819 633 819 q 392 779 457 819 q 290 665 326 739 q 254 486 254 590 q 290 308 254 383 q 392 192 326 233 q 544 151 457 151 m 399 1032 l 382 1156 l 686 1331 l 686 1331 l 708 1188 l 399 1032 z "},"Ŏ":{"ha":1089,"x_min":64,"x_max":1025,"o":"m 544 -17 q 294 47 403 -17 q 125 224 186 111 q 64 486 64 338 q 125 748 64 635 q 294 925 186 861 q 544 989 403 989 q 796 925 688 989 q 965 748 904 861 q 1025 486 1025 635 q 965 224 1025 338 q 796 47 904 111 q 544 -17 688 -17 m 544 151 q 698 192 633 151 q 799 308 763 233 q 835 486 835 383 q 799 665 835 590 q 698 779 763 739 q 544 819 633 819 q 392 779 457 819 q 290 665 326 739 q 254 486 254 590 q 290 308 254 383 q 392 192 326 233 q 544 151 457 151 m 546 1039 q 428 1065 478 1039 q 353 1140 379 1092 q 326 1254 326 1188 l 326 1278 l 425 1278 q 451 1204 425 1231 q 546 1178 478 1178 q 640 1204 613 1178 q 667 1278 667 1231 l 765 1278 l 765 1253 q 738 1139 765 1188 q 662 1065 711 1090 q 546 1039 613 1039 z "},"Ô":{"ha":1089,"x_min":64,"x_max":1025,"o":"m 544 -17 q 294 47 403 -17 q 125 224 186 111 q 64 486 64 338 q 125 748 64 635 q 294 925 186 861 q 544 989 403 989 q 796 925 688 989 q 965 748 904 861 q 1025 486 1025 635 q 965 224 1025 338 q 796 47 904 111 q 544 -17 688 -17 m 544 151 q 698 192 633 151 q 799 308 763 233 q 835 486 835 383 q 799 665 835 590 q 698 779 763 739 q 544 819 633 819 q 392 779 457 819 q 290 665 326 739 q 254 486 254 590 q 290 308 254 383 q 392 192 326 233 q 544 151 457 151 m 340 1035 l 340 1169 l 546 1279 l 750 1169 l 750 1035 l 546 1150 l 340 1035 z "},"Ö":{"ha":1089,"x_min":64,"x_max":1025,"o":"m 544 -17 q 294 47 403 -17 q 125 224 186 111 q 64 486 64 338 q 125 748 64 635 q 294 925 186 861 q 544 989 403 989 q 796 925 688 989 q 965 748 904 861 q 1025 486 1025 635 q 965 224 1025 338 q 796 47 904 111 q 544 -17 688 -17 m 544 151 q 698 192 633 151 q 799 308 763 233 q 835 486 835 383 q 799 665 835 590 q 698 779 763 739 q 544 819 633 819 q 392 779 457 819 q 290 665 326 739 q 254 486 254 590 q 290 308 254 383 q 392 192 326 233 q 544 151 457 151 m 417 1065 q 355 1091 381 1065 q 329 1154 329 1117 q 355 1217 329 1192 q 417 1243 381 1243 q 481 1217 456 1243 q 507 1154 507 1192 q 481 1091 507 1117 q 417 1065 456 1065 m 672 1065 q 609 1091 635 1065 q 583 1154 583 1117 q 609 1217 583 1192 q 672 1243 635 1243 q 735 1217 710 1243 q 761 1154 761 1192 q 735 1091 761 1117 q 672 1065 710 1065 z "},"Ò":{"ha":1089,"x_min":64,"x_max":1025,"o":"m 544 -17 q 294 47 403 -17 q 125 224 186 111 q 64 486 64 338 q 125 748 64 635 q 294 925 186 861 q 544 989 403 989 q 796 925 688 989 q 965 748 904 861 q 1025 486 1025 635 q 965 224 1025 338 q 796 47 904 111 q 544 -17 688 -17 m 544 151 q 698 192 633 151 q 799 308 763 233 q 835 486 835 383 q 799 665 835 590 q 698 779 763 739 q 544 819 633 819 q 392 779 457 819 q 290 665 326 739 q 254 486 254 590 q 290 308 254 383 q 392 192 326 233 q 544 151 457 151 m 690 1032 l 382 1188 l 403 1331 l 403 1331 l 708 1156 l 690 1032 z "},"Ő":{"ha":1089,"x_min":64,"x_max":1025,"o":"m 544 -17 q 294 47 403 -17 q 125 224 186 111 q 64 486 64 338 q 125 748 64 635 q 294 925 186 861 q 544 989 403 989 q 796 925 688 989 q 965 748 904 861 q 1025 486 1025 635 q 965 224 1025 338 q 796 47 904 111 q 544 -17 688 -17 m 544 151 q 698 192 633 151 q 799 308 763 233 q 835 486 835 383 q 799 665 835 590 q 698 779 763 739 q 544 819 633 819 q 392 779 457 819 q 290 665 326 739 q 254 486 254 590 q 290 308 254 383 q 392 192 326 233 q 544 151 457 151 m 592 1038 l 706 1293 l 858 1293 l 708 1038 l 592 1038 m 350 1038 l 449 1293 l 601 1293 l 468 1038 l 350 1038 z "},"Ō":{"ha":1089,"x_min":64,"x_max":1025,"o":"m 544 -17 q 294 47 403 -17 q 125 224 186 111 q 64 486 64 338 q 125 748 64 635 q 294 925 186 861 q 544 989 403 989 q 796 925 688 989 q 965 748 904 861 q 1025 486 1025 635 q 965 224 1025 338 q 796 47 904 111 q 544 -17 688 -17 m 544 151 q 698 192 633 151 q 799 308 763 233 q 835 486 835 383 q 799 665 835 590 q 698 779 763 739 q 544 819 633 819 q 392 779 457 819 q 290 665 326 739 q 254 486 254 590 q 290 308 254 383 q 392 192 326 233 q 544 151 457 151 m 282 1085 l 282 1217 l 807 1217 l 807 1085 l 282 1085 z "},"Ø":{"ha":1079,"x_min":36,"x_max":1044,"o":"m 36 0 l 868 972 l 1044 972 l 214 0 l 36 0 m 543 -17 q 293 47 401 -17 q 124 224 185 111 q 63 486 63 338 q 124 748 63 635 q 293 925 185 861 q 543 989 401 989 q 795 925 686 989 q 965 748 904 861 q 1025 486 1025 635 q 965 224 1025 338 q 795 47 904 111 q 543 -17 686 -17 m 543 151 q 697 192 632 151 q 798 308 763 233 q 833 486 833 383 q 798 665 833 590 q 697 779 763 739 q 543 819 632 819 q 390 779 456 819 q 290 665 325 739 q 254 486 254 590 q 290 308 254 383 q 390 192 325 233 q 543 151 456 151 z "},"Õ":{"ha":1089,"x_min":64,"x_max":1025,"o":"m 544 -17 q 294 47 403 -17 q 125 224 186 111 q 64 486 64 338 q 125 748 64 635 q 294 925 186 861 q 544 989 403 989 q 796 925 688 989 q 965 748 904 861 q 1025 486 1025 635 q 965 224 1025 338 q 796 47 904 111 q 544 -17 688 -17 m 544 151 q 698 192 633 151 q 799 308 763 233 q 835 486 835 383 q 799 665 835 590 q 698 779 763 739 q 544 819 633 819 q 392 779 457 819 q 290 665 326 739 q 254 486 254 590 q 290 308 254 383 q 392 192 326 233 q 544 151 457 151 m 633 1043 q 565 1059 593 1043 q 513 1091 536 1075 q 460 1107 489 1107 q 422 1092 438 1107 q 400 1044 406 1076 l 301 1044 q 360 1180 317 1138 q 468 1222 404 1222 q 536 1206 508 1222 q 588 1174 564 1190 q 642 1158 613 1158 q 681 1174 665 1158 q 701 1221 697 1190 l 800 1221 q 742 1086 786 1129 q 633 1043 699 1043 z "},"Œ":{"ha":1525,"x_min":64,"x_max":1450,"o":"m 536 -17 q 349 20 435 -17 q 198 124 263 57 q 99 283 133 190 q 64 486 64 375 q 99 690 64 597 q 197 849 133 782 q 347 952 261 915 q 535 989 433 989 q 708 953 625 989 q 843 851 790 918 l 843 972 l 1450 972 l 1450 821 l 1031 821 l 1031 567 l 1408 567 l 1408 421 l 1031 421 l 1031 151 l 1450 151 l 1450 0 l 843 0 l 843 118 q 759 44 808 75 q 652 -1 710 14 q 536 -17 594 -17 m 549 151 q 698 192 632 151 q 803 308 764 233 q 842 486 842 383 q 803 665 842 590 q 698 779 764 739 q 549 819 632 819 q 399 779 465 819 q 293 665 332 739 q 254 486 254 590 q 293 308 254 383 q 399 192 332 233 q 549 151 465 151 z "},"P":{"ha":853,"x_min":96,"x_max":808,"o":"m 96 0 l 96 972 l 460 972 q 656 932 578 972 q 771 824 733 892 q 808 668 808 756 q 772 519 808 588 q 658 409 736 451 q 460 367 581 367 l 283 367 l 283 0 l 96 0 m 283 518 l 449 518 q 578 559 539 518 q 618 668 618 600 q 578 780 618 740 q 449 819 539 819 l 283 819 l 283 518 z "},"Þ":{"ha":853,"x_min":96,"x_max":808,"o":"m 96 0 l 96 972 l 283 972 l 283 786 l 461 786 q 656 747 578 786 q 771 640 733 708 q 808 485 808 572 q 772 338 808 406 q 659 228 736 269 q 461 186 582 186 l 283 186 l 283 0 l 96 0 m 283 338 l 450 338 q 578 378 539 338 q 618 485 618 418 q 578 594 618 556 q 450 633 539 633 l 283 633 l 283 338 z "},"Q":{"ha":1089,"x_min":64,"x_max":1025,"o":"m 774 -153 l 419 404 l 635 404 l 997 -153 l 774 -153 m 544 -17 q 294 47 403 -17 q 125 224 186 111 q 64 486 64 338 q 125 748 64 635 q 294 925 186 861 q 544 989 403 989 q 796 925 688 989 q 965 748 904 861 q 1025 486 1025 635 q 965 224 1025 338 q 796 47 904 111 q 544 -17 688 -17 m 544 151 q 698 192 633 151 q 799 308 763 233 q 835 486 835 383 q 799 665 835 590 q 698 779 763 739 q 544 819 633 819 q 392 779 457 819 q 290 665 326 739 q 254 486 254 590 q 290 308 254 383 q 392 192 326 233 q 544 151 457 151 z "},"R":{"ha":876,"x_min":96,"x_max":814,"o":"m 96 0 l 96 972 l 458 972 q 653 932 576 972 q 767 824 729 892 q 804 675 804 757 q 768 530 804 597 q 655 422 732 463 q 457 381 578 381 l 283 381 l 283 0 l 96 0 m 600 0 l 400 428 l 603 428 l 814 0 l 600 0 m 283 517 l 447 517 q 572 558 532 517 q 613 668 613 600 q 573 776 613 736 q 447 815 533 815 l 283 815 l 283 517 z "},"Ŕ":{"ha":876,"x_min":96,"x_max":814,"o":"m 96 0 l 96 972 l 458 972 q 653 932 576 972 q 767 824 729 892 q 804 675 804 757 q 768 530 804 597 q 655 422 732 463 q 457 381 578 381 l 283 381 l 283 0 l 96 0 m 600 0 l 400 428 l 603 428 l 814 0 l 600 0 m 283 517 l 447 517 q 572 558 532 517 q 613 668 613 600 q 573 776 613 736 q 447 815 533 815 l 283 815 l 283 517 m 278 1032 l 261 1156 l 565 1331 l 565 1331 l 588 1188 l 278 1032 z "},"Ř":{"ha":876,"x_min":96,"x_max":814,"o":"m 96 0 l 96 972 l 458 972 q 653 932 576 972 q 767 824 729 892 q 804 675 804 757 q 768 530 804 597 q 655 422 732 463 q 457 381 578 381 l 283 381 l 283 0 l 96 0 m 600 0 l 400 428 l 603 428 l 814 0 l 600 0 m 283 517 l 447 517 q 572 558 532 517 q 613 668 613 600 q 573 776 613 736 q 447 815 533 815 l 283 815 l 283 517 m 425 1035 l 219 1146 l 219 1279 l 425 1160 l 629 1279 l 629 1146 l 425 1035 z "},"Ŗ":{"ha":876,"x_min":96,"x_max":814,"o":"m 96 0 l 96 972 l 458 972 q 653 932 576 972 q 767 824 729 892 q 804 675 804 757 q 768 530 804 597 q 655 422 732 463 q 457 381 578 381 l 283 381 l 283 0 l 96 0 m 600 0 l 400 428 l 603 428 l 814 0 l 600 0 m 283 517 l 447 517 q 572 558 532 517 q 613 668 613 600 q 573 776 613 736 q 447 815 533 815 l 283 815 l 283 517 m 344 -389 l 344 -314 q 397 -292 381 -314 q 414 -226 414 -271 l 414 -206 l 336 -206 l 336 -61 l 493 -61 q 509 -133 504 -99 q 514 -200 514 -168 q 472 -339 514 -289 q 344 -389 429 -389 z "},"S":{"ha":839,"x_min":63,"x_max":775,"o":"m 431 -17 q 242 19 325 -17 q 112 125 160 56 q 63 293 64 194 l 261 293 q 283 215 263 250 q 341 160 304 181 q 429 140 378 140 q 506 155 474 140 q 557 196 539 169 q 575 258 575 222 q 555 328 575 300 q 499 375 535 356 q 417 410 464 394 q 319 444 371 426 q 144 544 204 482 q 83 710 83 607 q 126 860 83 797 q 243 956 168 922 q 414 989 318 989 q 587 955 513 989 q 705 857 661 921 q 750 707 749 793 l 550 707 q 531 767 549 739 q 483 813 514 796 q 411 831 453 831 q 345 819 375 832 q 298 783 315 807 q 281 722 281 758 q 298 664 281 688 q 346 623 315 640 q 418 591 376 606 q 508 561 460 576 q 642 502 581 536 q 739 414 703 468 q 775 271 775 360 q 735 129 775 194 q 619 24 694 64 q 431 -17 543 -17 z "},"Ś":{"ha":839,"x_min":63,"x_max":775,"o":"m 431 -17 q 242 19 325 -17 q 112 125 160 56 q 63 293 64 194 l 261 293 q 283 215 263 250 q 341 160 304 181 q 429 140 378 140 q 506 155 474 140 q 557 196 539 169 q 575 258 575 222 q 555 328 575 300 q 499 375 535 356 q 417 410 464 394 q 319 444 371 426 q 144 544 204 482 q 83 710 83 607 q 126 860 83 797 q 243 956 168 922 q 414 989 318 989 q 587 955 513 989 q 705 857 661 921 q 750 707 749 793 l 550 707 q 531 767 549 739 q 483 813 514 796 q 411 831 453 831 q 345 819 375 832 q 298 783 315 807 q 281 722 281 758 q 298 664 281 688 q 346 623 315 640 q 418 591 376 606 q 508 561 460 576 q 642 502 581 536 q 739 414 703 468 q 775 271 775 360 q 735 129 775 194 q 619 24 694 64 q 431 -17 543 -17 m 269 1032 l 253 1156 l 557 1331 l 557 1331 l 579 1188 l 269 1032 z "},"Š":{"ha":839,"x_min":63,"x_max":775,"o":"m 431 -17 q 242 19 325 -17 q 112 125 160 56 q 63 293 64 194 l 261 293 q 283 215 263 250 q 341 160 304 181 q 429 140 378 140 q 506 155 474 140 q 557 196 539 169 q 575 258 575 222 q 555 328 575 300 q 499 375 535 356 q 417 410 464 394 q 319 444 371 426 q 144 544 204 482 q 83 710 83 607 q 126 860 83 797 q 243 956 168 922 q 414 989 318 989 q 587 955 513 989 q 705 857 661 921 q 750 707 749 793 l 550 707 q 531 767 549 739 q 483 813 514 796 q 411 831 453 831 q 345 819 375 832 q 298 783 315 807 q 281 722 281 758 q 298 664 281 688 q 346 623 315 640 q 418 591 376 606 q 508 561 460 576 q 642 502 581 536 q 739 414 703 468 q 775 271 775 360 q 735 129 775 194 q 619 24 694 64 q 431 -17 543 -17 m 417 1035 l 211 1146 l 211 1279 l 417 1160 l 621 1279 l 621 1146 l 417 1035 z "},"Ş":{"ha":839,"x_min":63,"x_max":775,"o":"m 431 -17 q 242 19 325 -17 q 112 125 160 56 q 63 293 64 194 l 261 293 q 283 215 263 250 q 341 160 304 181 q 429 140 378 140 q 506 155 474 140 q 557 196 539 169 q 575 258 575 222 q 555 328 575 300 q 499 375 535 356 q 417 410 464 394 q 319 444 371 426 q 144 544 204 482 q 83 710 83 607 q 126 860 83 797 q 243 956 168 922 q 414 989 318 989 q 587 955 513 989 q 705 857 661 921 q 750 707 749 793 l 550 707 q 531 767 549 739 q 483 813 514 796 q 411 831 453 831 q 345 819 375 832 q 298 783 315 807 q 281 722 281 758 q 298 664 281 688 q 346 623 315 640 q 418 591 376 606 q 508 561 460 576 q 642 502 581 536 q 739 414 703 468 q 775 271 775 360 q 735 129 775 194 q 619 24 694 64 q 431 -17 543 -17 m 304 -371 l 304 -264 l 464 -264 q 517 -252 499 -264 q 535 -215 535 -240 q 517 -179 535 -190 q 464 -168 499 -168 l 378 -168 l 378 6 l 494 6 l 494 -71 q 581 -85 540 -69 q 648 -133 622 -100 q 674 -218 674 -165 q 648 -303 674 -269 q 581 -354 622 -337 q 492 -371 540 -371 l 304 -371 z "},"Ș":{"ha":839,"x_min":63,"x_max":775,"o":"m 431 -17 q 242 19 325 -17 q 112 125 160 56 q 63 293 64 194 l 261 293 q 283 215 263 250 q 341 160 304 181 q 429 140 378 140 q 506 155 474 140 q 557 196 539 169 q 575 258 575 222 q 555 328 575 300 q 499 375 535 356 q 417 410 464 394 q 319 444 371 426 q 144 544 204 482 q 83 710 83 607 q 126 860 83 797 q 243 956 168 922 q 414 989 318 989 q 587 955 513 989 q 705 857 661 921 q 750 707 749 793 l 550 707 q 531 767 549 739 q 483 813 514 796 q 411 831 453 831 q 345 819 375 832 q 298 783 315 807 q 281 722 281 758 q 298 664 281 688 q 346 623 315 640 q 418 591 376 606 q 508 561 460 576 q 642 502 581 536 q 739 414 703 468 q 775 271 775 360 q 735 129 775 194 q 619 24 694 64 q 431 -17 543 -17 m 346 -389 l 346 -314 q 399 -292 382 -314 q 415 -226 415 -271 l 415 -206 l 338 -206 l 338 -61 l 494 -61 q 510 -133 506 -99 q 515 -200 515 -168 q 473 -339 515 -289 q 346 -389 431 -389 z "},"ẞ":{"ha":1018,"x_min":96,"x_max":954,"o":"m 650 -8 q 424 72 503 -8 q 344 304 344 151 l 528 304 q 556 192 528 235 q 651 149 585 149 q 726 169 699 149 q 765 224 753 189 q 776 304 776 260 q 731 435 775 393 q 601 476 686 476 l 454 476 l 454 601 l 661 813 l 367 813 q 302 794 321 813 q 283 735 283 776 l 283 0 l 96 0 l 96 735 q 125 874 96 822 q 209 949 154 925 q 338 972 264 972 l 881 972 l 881 831 l 650 599 l 671 599 q 825 561 763 599 q 921 458 888 524 q 954 307 954 393 q 918 138 954 208 q 814 29 882 67 q 650 -8 746 -8 z "},"T":{"ha":829,"x_min":38,"x_max":792,"o":"m 322 0 l 322 821 l 38 821 l 38 972 l 792 972 l 792 821 l 508 821 l 508 0 l 322 0 z "},"Ť":{"ha":829,"x_min":38,"x_max":792,"o":"m 322 0 l 322 821 l 38 821 l 38 972 l 792 972 l 792 821 l 508 821 l 508 0 l 322 0 m 415 1035 l 210 1146 l 210 1279 l 415 1160 l 619 1279 l 619 1146 l 415 1035 z "},"Ţ":{"ha":829,"x_min":38,"x_max":792,"o":"m 322 0 l 322 821 l 38 821 l 38 972 l 792 972 l 792 821 l 508 821 l 508 0 l 322 0 m 290 -371 l 290 -264 l 450 -264 q 503 -252 485 -264 q 521 -215 521 -240 q 503 -179 521 -190 q 450 -168 485 -168 l 364 -168 l 364 6 l 481 6 l 481 -71 q 567 -85 526 -69 q 634 -133 608 -100 q 660 -218 660 -165 q 634 -303 660 -269 q 567 -354 608 -337 q 478 -371 526 -371 l 290 -371 z "},"Ț":{"ha":829,"x_min":38,"x_max":792,"o":"m 322 0 l 322 821 l 38 821 l 38 972 l 792 972 l 792 821 l 508 821 l 508 0 l 322 0 m 333 -389 l 333 -314 q 386 -292 369 -314 q 403 -226 403 -271 l 403 -206 l 325 -206 l 325 -61 l 482 -61 q 498 -133 493 -99 q 503 -200 503 -168 q 460 -339 503 -289 q 333 -389 418 -389 z "},"U":{"ha":951,"x_min":88,"x_max":864,"o":"m 472 -17 q 278 26 365 -17 q 139 156 190 69 q 88 375 88 242 l 88 972 l 275 972 l 275 374 q 299 252 275 301 q 367 179 322 203 q 475 156 413 156 q 584 179 539 156 q 653 252 629 203 q 676 374 676 301 l 676 972 l 864 972 l 864 375 q 811 156 864 242 q 669 26 758 69 q 472 -17 579 -17 z "},"Ú":{"ha":951,"x_min":88,"x_max":864,"o":"m 472 -17 q 278 26 365 -17 q 139 156 190 69 q 88 375 88 242 l 88 972 l 275 972 l 275 374 q 299 252 275 301 q 367 179 322 203 q 475 156 413 156 q 584 179 539 156 q 653 252 629 203 q 676 374 676 301 l 676 972 l 864 972 l 864 375 q 811 156 864 242 q 669 26 758 69 q 472 -17 579 -17 m 329 1032 l 313 1156 l 617 1331 l 617 1331 l 639 1188 l 329 1032 z "},"Ŭ":{"ha":951,"x_min":88,"x_max":864,"o":"m 472 -17 q 278 26 365 -17 q 139 156 190 69 q 88 375 88 242 l 88 972 l 275 972 l 275 374 q 299 252 275 301 q 367 179 322 203 q 475 156 413 156 q 584 179 539 156 q 653 252 629 203 q 676 374 676 301 l 676 972 l 864 972 l 864 375 q 811 156 864 242 q 669 26 758 69 q 472 -17 579 -17 m 476 1039 q 359 1065 408 1039 q 283 1140 310 1092 q 257 1254 257 1188 l 257 1278 l 356 1278 q 382 1204 356 1231 q 476 1178 408 1178 q 570 1204 543 1178 q 597 1278 597 1231 l 696 1278 l 696 1253 q 669 1139 696 1188 q 592 1065 642 1090 q 476 1039 543 1039 z "},"Û":{"ha":951,"x_min":88,"x_max":864,"o":"m 472 -17 q 278 26 365 -17 q 139 156 190 69 q 88 375 88 242 l 88 972 l 275 972 l 275 374 q 299 252 275 301 q 367 179 322 203 q 475 156 413 156 q 584 179 539 156 q 653 252 629 203 q 676 374 676 301 l 676 972 l 864 972 l 864 375 q 811 156 864 242 q 669 26 758 69 q 472 -17 579 -17 m 271 1035 l 271 1169 l 476 1279 l 681 1169 l 681 1035 l 476 1150 l 271 1035 z "},"Ü":{"ha":951,"x_min":88,"x_max":864,"o":"m 472 -17 q 278 26 365 -17 q 139 156 190 69 q 88 375 88 242 l 88 972 l 275 972 l 275 374 q 299 252 275 301 q 367 179 322 203 q 475 156 413 156 q 584 179 539 156 q 653 252 629 203 q 676 374 676 301 l 676 972 l 864 972 l 864 375 q 811 156 864 242 q 669 26 758 69 q 472 -17 579 -17 m 347 1065 q 285 1091 311 1065 q 260 1154 260 1117 q 285 1217 260 1192 q 347 1243 311 1243 q 412 1217 386 1243 q 438 1154 438 1192 q 412 1091 438 1117 q 347 1065 386 1065 m 603 1065 q 540 1091 565 1065 q 514 1154 514 1117 q 540 1217 514 1192 q 603 1243 565 1243 q 666 1217 640 1243 q 692 1154 692 1192 q 666 1091 692 1117 q 603 1065 640 1065 z "},"Ù":{"ha":951,"x_min":88,"x_max":864,"o":"m 472 -17 q 278 26 365 -17 q 139 156 190 69 q 88 375 88 242 l 88 972 l 275 972 l 275 374 q 299 252 275 301 q 367 179 322 203 q 475 156 413 156 q 584 179 539 156 q 653 252 629 203 q 676 374 676 301 l 676 972 l 864 972 l 864 375 q 811 156 864 242 q 669 26 758 69 q 472 -17 579 -17 m 621 1032 l 313 1188 l 333 1331 l 333 1331 l 639 1156 l 621 1032 z "},"Ű":{"ha":951,"x_min":88,"x_max":864,"o":"m 472 -17 q 278 26 365 -17 q 139 156 190 69 q 88 375 88 242 l 88 972 l 275 972 l 275 374 q 299 252 275 301 q 367 179 322 203 q 475 156 413 156 q 584 179 539 156 q 653 252 629 203 q 676 374 676 301 l 676 972 l 864 972 l 864 375 q 811 156 864 242 q 669 26 758 69 q 472 -17 579 -17 m 522 1038 l 636 1293 l 789 1293 l 639 1038 l 522 1038 m 281 1038 l 379 1293 l 532 1293 l 399 1038 l 281 1038 z "},"Ū":{"ha":951,"x_min":88,"x_max":864,"o":"m 472 -17 q 278 26 365 -17 q 139 156 190 69 q 88 375 88 242 l 88 972 l 275 972 l 275 374 q 299 252 275 301 q 367 179 322 203 q 475 156 413 156 q 584 179 539 156 q 653 252 629 203 q 676 374 676 301 l 676 972 l 864 972 l 864 375 q 811 156 864 242 q 669 26 758 69 q 472 -17 579 -17 m 213 1085 l 213 1217 l 738 1217 l 738 1085 l 213 1085 z "},"Ų":{"ha":951,"x_min":88,"x_max":864,"o":"m 472 -17 q 278 26 365 -17 q 139 156 190 69 q 88 375 88 242 l 88 972 l 275 972 l 275 374 q 299 252 275 301 q 367 179 322 203 q 475 156 413 156 q 584 179 539 156 q 653 252 629 203 q 676 374 676 301 l 676 972 l 864 972 l 864 375 q 811 156 864 242 q 669 26 758 69 q 472 -17 579 -17 m 469 -292 q 375 -276 418 -292 q 306 -228 332 -261 q 281 -144 281 -194 q 299 -72 281 -107 q 360 -4 317 -37 q 481 61 404 29 l 543 89 l 585 1 l 514 -33 q 442 -81 463 -58 q 422 -128 422 -103 q 441 -168 422 -153 q 493 -183 460 -183 q 540 -178 514 -183 q 592 -162 565 -172 l 592 -272 q 533 -287 565 -282 q 469 -292 501 -292 z "},"Ů":{"ha":951,"x_min":88,"x_max":864,"o":"m 472 -17 q 278 26 365 -17 q 139 156 190 69 q 88 375 88 242 l 88 972 l 275 972 l 275 374 q 299 252 275 301 q 367 179 322 203 q 475 156 413 156 q 584 179 539 156 q 653 252 629 203 q 676 374 676 301 l 676 972 l 864 972 l 864 375 q 811 156 864 242 q 669 26 758 69 q 472 -17 579 -17 m 475 1040 q 363 1083 410 1040 q 315 1199 315 1125 q 363 1314 315 1272 q 475 1356 410 1356 q 589 1314 542 1356 q 636 1199 636 1272 q 589 1083 636 1125 q 475 1040 542 1040 m 475 1124 q 526 1144 506 1124 q 547 1199 547 1165 q 526 1253 547 1233 q 475 1272 506 1272 q 425 1253 446 1272 q 404 1199 404 1233 q 425 1144 404 1165 q 475 1124 446 1124 z "},"Ũ":{"ha":951,"x_min":88,"x_max":864,"o":"m 472 -17 q 278 26 365 -17 q 139 156 190 69 q 88 375 88 242 l 88 972 l 275 972 l 275 374 q 299 252 275 301 q 367 179 322 203 q 475 156 413 156 q 584 179 539 156 q 653 252 629 203 q 676 374 676 301 l 676 972 l 864 972 l 864 375 q 811 156 864 242 q 669 26 758 69 q 472 -17 579 -17 m 564 1043 q 495 1059 524 1043 q 443 1091 467 1075 q 390 1107 419 1107 q 352 1092 368 1107 q 331 1044 336 1076 l 232 1044 q 291 1180 247 1138 q 399 1222 335 1222 q 467 1206 439 1222 q 519 1174 494 1190 q 572 1158 543 1158 q 612 1174 596 1158 q 632 1221 628 1190 l 731 1221 q 673 1086 717 1129 q 564 1043 629 1043 z "},"V":{"ha":981,"x_min":21,"x_max":960,"o":"m 375 0 l 21 972 l 221 972 l 490 192 l 490 192 l 761 972 l 960 972 l 606 0 l 375 0 z "},"W":{"ha":1414,"x_min":36,"x_max":1379,"o":"m 292 0 l 36 972 l 236 972 l 406 213 l 406 213 l 606 972 l 813 972 l 1007 213 l 1007 213 l 1178 972 l 1379 972 l 1117 0 l 893 0 l 707 708 l 707 708 l 514 0 l 292 0 z "},"Ẃ":{"ha":1414,"x_min":36,"x_max":1379,"o":"m 292 0 l 36 972 l 236 972 l 406 213 l 406 213 l 606 972 l 813 972 l 1007 213 l 1007 213 l 1178 972 l 1379 972 l 1117 0 l 893 0 l 707 708 l 707 708 l 514 0 l 292 0 m 561 1032 l 544 1156 l 849 1331 l 849 1331 l 871 1188 l 561 1032 z "},"Ŵ":{"ha":1414,"x_min":36,"x_max":1379,"o":"m 292 0 l 36 972 l 236 972 l 406 213 l 406 213 l 606 972 l 813 972 l 1007 213 l 1007 213 l 1178 972 l 1379 972 l 1117 0 l 893 0 l 707 708 l 707 708 l 514 0 l 292 0 m 503 1035 l 503 1169 l 708 1279 l 913 1169 l 913 1035 l 708 1150 l 503 1035 z "},"Ẅ":{"ha":1414,"x_min":36,"x_max":1379,"o":"m 292 0 l 36 972 l 236 972 l 406 213 l 406 213 l 606 972 l 813 972 l 1007 213 l 1007 213 l 1178 972 l 1379 972 l 1117 0 l 893 0 l 707 708 l 707 708 l 514 0 l 292 0 m 579 1065 q 517 1091 543 1065 q 492 1154 492 1117 q 517 1217 492 1192 q 579 1243 543 1243 q 644 1217 618 1243 q 669 1154 669 1192 q 644 1091 669 1117 q 579 1065 618 1065 m 835 1065 q 772 1091 797 1065 q 746 1154 746 1117 q 772 1217 746 1192 q 835 1243 797 1243 q 898 1217 872 1243 q 924 1154 924 1192 q 898 1091 924 1117 q 835 1065 872 1065 z "},"Ẁ":{"ha":1414,"x_min":36,"x_max":1379,"o":"m 292 0 l 36 972 l 236 972 l 406 213 l 406 213 l 606 972 l 813 972 l 1007 213 l 1007 213 l 1178 972 l 1379 972 l 1117 0 l 893 0 l 707 708 l 707 708 l 514 0 l 292 0 m 853 1032 l 544 1188 l 565 1331 l 565 1331 l 871 1156 l 853 1032 z "},"X":{"ha":931,"x_min":42,"x_max":888,"o":"m 46 0 l 353 493 l 42 972 l 258 972 l 472 640 l 472 640 l 668 972 l 879 972 l 575 485 l 888 0 l 671 0 l 456 338 l 456 338 l 258 0 l 46 0 z "},"Y":{"ha":882,"x_min":19,"x_max":863,"o":"m 347 0 l 347 342 l 19 972 l 232 972 l 461 492 l 424 492 l 651 972 l 863 972 l 535 342 l 535 0 l 347 0 z "},"Ý":{"ha":882,"x_min":19,"x_max":863,"o":"m 347 0 l 347 342 l 19 972 l 232 972 l 461 492 l 424 492 l 651 972 l 863 972 l 535 342 l 535 0 l 347 0 m 294 1032 l 278 1156 l 582 1331 l 582 1331 l 604 1188 l 294 1032 z "},"Ŷ":{"ha":882,"x_min":19,"x_max":863,"o":"m 347 0 l 347 342 l 19 972 l 232 972 l 461 492 l 424 492 l 651 972 l 863 972 l 535 342 l 535 0 l 347 0 m 236 1035 l 236 1169 l 442 1279 l 646 1169 l 646 1035 l 442 1150 l 236 1035 z "},"Ÿ":{"ha":882,"x_min":19,"x_max":863,"o":"m 347 0 l 347 342 l 19 972 l 232 972 l 461 492 l 424 492 l 651 972 l 863 972 l 535 342 l 535 0 l 347 0 m 313 1065 q 251 1091 276 1065 q 225 1154 225 1117 q 251 1217 225 1192 q 313 1243 276 1243 q 377 1217 351 1243 q 403 1154 403 1192 q 377 1091 403 1117 q 313 1065 351 1065 m 568 1065 q 505 1091 531 1065 q 479 1154 479 1117 q 505 1217 479 1192 q 568 1243 531 1243 q 631 1217 606 1243 q 657 1154 657 1192 q 631 1091 657 1117 q 568 1065 606 1065 z "},"Ỳ":{"ha":882,"x_min":19,"x_max":863,"o":"m 347 0 l 347 342 l 19 972 l 232 972 l 461 492 l 424 492 l 651 972 l 863 972 l 535 342 l 535 0 l 347 0 m 586 1032 l 278 1188 l 299 1331 l 299 1331 l 604 1156 l 586 1032 z "},"Ỹ":{"ha":882,"x_min":19,"x_max":863,"o":"m 347 0 l 347 342 l 19 972 l 232 972 l 461 492 l 424 492 l 651 972 l 863 972 l 535 342 l 535 0 l 347 0 m 529 1043 q 460 1059 489 1043 q 408 1091 432 1075 q 356 1107 385 1107 q 317 1092 333 1107 q 296 1044 301 1076 l 197 1044 q 256 1180 213 1138 q 364 1222 300 1222 q 432 1206 404 1222 q 484 1174 460 1190 q 538 1158 508 1158 q 577 1174 561 1158 q 597 1221 593 1190 l 696 1221 q 638 1086 682 1129 q 529 1043 594 1043 z "},"Z":{"ha":801,"x_min":68,"x_max":735,"o":"m 68 0 l 68 144 l 517 817 l 71 817 l 71 972 l 732 972 l 732 828 l 282 156 l 735 156 l 735 0 l 68 0 z "},"Ź":{"ha":801,"x_min":68,"x_max":735,"o":"m 68 0 l 68 144 l 517 817 l 71 817 l 71 972 l 732 972 l 732 828 l 282 156 l 735 156 l 735 0 l 68 0 m 254 1032 l 238 1156 l 542 1331 l 542 1331 l 564 1188 l 254 1032 z "},"Ž":{"ha":801,"x_min":68,"x_max":735,"o":"m 68 0 l 68 144 l 517 817 l 71 817 l 71 972 l 732 972 l 732 828 l 282 156 l 735 156 l 735 0 l 68 0 m 401 1035 l 196 1146 l 196 1279 l 401 1160 l 606 1279 l 606 1146 l 401 1035 z "},"Ż":{"ha":801,"x_min":68,"x_max":735,"o":"m 68 0 l 68 144 l 517 817 l 71 817 l 71 972 l 732 972 l 732 828 l 282 156 l 735 156 l 735 0 l 68 0 m 400 1061 q 338 1087 364 1061 q 313 1149 313 1113 q 338 1212 313 1186 q 400 1238 364 1238 q 465 1212 439 1238 q 490 1149 490 1186 q 465 1087 490 1113 q 400 1061 439 1061 z "},"a":{"ha":814,"x_min":72,"x_max":731,"o":"m 328 -17 q 183 12 240 -17 q 99 88 126 40 q 72 194 72 136 q 105 307 72 258 q 203 383 138 356 q 369 411 269 411 l 543 411 q 529 497 543 463 q 486 547 515 531 q 408 564 457 564 q 319 541 356 564 q 274 471 282 518 l 92 471 q 141 601 99 546 q 253 686 183 656 q 410 717 324 717 q 581 683 508 717 q 692 588 653 650 q 731 433 731 525 l 731 0 l 572 0 l 551 107 l 551 107 q 515 57 536 79 q 467 18 494 35 q 404 -8 439 1 q 328 -17 369 -17 m 372 128 q 437 141 408 128 q 486 177 465 154 q 519 230 507 200 q 535 294 531 260 l 535 296 l 392 296 q 322 285 349 296 q 282 256 294 275 q 269 211 269 236 q 282 165 269 183 q 318 138 294 147 q 372 128 342 128 z "},"á":{"ha":814,"x_min":72,"x_max":731,"o":"m 328 -17 q 183 12 240 -17 q 99 88 126 40 q 72 194 72 136 q 105 307 72 258 q 203 383 138 356 q 369 411 269 411 l 543 411 q 529 497 543 463 q 486 547 515 531 q 408 564 457 564 q 319 541 356 564 q 274 471 282 518 l 92 471 q 141 601 99 546 q 253 686 183 656 q 410 717 324 717 q 581 683 508 717 q 692 588 653 650 q 731 433 731 525 l 731 0 l 572 0 l 551 107 l 551 107 q 515 57 536 79 q 467 18 494 35 q 404 -8 439 1 q 328 -17 369 -17 m 372 128 q 437 141 408 128 q 486 177 465 154 q 519 230 507 200 q 535 294 531 260 l 535 296 l 392 296 q 322 285 349 296 q 282 256 294 275 q 269 211 269 236 q 282 165 269 183 q 318 138 294 147 q 372 128 342 128 m 256 760 l 239 883 l 543 1057 l 543 1057 l 565 914 l 256 760 z "},"ă":{"ha":814,"x_min":72,"x_max":731,"o":"m 328 -17 q 183 12 240 -17 q 99 88 126 40 q 72 194 72 136 q 105 307 72 258 q 203 383 138 356 q 369 411 269 411 l 543 411 q 529 497 543 463 q 486 547 515 531 q 408 564 457 564 q 319 541 356 564 q 274 471 282 518 l 92 471 q 141 601 99 546 q 253 686 183 656 q 410 717 324 717 q 581 683 508 717 q 692 588 653 650 q 731 433 731 525 l 731 0 l 572 0 l 551 107 l 551 107 q 515 57 536 79 q 467 18 494 35 q 404 -8 439 1 q 328 -17 369 -17 m 372 128 q 437 141 408 128 q 486 177 465 154 q 519 230 507 200 q 535 294 531 260 l 535 296 l 392 296 q 322 285 349 296 q 282 256 294 275 q 269 211 269 236 q 282 165 269 183 q 318 138 294 147 q 372 128 342 128 m 401 782 q 284 808 333 782 q 208 882 235 833 q 182 997 182 931 l 182 1021 l 281 1021 q 307 947 281 974 q 401 921 333 921 q 495 947 468 921 q 522 1021 522 974 l 621 1021 l 621 996 q 594 881 621 929 q 517 808 567 833 q 401 782 468 782 z "},"â":{"ha":814,"x_min":72,"x_max":731,"o":"m 328 -17 q 183 12 240 -17 q 99 88 126 40 q 72 194 72 136 q 105 307 72 258 q 203 383 138 356 q 369 411 269 411 l 543 411 q 529 497 543 463 q 486 547 515 531 q 408 564 457 564 q 319 541 356 564 q 274 471 282 518 l 92 471 q 141 601 99 546 q 253 686 183 656 q 410 717 324 717 q 581 683 508 717 q 692 588 653 650 q 731 433 731 525 l 731 0 l 572 0 l 551 107 l 551 107 q 515 57 536 79 q 467 18 494 35 q 404 -8 439 1 q 328 -17 369 -17 m 372 128 q 437 141 408 128 q 486 177 465 154 q 519 230 507 200 q 535 294 531 260 l 535 296 l 392 296 q 322 285 349 296 q 282 256 294 275 q 269 211 269 236 q 282 165 269 183 q 318 138 294 147 q 372 128 342 128 m 197 764 l 197 897 l 403 1008 l 607 897 l 607 764 l 403 878 l 197 764 z "},"ä":{"ha":814,"x_min":72,"x_max":731,"o":"m 328 -17 q 183 12 240 -17 q 99 88 126 40 q 72 194 72 136 q 105 307 72 258 q 203 383 138 356 q 369 411 269 411 l 543 411 q 529 497 543 463 q 486 547 515 531 q 408 564 457 564 q 319 541 356 564 q 274 471 282 518 l 92 471 q 141 601 99 546 q 253 686 183 656 q 410 717 324 717 q 581 683 508 717 q 692 588 653 650 q 731 433 731 525 l 731 0 l 572 0 l 551 107 l 551 107 q 515 57 536 79 q 467 18 494 35 q 404 -8 439 1 q 328 -17 369 -17 m 372 128 q 437 141 408 128 q 486 177 465 154 q 519 230 507 200 q 535 294 531 260 l 535 296 l 392 296 q 322 285 349 296 q 282 256 294 275 q 269 211 269 236 q 282 165 269 183 q 318 138 294 147 q 372 128 342 128 m 274 792 q 212 817 238 792 q 186 879 186 842 q 212 942 186 917 q 274 968 238 968 q 338 942 313 968 q 364 879 364 917 q 338 817 364 842 q 274 792 313 792 m 529 792 q 466 817 492 792 q 440 879 440 842 q 466 942 440 917 q 529 968 492 968 q 592 942 567 968 q 618 879 618 917 q 592 817 618 842 q 529 792 567 792 z "},"à":{"ha":814,"x_min":72,"x_max":731,"o":"m 328 -17 q 183 12 240 -17 q 99 88 126 40 q 72 194 72 136 q 105 307 72 258 q 203 383 138 356 q 369 411 269 411 l 543 411 q 529 497 543 463 q 486 547 515 531 q 408 564 457 564 q 319 541 356 564 q 274 471 282 518 l 92 471 q 141 601 99 546 q 253 686 183 656 q 410 717 324 717 q 581 683 508 717 q 692 588 653 650 q 731 433 731 525 l 731 0 l 572 0 l 551 107 l 551 107 q 515 57 536 79 q 467 18 494 35 q 404 -8 439 1 q 328 -17 369 -17 m 372 128 q 437 141 408 128 q 486 177 465 154 q 519 230 507 200 q 535 294 531 260 l 535 296 l 392 296 q 322 285 349 296 q 282 256 294 275 q 269 211 269 236 q 282 165 269 183 q 318 138 294 147 q 372 128 342 128 m 547 760 l 239 914 l 260 1057 l 260 1057 l 565 883 l 547 760 z "},"ā":{"ha":814,"x_min":72,"x_max":731,"o":"m 328 -17 q 183 12 240 -17 q 99 88 126 40 q 72 194 72 136 q 105 307 72 258 q 203 383 138 356 q 369 411 269 411 l 543 411 q 529 497 543 463 q 486 547 515 531 q 408 564 457 564 q 319 541 356 564 q 274 471 282 518 l 92 471 q 141 601 99 546 q 253 686 183 656 q 410 717 324 717 q 581 683 508 717 q 692 588 653 650 q 731 433 731 525 l 731 0 l 572 0 l 551 107 l 551 107 q 515 57 536 79 q 467 18 494 35 q 404 -8 439 1 q 328 -17 369 -17 m 372 128 q 437 141 408 128 q 486 177 465 154 q 519 230 507 200 q 535 294 531 260 l 535 296 l 392 296 q 322 285 349 296 q 282 256 294 275 q 269 211 269 236 q 282 165 269 183 q 318 138 294 147 q 372 128 342 128 m 139 825 l 139 957 l 664 957 l 664 825 l 139 825 z "},"ą":{"ha":814,"x_min":72,"x_max":738,"o":"m 328 -17 q 183 12 240 -17 q 99 88 126 40 q 72 194 72 136 q 105 307 72 258 q 203 383 138 356 q 369 411 269 411 l 543 411 q 529 497 543 463 q 486 547 515 531 q 408 564 457 564 q 319 541 356 564 q 274 471 282 518 l 92 471 q 141 601 99 546 q 253 686 183 656 q 410 717 324 717 q 581 683 508 717 q 692 588 653 650 q 731 433 731 525 l 731 0 l 572 0 l 551 107 l 551 107 q 515 57 536 79 q 467 18 494 35 q 404 -8 439 1 q 328 -17 369 -17 m 372 128 q 437 141 408 128 q 486 177 465 154 q 519 230 507 200 q 535 294 531 260 l 535 296 l 392 296 q 322 285 349 296 q 282 256 294 275 q 269 211 269 236 q 282 165 269 183 q 318 138 294 147 q 372 128 342 128 m 615 -293 q 521 -278 564 -293 q 452 -229 478 -262 q 426 -146 426 -196 q 444 -74 426 -108 q 506 -6 463 -39 q 626 60 550 28 l 689 88 l 731 0 l 660 -35 q 589 -82 610 -60 q 568 -129 568 -104 q 587 -169 568 -154 q 639 -185 606 -185 q 685 -179 660 -185 q 738 -164 711 -174 l 738 -274 q 680 -288 711 -283 q 615 -293 649 -293 z "},"å":{"ha":814,"x_min":72,"x_max":731,"o":"m 328 -17 q 183 12 240 -17 q 99 88 126 40 q 72 194 72 136 q 105 307 72 258 q 203 383 138 356 q 369 411 269 411 l 543 411 q 529 497 543 463 q 486 547 515 531 q 408 564 457 564 q 319 541 356 564 q 274 471 282 518 l 92 471 q 141 601 99 546 q 253 686 183 656 q 410 717 324 717 q 581 683 508 717 q 692 588 653 650 q 731 433 731 525 l 731 0 l 572 0 l 551 107 l 551 107 q 515 57 536 79 q 467 18 494 35 q 404 -8 439 1 q 328 -17 369 -17 m 372 128 q 437 141 408 128 q 486 177 465 154 q 519 230 507 200 q 535 294 531 260 l 535 296 l 392 296 q 322 285 349 296 q 282 256 294 275 q 269 211 269 236 q 282 165 269 183 q 318 138 294 147 q 372 128 342 128 m 401 792 q 289 833 336 792 q 242 949 242 875 q 289 1065 242 1022 q 401 1107 336 1107 q 515 1065 468 1107 q 563 949 563 1022 q 515 833 563 875 q 401 792 468 792 m 401 874 q 453 894 432 874 q 474 949 474 915 q 453 1003 474 983 q 401 1022 432 1022 q 351 1003 372 1022 q 331 949 331 983 q 351 894 331 915 q 401 874 372 874 z "},"ã":{"ha":814,"x_min":72,"x_max":731,"o":"m 328 -17 q 183 12 240 -17 q 99 88 126 40 q 72 194 72 136 q 105 307 72 258 q 203 383 138 356 q 369 411 269 411 l 543 411 q 529 497 543 463 q 486 547 515 531 q 408 564 457 564 q 319 541 356 564 q 274 471 282 518 l 92 471 q 141 601 99 546 q 253 686 183 656 q 410 717 324 717 q 581 683 508 717 q 692 588 653 650 q 731 433 731 525 l 731 0 l 572 0 l 551 107 l 551 107 q 515 57 536 79 q 467 18 494 35 q 404 -8 439 1 q 328 -17 369 -17 m 372 128 q 437 141 408 128 q 486 177 465 154 q 519 230 507 200 q 535 294 531 260 l 535 296 l 392 296 q 322 285 349 296 q 282 256 294 275 q 269 211 269 236 q 282 165 269 183 q 318 138 294 147 q 372 128 342 128 m 483 792 q 415 807 443 792 q 363 838 386 822 q 310 854 339 854 q 272 839 288 854 q 250 792 256 824 l 151 792 q 210 928 167 885 q 318 971 254 971 q 386 955 358 971 q 438 923 414 939 q 492 907 463 907 q 531 922 515 907 q 551 969 547 938 l 650 969 q 592 834 636 876 q 483 792 549 792 z "},"æ":{"ha":1311,"x_min":72,"x_max":1250,"o":"m 342 -17 q 192 12 253 -17 q 102 89 132 40 q 72 196 72 138 q 103 310 72 260 q 201 388 135 360 q 365 415 267 415 l 547 415 q 533 498 547 465 q 490 547 519 531 q 415 564 461 564 q 330 541 367 564 q 285 474 293 518 l 103 474 q 151 601 110 547 q 262 686 193 656 q 415 717 331 717 q 560 692 497 717 q 664 621 624 667 q 771 691 708 665 q 906 717 833 717 q 1085 671 1008 717 q 1206 547 1163 625 q 1250 368 1250 469 q 1249 338 1250 354 q 1246 303 1249 321 l 738 303 q 764 213 742 250 q 823 156 786 176 q 903 136 860 136 q 994 163 960 136 q 1047 229 1029 189 l 1235 229 q 1171 105 1217 161 q 1058 16 1125 49 q 906 -17 990 -17 q 742 20 815 -17 q 621 121 668 57 q 552 49 593 79 q 459 1 511 18 q 342 -17 407 -17 m 371 128 q 451 150 415 128 q 509 209 486 172 q 539 292 532 246 l 539 300 l 390 300 q 322 290 349 300 q 282 260 294 279 q 269 215 269 240 q 282 169 269 188 q 317 139 294 150 q 371 128 340 128 m 742 417 l 1060 417 q 1013 525 1056 486 q 907 564 969 564 q 832 547 867 564 q 774 499 797 531 q 742 417 750 467 z "},"ǽ":{"ha":1311,"x_min":72,"x_max":1250,"o":"m 342 -17 q 192 12 253 -17 q 102 89 132 40 q 72 196 72 138 q 103 310 72 260 q 201 388 135 360 q 365 415 267 415 l 547 415 q 533 498 547 465 q 490 547 519 531 q 415 564 461 564 q 330 541 367 564 q 285 474 293 518 l 103 474 q 151 601 110 547 q 262 686 193 656 q 415 717 331 717 q 560 692 497 717 q 664 621 624 667 q 771 691 708 665 q 906 717 833 717 q 1085 671 1008 717 q 1206 547 1163 625 q 1250 368 1250 469 q 1249 338 1250 354 q 1246 303 1249 321 l 738 303 q 764 213 742 250 q 823 156 786 176 q 903 136 860 136 q 994 163 960 136 q 1047 229 1029 189 l 1235 229 q 1171 105 1217 161 q 1058 16 1125 49 q 906 -17 990 -17 q 742 20 815 -17 q 621 121 668 57 q 552 49 593 79 q 459 1 511 18 q 342 -17 407 -17 m 371 128 q 451 150 415 128 q 509 209 486 172 q 539 292 532 246 l 539 300 l 390 300 q 322 290 349 300 q 282 260 294 279 q 269 215 269 240 q 282 169 269 188 q 317 139 294 150 q 371 128 340 128 m 742 417 l 1060 417 q 1013 525 1056 486 q 907 564 969 564 q 832 547 867 564 q 774 499 797 531 q 742 417 750 467 m 510 760 l 493 883 l 797 1057 l 797 1057 l 819 914 l 510 760 z "},"b":{"ha":910,"x_min":92,"x_max":840,"o":"m 506 -17 q 409 -3 451 -17 q 334 35 367 11 q 279 90 301 60 l 279 90 l 258 0 l 92 0 l 92 1000 l 279 1000 l 279 603 q 367 684 313 651 q 504 717 422 717 q 677 669 601 717 q 797 538 753 621 q 840 349 840 456 q 797 161 840 244 q 678 31 753 78 q 506 -17 603 -17 m 461 147 q 559 173 517 147 q 625 244 601 199 q 649 349 649 289 q 625 455 649 408 q 559 527 601 501 q 461 553 517 553 q 365 527 407 553 q 298 456 322 501 q 274 350 274 410 q 298 244 274 290 q 365 172 322 197 q 461 147 407 147 z "},"c":{"ha":843,"x_min":69,"x_max":774,"o":"m 431 -17 q 243 31 325 -17 q 115 160 161 78 q 69 347 69 242 q 115 538 69 456 q 243 669 161 621 q 431 717 325 717 q 657 646 565 717 q 774 451 749 575 l 575 451 q 523 528 563 500 q 429 556 483 556 q 342 531 381 556 q 283 460 304 507 q 261 350 261 414 q 274 263 261 301 q 308 198 286 225 q 362 157 331 171 q 429 143 393 143 q 495 156 465 143 q 546 191 525 168 q 575 247 567 214 l 774 247 q 656 55 749 126 q 431 -17 564 -17 z "},"ć":{"ha":843,"x_min":69,"x_max":774,"o":"m 431 -17 q 243 31 325 -17 q 115 160 161 78 q 69 347 69 242 q 115 538 69 456 q 243 669 161 621 q 431 717 325 717 q 657 646 565 717 q 774 451 749 575 l 575 451 q 523 528 563 500 q 429 556 483 556 q 342 531 381 556 q 283 460 304 507 q 261 350 261 414 q 274 263 261 301 q 308 198 286 225 q 362 157 331 171 q 429 143 393 143 q 495 156 465 143 q 546 191 525 168 q 575 247 567 214 l 774 247 q 656 55 749 126 q 431 -17 564 -17 m 275 760 l 258 883 l 563 1057 l 563 1057 l 585 914 l 275 760 z "},"č":{"ha":843,"x_min":69,"x_max":774,"o":"m 431 -17 q 243 31 325 -17 q 115 160 161 78 q 69 347 69 242 q 115 538 69 456 q 243 669 161 621 q 431 717 325 717 q 657 646 565 717 q 774 451 749 575 l 575 451 q 523 528 563 500 q 429 556 483 556 q 342 531 381 556 q 283 460 304 507 q 261 350 261 414 q 274 263 261 301 q 308 198 286 225 q 362 157 331 171 q 429 143 393 143 q 495 156 465 143 q 546 191 525 168 q 575 247 567 214 l 774 247 q 656 55 749 126 q 431 -17 564 -17 m 422 782 l 217 893 l 217 1026 l 422 907 l 626 1026 l 626 893 l 422 782 z "},"ç":{"ha":843,"x_min":69,"x_max":774,"o":"m 431 -17 q 243 31 325 -17 q 115 160 161 78 q 69 347 69 242 q 115 538 69 456 q 243 669 161 621 q 431 717 325 717 q 657 646 565 717 q 774 451 749 575 l 575 451 q 523 528 563 500 q 429 556 483 556 q 342 531 381 556 q 283 460 304 507 q 261 350 261 414 q 274 263 261 301 q 308 198 286 225 q 362 157 331 171 q 429 143 393 143 q 495 156 465 143 q 546 191 525 168 q 575 247 567 214 l 774 247 q 656 55 749 126 q 431 -17 564 -17 m 299 -371 l 299 -264 l 458 -264 q 511 -252 493 -264 q 529 -215 529 -240 q 511 -179 529 -190 q 458 -168 493 -168 l 372 -168 l 372 6 l 489 6 l 489 -71 q 576 -85 535 -69 q 642 -133 617 -100 q 668 -218 668 -165 q 642 -303 668 -269 q 576 -354 617 -337 q 486 -371 535 -371 l 299 -371 z "},"ċ":{"ha":843,"x_min":69,"x_max":774,"o":"m 431 -17 q 243 31 325 -17 q 115 160 161 78 q 69 347 69 242 q 115 538 69 456 q 243 669 161 621 q 431 717 325 717 q 657 646 565 717 q 774 451 749 575 l 575 451 q 523 528 563 500 q 429 556 483 556 q 342 531 381 556 q 283 460 304 507 q 261 350 261 414 q 274 263 261 301 q 308 198 286 225 q 362 157 331 171 q 429 143 393 143 q 495 156 465 143 q 546 191 525 168 q 575 247 567 214 l 774 247 q 656 55 749 126 q 431 -17 564 -17 m 421 793 q 359 819 385 793 q 333 881 333 844 q 359 944 333 918 q 421 969 385 969 q 485 944 460 969 q 511 881 511 918 q 485 819 511 844 q 421 793 460 793 z "},"d":{"ha":910,"x_min":69,"x_max":818,"o":"m 403 -17 q 231 31 307 -17 q 113 161 156 78 q 69 349 69 244 q 113 538 69 456 q 234 669 157 621 q 407 717 311 717 q 539 689 482 717 q 631 610 596 661 l 631 1000 l 818 1000 l 818 0 l 651 0 l 631 96 l 631 96 q 578 40 610 67 q 504 -1 547 14 q 403 -17 461 -17 m 447 147 q 545 173 503 147 q 611 244 588 199 q 635 350 635 290 q 611 456 635 410 q 545 527 588 501 q 447 553 503 553 q 351 527 394 553 q 284 456 308 501 q 260 351 260 410 q 284 244 260 290 q 351 173 308 199 q 447 147 393 147 z "},"ď":{"ha":1054,"x_min":69,"x_max":1040,"o":"m 403 -17 q 231 31 307 -17 q 113 161 156 78 q 69 349 69 244 q 113 538 69 456 q 234 669 157 621 q 407 717 311 717 q 539 689 482 717 q 631 610 596 661 l 631 1000 l 818 1000 l 818 0 l 651 0 l 631 96 l 631 96 q 578 40 610 67 q 504 -1 547 14 q 403 -17 461 -17 m 447 147 q 545 173 503 147 q 611 244 588 199 q 635 350 635 290 q 611 456 635 410 q 545 527 588 501 q 447 553 503 553 q 351 527 394 553 q 284 456 308 501 q 260 351 260 410 q 284 244 260 290 q 351 173 308 199 q 447 147 393 147 m 878 724 l 878 800 q 927 812 911 800 q 943 850 943 824 l 943 876 l 878 876 l 878 1024 l 1024 1024 q 1038 952 1033 983 q 1042 888 1042 921 q 1000 766 1042 808 q 878 724 958 724 z "},"đ":{"ha":951,"x_min":69,"x_max":918,"o":"m 439 785 l 439 897 l 918 897 l 918 785 l 439 785 m 403 -17 q 231 31 307 -17 q 113 161 156 78 q 69 349 69 244 q 113 538 69 456 q 234 669 157 621 q 407 717 311 717 q 539 689 482 717 q 631 610 596 661 l 631 1000 l 818 1000 l 818 0 l 651 0 l 631 96 l 631 96 q 578 40 610 67 q 504 -1 547 14 q 403 -17 461 -17 m 447 147 q 545 173 503 147 q 611 244 588 199 q 635 350 635 290 q 611 456 635 410 q 545 527 588 501 q 447 553 503 553 q 351 527 394 553 q 284 456 308 501 q 260 351 260 410 q 284 244 260 290 q 351 173 308 199 q 447 147 393 147 z "},"ð":{"ha":889,"x_min":69,"x_max":819,"o":"m 440 -17 q 248 31 332 -17 q 117 159 164 78 q 69 343 69 240 q 116 528 69 447 q 243 654 163 608 q 429 700 324 700 q 528 686 482 700 q 614 642 575 672 q 571 731 596 686 q 515 819 546 776 q 449 899 485 861 q 374 972 414 938 l 550 972 q 672 840 621 911 q 756 692 724 768 q 804 542 789 617 q 819 399 819 468 q 769 177 819 271 q 634 33 719 83 q 440 -17 549 -17 m 444 143 q 536 167 494 143 q 603 236 578 192 q 628 343 628 281 q 603 449 628 404 q 536 517 578 493 q 444 542 494 542 q 353 517 394 542 q 286 449 311 493 q 261 343 261 404 q 286 236 261 281 q 353 167 311 192 q 444 143 394 143 m 354 743 l 354 854 l 761 985 l 761 874 l 354 743 z "},"e":{"ha":836,"x_min":69,"x_max":774,"o":"m 428 -17 q 241 28 322 -17 q 115 155 160 74 q 69 343 69 236 q 114 537 69 453 q 240 669 158 621 q 428 717 321 717 q 610 671 532 717 q 731 547 688 625 q 774 371 774 469 q 774 340 774 357 q 771 304 774 322 l 203 304 l 203 418 l 585 418 q 537 525 581 486 q 428 564 493 564 q 340 542 381 564 q 277 476 300 521 q 254 364 254 432 l 254 324 q 276 224 254 267 q 336 159 297 182 q 426 136 375 136 q 512 158 478 136 q 563 215 546 181 l 754 215 q 689 97 735 150 q 576 14 643 44 q 428 -17 510 -17 z "},"é":{"ha":836,"x_min":69,"x_max":774,"o":"m 428 -17 q 241 28 322 -17 q 115 155 160 74 q 69 343 69 236 q 114 537 69 453 q 240 669 158 621 q 428 717 321 717 q 610 671 532 717 q 731 547 688 625 q 774 371 774 469 q 774 340 774 357 q 771 304 774 322 l 203 304 l 203 418 l 585 418 q 537 525 581 486 q 428 564 493 564 q 340 542 381 564 q 277 476 300 521 q 254 364 254 432 l 254 324 q 276 224 254 267 q 336 159 297 182 q 426 136 375 136 q 512 158 478 136 q 563 215 546 181 l 754 215 q 689 97 735 150 q 576 14 643 44 q 428 -17 510 -17 m 278 760 l 261 883 l 565 1057 l 565 1057 l 588 914 l 278 760 z "},"ĕ":{"ha":836,"x_min":69,"x_max":774,"o":"m 428 -17 q 241 28 322 -17 q 115 155 160 74 q 69 343 69 236 q 114 537 69 453 q 240 669 158 621 q 428 717 321 717 q 610 671 532 717 q 731 547 688 625 q 774 371 774 469 q 774 340 774 357 q 771 304 774 322 l 203 304 l 203 418 l 585 418 q 537 525 581 486 q 428 564 493 564 q 340 542 381 564 q 277 476 300 521 q 254 364 254 432 l 254 324 q 276 224 254 267 q 336 159 297 182 q 426 136 375 136 q 512 158 478 136 q 563 215 546 181 l 754 215 q 689 97 735 150 q 576 14 643 44 q 428 -17 510 -17 m 425 782 q 308 808 357 782 q 232 882 258 833 q 206 997 206 931 l 206 1021 l 304 1021 q 331 947 304 974 q 425 921 357 921 q 519 947 492 921 q 546 1021 546 974 l 644 1021 l 644 996 q 617 881 644 929 q 541 808 590 833 q 425 782 492 782 z "},"ě":{"ha":836,"x_min":69,"x_max":774,"o":"m 428 -17 q 241 28 322 -17 q 115 155 160 74 q 69 343 69 236 q 114 537 69 453 q 240 669 158 621 q 428 717 321 717 q 610 671 532 717 q 731 547 688 625 q 774 371 774 469 q 774 340 774 357 q 771 304 774 322 l 203 304 l 203 418 l 585 418 q 537 525 581 486 q 428 564 493 564 q 340 542 381 564 q 277 476 300 521 q 254 364 254 432 l 254 324 q 276 224 254 267 q 336 159 297 182 q 426 136 375 136 q 512 158 478 136 q 563 215 546 181 l 754 215 q 689 97 735 150 q 576 14 643 44 q 428 -17 510 -17 m 425 782 l 219 893 l 219 1026 l 425 907 l 629 1026 l 629 893 l 425 782 z "},"ê":{"ha":836,"x_min":69,"x_max":774,"o":"m 428 -17 q 241 28 322 -17 q 115 155 160 74 q 69 343 69 236 q 114 537 69 453 q 240 669 158 621 q 428 717 321 717 q 610 671 532 717 q 731 547 688 625 q 774 371 774 469 q 774 340 774 357 q 771 304 774 322 l 203 304 l 203 418 l 585 418 q 537 525 581 486 q 428 564 493 564 q 340 542 381 564 q 277 476 300 521 q 254 364 254 432 l 254 324 q 276 224 254 267 q 336 159 297 182 q 426 136 375 136 q 512 158 478 136 q 563 215 546 181 l 754 215 q 689 97 735 150 q 576 14 643 44 q 428 -17 510 -17 m 219 764 l 219 897 l 425 1008 l 629 897 l 629 764 l 425 878 l 219 764 z "},"ë":{"ha":836,"x_min":69,"x_max":774,"o":"m 428 -17 q 241 28 322 -17 q 115 155 160 74 q 69 343 69 236 q 114 537 69 453 q 240 669 158 621 q 428 717 321 717 q 610 671 532 717 q 731 547 688 625 q 774 371 774 469 q 774 340 774 357 q 771 304 774 322 l 203 304 l 203 418 l 585 418 q 537 525 581 486 q 428 564 493 564 q 340 542 381 564 q 277 476 300 521 q 254 364 254 432 l 254 324 q 276 224 254 267 q 336 159 297 182 q 426 136 375 136 q 512 158 478 136 q 563 215 546 181 l 754 215 q 689 97 735 150 q 576 14 643 44 q 428 -17 510 -17 m 296 792 q 234 817 260 792 q 208 879 208 842 q 234 942 208 917 q 296 968 260 968 q 360 942 335 968 q 386 879 386 917 q 360 817 386 842 q 296 792 335 792 m 551 792 q 488 817 514 792 q 463 879 463 842 q 488 942 463 917 q 551 968 514 968 q 615 942 589 968 q 640 879 640 917 q 615 817 640 842 q 551 792 589 792 z "},"ė":{"ha":836,"x_min":69,"x_max":774,"o":"m 428 -17 q 241 28 322 -17 q 115 155 160 74 q 69 343 69 236 q 114 537 69 453 q 240 669 158 621 q 428 717 321 717 q 610 671 532 717 q 731 547 688 625 q 774 371 774 469 q 774 340 774 357 q 771 304 774 322 l 203 304 l 203 418 l 585 418 q 537 525 581 486 q 428 564 493 564 q 340 542 381 564 q 277 476 300 521 q 254 364 254 432 l 254 324 q 276 224 254 267 q 336 159 297 182 q 426 136 375 136 q 512 158 478 136 q 563 215 546 181 l 754 215 q 689 97 735 150 q 576 14 643 44 q 428 -17 510 -17 m 422 793 q 360 819 386 793 q 335 881 335 844 q 360 944 335 918 q 422 969 386 969 q 487 944 461 969 q 513 881 513 918 q 487 819 513 844 q 422 793 461 793 z "},"è":{"ha":836,"x_min":69,"x_max":774,"o":"m 428 -17 q 241 28 322 -17 q 115 155 160 74 q 69 343 69 236 q 114 537 69 453 q 240 669 158 621 q 428 717 321 717 q 610 671 532 717 q 731 547 688 625 q 774 371 774 469 q 774 340 774 357 q 771 304 774 322 l 203 304 l 203 418 l 585 418 q 537 525 581 486 q 428 564 493 564 q 340 542 381 564 q 277 476 300 521 q 254 364 254 432 l 254 324 q 276 224 254 267 q 336 159 297 182 q 426 136 375 136 q 512 158 478 136 q 563 215 546 181 l 754 215 q 689 97 735 150 q 576 14 643 44 q 428 -17 510 -17 m 569 760 l 261 914 l 282 1057 l 282 1057 l 588 883 l 569 760 z "},"ē":{"ha":836,"x_min":69,"x_max":774,"o":"m 428 -17 q 241 28 322 -17 q 115 155 160 74 q 69 343 69 236 q 114 537 69 453 q 240 669 158 621 q 428 717 321 717 q 610 671 532 717 q 731 547 688 625 q 774 371 774 469 q 774 340 774 357 q 771 304 774 322 l 203 304 l 203 418 l 585 418 q 537 525 581 486 q 428 564 493 564 q 340 542 381 564 q 277 476 300 521 q 254 364 254 432 l 254 324 q 276 224 254 267 q 336 159 297 182 q 426 136 375 136 q 512 158 478 136 q 563 215 546 181 l 754 215 q 689 97 735 150 q 576 14 643 44 q 428 -17 510 -17 m 161 825 l 161 957 l 686 957 l 686 825 l 161 825 z "},"ę":{"ha":836,"x_min":69,"x_max":774,"o":"m 428 -17 q 241 28 322 -17 q 115 155 160 74 q 69 343 69 236 q 114 537 69 453 q 240 669 158 621 q 428 717 321 717 q 610 671 532 717 q 731 547 688 625 q 774 371 774 469 q 774 340 774 357 q 771 304 774 322 l 203 304 l 203 418 l 585 418 q 537 525 581 486 q 428 564 493 564 q 340 542 381 564 q 277 476 300 521 q 254 364 254 432 l 254 324 q 276 224 254 267 q 336 159 297 182 q 426 136 375 136 q 512 158 478 136 q 563 215 546 181 l 754 215 q 689 97 735 150 q 576 14 643 44 q 428 -17 510 -17 m 454 -278 q 360 -262 403 -278 q 291 -214 317 -247 q 265 -131 265 -181 q 283 -58 265 -93 q 345 10 301 -24 q 465 75 389 43 l 528 103 l 569 15 l 499 -19 q 428 -67 449 -44 q 407 -114 407 -89 q 426 -154 407 -139 q 478 -169 444 -169 q 524 -164 499 -169 q 576 -149 550 -158 l 576 -258 q 519 -273 550 -268 q 454 -278 488 -278 z "},"ẽ":{"ha":836,"x_min":69,"x_max":774,"o":"m 428 -17 q 241 28 322 -17 q 115 155 160 74 q 69 343 69 236 q 114 537 69 453 q 240 669 158 621 q 428 717 321 717 q 610 671 532 717 q 731 547 688 625 q 774 371 774 469 q 774 340 774 357 q 771 304 774 322 l 203 304 l 203 418 l 585 418 q 537 525 581 486 q 428 564 493 564 q 340 542 381 564 q 277 476 300 521 q 254 364 254 432 l 254 324 q 276 224 254 267 q 336 159 297 182 q 426 136 375 136 q 512 158 478 136 q 563 215 546 181 l 754 215 q 689 97 735 150 q 576 14 643 44 q 428 -17 510 -17 m 507 792 q 438 807 467 792 q 386 838 410 822 q 333 854 363 854 q 295 839 311 854 q 274 792 279 824 l 175 792 q 234 928 190 885 q 342 971 278 971 q 410 955 382 971 q 462 923 438 939 q 515 907 486 907 q 555 922 539 907 q 575 969 571 938 l 674 969 q 616 834 660 876 q 507 792 572 792 z "},"ə":{"ha":836,"x_min":63,"x_max":767,"o":"m 408 717 q 595 671 514 717 q 722 544 676 625 q 767 356 767 464 q 722 163 767 247 q 597 31 676 79 q 408 -17 517 -17 q 227 28 306 -17 q 106 152 149 74 q 63 329 63 231 q 63 361 63 344 q 65 396 64 378 l 633 396 l 633 281 l 251 281 q 299 174 256 214 q 408 135 343 135 q 497 157 457 135 q 559 224 536 179 q 582 335 582 268 l 582 375 q 560 475 582 433 q 500 540 539 517 q 410 563 461 563 q 324 541 358 563 q 272 483 290 519 l 82 483 q 148 602 103 550 q 260 685 193 654 q 408 717 326 717 z "},"f":{"ha":515,"x_min":28,"x_max":463,"o":"m 124 0 l 124 763 q 153 901 124 850 q 237 976 182 953 q 365 1000 292 1000 l 451 1000 l 451 840 l 393 840 q 330 823 349 840 q 311 763 311 806 l 311 0 l 124 0 m 28 543 l 28 700 l 463 700 l 463 543 l 28 543 z "},"g":{"ha":828,"x_min":61,"x_max":767,"o":"m 393 -322 q 218 -298 293 -322 q 102 -224 143 -274 q 61 -103 61 -175 q 86 -11 61 -54 q 159 67 111 32 q 279 128 207 103 l 350 36 q 258 -16 286 15 q 229 -83 229 -47 q 251 -137 229 -115 q 309 -170 272 -160 q 392 -181 346 -181 q 469 -169 436 -181 q 520 -137 501 -158 q 539 -86 539 -115 q 513 -25 539 -49 q 407 4 486 -1 q 281 20 336 10 q 185 45 226 31 q 115 78 143 60 q 68 114 86 96 l 68 146 l 217 306 l 351 263 l 176 90 l 229 182 q 259 166 244 174 q 296 152 274 158 q 354 140 318 146 q 446 131 390 135 q 597 96 538 122 q 683 26 656 69 q 711 -82 711 -18 q 677 -199 711 -144 q 572 -288 643 -254 q 393 -322 501 -322 m 393 207 q 242 241 306 207 q 145 333 179 275 q 111 461 111 390 q 145 590 111 532 q 242 682 179 647 q 393 717 306 717 q 545 682 482 717 q 642 590 608 647 q 675 461 675 532 q 642 333 675 390 q 545 241 608 275 q 393 207 482 207 m 393 350 q 481 378 447 350 q 514 460 514 406 q 481 542 514 514 q 393 571 447 571 q 306 542 340 571 q 272 460 272 514 q 306 378 272 406 q 393 350 340 350 m 510 567 l 479 700 l 767 700 l 767 589 l 510 567 z "},"ğ":{"ha":828,"x_min":61,"x_max":767,"o":"m 393 -322 q 218 -298 293 -322 q 102 -224 143 -274 q 61 -103 61 -175 q 86 -11 61 -54 q 159 67 111 32 q 279 128 207 103 l 350 36 q 258 -16 286 15 q 229 -83 229 -47 q 251 -137 229 -115 q 309 -170 272 -160 q 392 -181 346 -181 q 469 -169 436 -181 q 520 -137 501 -158 q 539 -86 539 -115 q 513 -25 539 -49 q 407 4 486 -1 q 281 20 336 10 q 185 45 226 31 q 115 78 143 60 q 68 114 86 96 l 68 146 l 217 306 l 351 263 l 176 90 l 229 182 q 259 166 244 174 q 296 152 274 158 q 354 140 318 146 q 446 131 390 135 q 597 96 538 122 q 683 26 656 69 q 711 -82 711 -18 q 677 -199 711 -144 q 572 -288 643 -254 q 393 -322 501 -322 m 393 207 q 242 241 306 207 q 145 333 179 275 q 111 461 111 390 q 145 590 111 532 q 242 682 179 647 q 393 717 306 717 q 545 682 482 717 q 642 590 608 647 q 675 461 675 532 q 642 333 675 390 q 545 241 608 275 q 393 207 482 207 m 393 350 q 481 378 447 350 q 514 460 514 406 q 481 542 514 514 q 393 571 447 571 q 306 542 340 571 q 272 460 272 514 q 306 378 272 406 q 393 350 340 350 m 510 567 l 479 700 l 767 700 l 767 589 l 510 567 m 394 782 q 277 808 326 782 q 201 882 228 833 q 175 997 175 931 l 175 1021 l 274 1021 q 300 947 274 974 q 394 921 326 921 q 488 947 461 921 q 515 1021 515 974 l 614 1021 l 614 996 q 587 881 614 929 q 510 808 560 833 q 394 782 461 782 z "},"ģ":{"ha":828,"x_min":61,"x_max":767,"o":"m 393 -322 q 218 -298 293 -322 q 102 -224 143 -274 q 61 -103 61 -175 q 86 -11 61 -54 q 159 67 111 32 q 279 128 207 103 l 350 36 q 258 -16 286 15 q 229 -83 229 -47 q 251 -137 229 -115 q 309 -170 272 -160 q 392 -181 346 -181 q 469 -169 436 -181 q 520 -137 501 -158 q 539 -86 539 -115 q 513 -25 539 -49 q 407 4 486 -1 q 281 20 336 10 q 185 45 226 31 q 115 78 143 60 q 68 114 86 96 l 68 146 l 217 306 l 351 263 l 176 90 l 229 182 q 259 166 244 174 q 296 152 274 158 q 354 140 318 146 q 446 131 390 135 q 597 96 538 122 q 683 26 656 69 q 711 -82 711 -18 q 677 -199 711 -144 q 572 -288 643 -254 q 393 -322 501 -322 m 393 207 q 242 241 306 207 q 145 333 179 275 q 111 461 111 390 q 145 590 111 532 q 242 682 179 647 q 393 717 306 717 q 545 682 482 717 q 642 590 608 647 q 675 461 675 532 q 642 333 675 390 q 545 241 608 275 q 393 207 482 207 m 393 350 q 481 378 447 350 q 514 460 514 406 q 481 542 514 514 q 393 571 447 571 q 306 542 340 571 q 272 460 272 514 q 306 378 272 406 q 393 350 340 350 m 510 567 l 479 700 l 767 700 l 767 589 l 510 567 m 476 1085 l 476 1010 q 428 997 444 1010 q 411 958 411 985 l 411 933 l 476 933 l 476 786 l 331 786 q 317 858 322 826 q 313 922 313 889 q 354 1042 313 1000 q 476 1085 396 1085 z "},"ġ":{"ha":828,"x_min":61,"x_max":767,"o":"m 393 -322 q 218 -298 293 -322 q 102 -224 143 -274 q 61 -103 61 -175 q 86 -11 61 -54 q 159 67 111 32 q 279 128 207 103 l 350 36 q 258 -16 286 15 q 229 -83 229 -47 q 251 -137 229 -115 q 309 -170 272 -160 q 392 -181 346 -181 q 469 -169 436 -181 q 520 -137 501 -158 q 539 -86 539 -115 q 513 -25 539 -49 q 407 4 486 -1 q 281 20 336 10 q 185 45 226 31 q 115 78 143 60 q 68 114 86 96 l 68 146 l 217 306 l 351 263 l 176 90 l 229 182 q 259 166 244 174 q 296 152 274 158 q 354 140 318 146 q 446 131 390 135 q 597 96 538 122 q 683 26 656 69 q 711 -82 711 -18 q 677 -199 711 -144 q 572 -288 643 -254 q 393 -322 501 -322 m 393 207 q 242 241 306 207 q 145 333 179 275 q 111 461 111 390 q 145 590 111 532 q 242 682 179 647 q 393 717 306 717 q 545 682 482 717 q 642 590 608 647 q 675 461 675 532 q 642 333 675 390 q 545 241 608 275 q 393 207 482 207 m 393 350 q 481 378 447 350 q 514 460 514 406 q 481 542 514 514 q 393 571 447 571 q 306 542 340 571 q 272 460 272 514 q 306 378 272 406 q 393 350 340 350 m 510 567 l 479 700 l 767 700 l 767 589 l 510 567 m 392 793 q 330 819 356 793 q 304 881 304 844 q 330 944 304 918 q 392 969 356 969 q 456 944 431 969 q 482 881 482 918 q 456 819 482 844 q 392 793 431 793 z "},"h":{"ha":858,"x_min":92,"x_max":774,"o":"m 92 0 l 92 1000 l 279 1000 l 279 596 l 279 596 q 372 683 314 650 q 506 717 429 717 q 653 680 593 717 q 743 574 713 643 q 774 401 774 504 l 774 0 l 588 0 l 588 385 q 553 513 588 468 q 443 558 518 558 q 360 536 397 558 q 301 472 322 514 q 279 371 279 429 l 279 0 l 92 0 z "},"ħ":{"ha":900,"x_min":33,"x_max":815,"o":"m 33 785 l 33 897 l 513 897 l 513 785 l 33 785 m 133 0 l 133 1000 l 321 1000 l 321 596 l 321 596 q 413 683 354 650 q 547 717 471 717 q 694 680 635 717 q 785 574 754 643 q 815 401 815 504 l 815 0 l 629 0 l 629 385 q 594 513 629 468 q 485 558 560 558 q 401 536 439 558 q 342 472 364 514 q 321 371 321 429 l 321 0 l 133 0 z "},"i":{"ha":381,"x_min":75,"x_max":307,"o":"m 96 0 l 96 700 l 283 700 l 283 0 l 96 0 m 190 796 q 108 826 140 796 q 75 901 75 856 q 108 977 75 947 q 190 1007 140 1007 q 274 977 242 1007 q 307 901 307 947 q 274 826 307 856 q 190 796 242 796 z "},"ı":{"ha":371,"x_min":92,"x_max":279,"o":"m 92 0 l 92 700 l 279 700 l 279 0 l 92 0 z "},"í":{"ha":371,"x_min":22,"x_max":349,"o":"m 92 0 l 92 700 l 279 700 l 279 0 l 92 0 m 39 760 l 22 883 l 326 1057 l 326 1057 l 349 914 l 39 760 z "},"ĭ":{"ha":371,"x_min":-33,"x_max":406,"o":"m 92 0 l 92 700 l 279 700 l 279 0 l 92 0 m 186 782 q 69 808 118 782 q -7 882 19 833 q -33 997 -33 931 l -33 1021 l 65 1021 q 92 947 65 974 q 186 921 118 921 q 280 947 253 921 q 307 1021 307 974 l 406 1021 l 406 996 q 378 881 406 929 q 302 808 351 833 q 186 782 253 782 z "},"î":{"ha":371,"x_min":-19,"x_max":390,"o":"m 92 0 l 92 700 l 279 700 l 279 0 l 92 0 m -19 764 l -19 897 l 186 1008 l 390 897 l 390 764 l 186 878 l -19 764 z "},"ï":{"ha":371,"x_min":-31,"x_max":401,"o":"m 92 0 l 92 700 l 279 700 l 279 0 l 92 0 m 57 792 q -5 817 21 792 q -31 879 -31 842 q -5 942 -31 917 q 57 968 21 968 q 122 942 96 968 q 147 879 147 917 q 122 817 147 842 q 57 792 96 792 m 313 792 q 249 817 275 792 q 224 879 224 842 q 249 942 224 917 q 313 968 275 968 q 376 942 350 968 q 401 879 401 917 q 376 817 401 842 q 313 792 350 792 z "},"ì":{"ha":371,"x_min":22,"x_max":349,"o":"m 92 0 l 92 700 l 279 700 l 279 0 l 92 0 m 331 760 l 22 914 l 43 1057 l 43 1057 l 349 883 l 331 760 z "},"ī":{"ha":371,"x_min":-76,"x_max":449,"o":"m 92 0 l 92 700 l 279 700 l 279 0 l 92 0 m -76 825 l -76 957 l 449 957 l 449 825 l -76 825 z "},"į":{"ha":371,"x_min":-25,"x_max":286,"o":"m 92 0 l 92 700 l 279 700 l 279 0 l 92 0 m 185 793 q 123 819 149 793 q 97 881 97 844 q 123 944 97 918 q 185 969 149 969 q 249 944 224 969 q 275 881 275 918 q 249 819 275 844 q 185 793 224 793 m 164 -293 q 69 -278 113 -293 q 1 -229 26 -262 q -25 -146 -25 -196 q -7 -74 -25 -108 q 55 -6 11 -39 q 175 60 99 28 l 238 88 l 279 0 l 208 -35 q 138 -82 158 -60 q 117 -129 117 -104 q 135 -169 117 -154 q 188 -185 154 -185 q 234 -179 208 -185 q 286 -164 260 -174 l 286 -274 q 228 -288 260 -283 q 164 -293 197 -293 z "},"ĩ":{"ha":371,"x_min":-64,"x_max":435,"o":"m 92 0 l 92 700 l 279 700 l 279 0 l 92 0 m 268 792 q 199 807 228 792 q 147 838 171 822 q 94 854 124 854 q 56 839 72 854 q 35 792 40 824 l -64 792 q -5 928 -49 885 q 103 971 39 971 q 171 955 143 971 q 223 923 199 939 q 276 907 247 907 q 316 922 300 907 q 336 969 332 938 l 435 969 q 377 834 421 876 q 268 792 333 792 z "},"ĳ":{"ha":717,"x_min":75,"x_max":644,"o":"m 96 0 l 96 700 l 283 700 l 283 0 l 96 0 m 190 796 q 108 826 140 796 q 75 901 75 856 q 108 977 75 947 q 190 1007 140 1007 q 274 977 242 1007 q 307 901 307 947 q 274 826 307 856 q 190 796 242 796 m 296 -306 l 296 -146 l 353 -146 q 416 -128 397 -146 q 435 -69 435 -110 l 435 700 l 622 700 l 622 -68 q 592 -206 622 -154 q 508 -282 563 -258 q 381 -306 454 -306 l 296 -306 m 529 796 q 446 826 478 796 q 414 901 414 856 q 446 977 414 947 q 529 1007 478 1007 q 613 977 581 1007 q 644 901 644 947 q 613 826 644 856 q 529 796 581 796 z "},"j":{"ha":381,"x_min":-40,"x_max":308,"o":"m -40 -306 l -40 -146 l 17 -146 q 80 -128 61 -146 q 99 -69 99 -110 l 99 700 l 286 700 l 286 -68 q 256 -206 286 -154 q 172 -282 226 -258 q 44 -306 118 -306 l -40 -306 m 193 796 q 110 826 142 796 q 78 901 78 856 q 110 977 78 947 q 193 1007 142 1007 q 276 977 244 1007 q 308 901 308 947 q 276 826 308 856 q 193 796 244 796 z "},"ȷ":{"ha":357,"x_min":-40,"x_max":286,"o":"m -40 -306 l -40 -146 l 17 -146 q 80 -128 61 -146 q 99 -69 99 -110 l 99 700 l 286 700 l 286 -68 q 256 -206 286 -154 q 172 -282 226 -258 q 44 -306 118 -306 l -40 -306 z "},"k":{"ha":803,"x_min":92,"x_max":783,"o":"m 550 0 l 251 383 l 519 700 l 740 700 l 394 304 l 394 453 l 783 0 l 550 0 m 92 0 l 92 1000 l 279 1000 l 279 0 l 92 0 z "},"ķ":{"ha":803,"x_min":92,"x_max":783,"o":"m 550 0 l 251 383 l 519 700 l 740 700 l 394 304 l 394 453 l 783 0 l 550 0 m 92 0 l 92 1000 l 279 1000 l 279 0 l 92 0 m 321 -389 l 321 -314 q 374 -292 357 -314 q 390 -226 390 -271 l 390 -206 l 313 -206 l 313 -61 l 469 -61 q 485 -133 481 -99 q 490 -200 490 -168 q 448 -339 490 -289 q 321 -389 406 -389 z "},"l":{"ha":371,"x_min":92,"x_max":279,"o":"m 92 0 l 92 1000 l 279 1000 l 279 0 l 92 0 z "},"ĺ":{"ha":371,"x_min":22,"x_max":349,"o":"m 92 0 l 92 1000 l 279 1000 l 279 0 l 92 0 m 39 1061 l 22 1185 l 326 1358 l 326 1358 l 349 1215 l 39 1061 z "},"ľ":{"ha":517,"x_min":92,"x_max":503,"o":"m 92 0 l 92 1000 l 279 1000 l 279 0 l 92 0 m 339 724 l 339 800 q 388 812 372 800 q 404 850 404 824 l 404 876 l 339 876 l 339 1024 l 485 1024 q 499 952 494 983 q 503 888 503 921 q 461 766 503 808 q 339 724 419 724 z "},"ļ":{"ha":371,"x_min":92,"x_max":279,"o":"m 92 0 l 92 1000 l 279 1000 l 279 0 l 92 0 m 104 -389 l 104 -314 q 157 -292 140 -314 q 174 -226 174 -271 l 174 -206 l 96 -206 l 96 -61 l 253 -61 q 269 -133 264 -99 q 274 -200 274 -168 q 231 -339 274 -289 q 104 -389 189 -389 z "},"ŀ":{"ha":635,"x_min":92,"x_max":593,"o":"m 92 0 l 92 1000 l 279 1000 l 279 0 l 92 0 m 479 344 q 394 376 426 344 q 363 453 363 407 q 394 530 363 499 q 479 561 426 561 q 561 530 529 561 q 593 453 593 499 q 561 376 593 407 q 479 344 529 344 z "},"ł":{"ha":410,"x_min":15,"x_max":394,"o":"m 15 399 l 15 556 l 394 685 l 394 528 l 15 399 m 111 0 l 111 1000 l 299 1000 l 299 0 l 111 0 z "},"m":{"ha":1307,"x_min":92,"x_max":1222,"o":"m 92 0 l 92 700 l 257 700 l 272 607 l 272 607 q 360 687 306 657 q 486 717 415 717 q 581 703 539 717 q 655 663 622 689 q 708 596 688 636 l 708 596 q 810 685 747 653 q 946 717 872 717 q 1099 680 1038 717 q 1191 574 1160 643 q 1222 403 1222 504 l 1222 0 l 1036 0 l 1036 386 q 1003 514 1036 469 q 903 558 971 558 q 824 536 858 558 q 770 472 789 514 q 751 372 751 431 l 751 0 l 564 0 l 564 386 q 531 514 564 469 q 428 558 497 558 q 351 536 385 558 q 298 472 317 514 q 279 372 279 431 l 279 0 l 92 0 z "},"n":{"ha":857,"x_min":92,"x_max":772,"o":"m 92 0 l 92 700 l 257 700 l 271 586 l 271 586 q 362 681 303 644 q 503 717 421 717 q 650 681 590 717 q 741 575 710 644 q 772 404 772 506 l 772 0 l 586 0 l 586 386 q 551 514 586 469 q 442 558 515 558 q 358 536 394 558 q 300 473 321 514 q 279 374 279 432 l 279 0 l 92 0 z "},"ń":{"ha":857,"x_min":92,"x_max":772,"o":"m 92 0 l 92 700 l 257 700 l 271 586 l 271 586 q 362 681 303 644 q 503 717 421 717 q 650 681 590 717 q 741 575 710 644 q 772 404 772 506 l 772 0 l 586 0 l 586 386 q 551 514 586 469 q 442 558 515 558 q 358 536 394 558 q 300 473 321 514 q 279 374 279 432 l 279 0 l 92 0 m 314 760 l 297 883 l 601 1057 l 601 1057 l 624 914 l 314 760 z "},"ň":{"ha":857,"x_min":92,"x_max":772,"o":"m 92 0 l 92 700 l 257 700 l 271 586 l 271 586 q 362 681 303 644 q 503 717 421 717 q 650 681 590 717 q 741 575 710 644 q 772 404 772 506 l 772 0 l 586 0 l 586 386 q 551 514 586 469 q 442 558 515 558 q 358 536 394 558 q 300 473 321 514 q 279 374 279 432 l 279 0 l 92 0 m 461 782 l 256 893 l 256 1026 l 461 907 l 665 1026 l 665 893 l 461 782 z "},"ņ":{"ha":857,"x_min":92,"x_max":772,"o":"m 92 0 l 92 700 l 257 700 l 271 586 l 271 586 q 362 681 303 644 q 503 717 421 717 q 650 681 590 717 q 741 575 710 644 q 772 404 772 506 l 772 0 l 586 0 l 586 386 q 551 514 586 469 q 442 558 515 558 q 358 536 394 558 q 300 473 321 514 q 279 374 279 432 l 279 0 l 92 0 m 350 -389 l 350 -314 q 403 -292 386 -314 q 419 -226 419 -271 l 419 -206 l 342 -206 l 342 -61 l 499 -61 q 515 -133 510 -99 q 519 -200 519 -168 q 477 -339 519 -289 q 350 -389 435 -389 z "},"ñ":{"ha":857,"x_min":92,"x_max":772,"o":"m 92 0 l 92 700 l 257 700 l 271 586 l 271 586 q 362 681 303 644 q 503 717 421 717 q 650 681 590 717 q 741 575 710 644 q 772 404 772 506 l 772 0 l 586 0 l 586 386 q 551 514 586 469 q 442 558 515 558 q 358 536 394 558 q 300 473 321 514 q 279 374 279 432 l 279 0 l 92 0 m 543 792 q 474 807 503 792 q 422 838 446 822 q 369 854 399 854 q 331 839 347 854 q 310 792 315 824 l 211 792 q 270 928 226 885 q 378 971 314 971 q 446 955 418 971 q 498 923 474 939 q 551 907 522 907 q 591 922 575 907 q 611 969 607 938 l 710 969 q 652 834 696 876 q 543 792 608 792 z "},"ŋ":{"ha":844,"x_min":92,"x_max":772,"o":"m 92 0 l 92 700 l 257 700 l 271 586 l 271 586 q 362 681 303 644 q 504 717 421 717 q 649 681 589 717 q 741 575 710 644 q 772 404 772 506 l 772 -68 q 743 -206 772 -154 q 660 -282 714 -258 q 532 -306 606 -306 l 447 -306 l 447 -146 l 503 -146 q 567 -128 549 -146 q 586 -69 586 -110 l 586 386 q 551 514 586 469 q 442 558 515 558 q 358 536 394 558 q 300 473 321 514 q 279 374 279 432 l 279 0 l 92 0 z "},"o":{"ha":847,"x_min":69,"x_max":778,"o":"m 422 -17 q 242 30 322 -17 q 116 159 163 76 q 69 349 69 242 q 116 541 69 458 q 243 670 163 624 q 424 717 324 717 q 605 670 525 717 q 731 541 685 624 q 778 350 778 458 q 731 159 778 242 q 604 30 685 76 q 422 -17 524 -17 m 422 146 q 506 168 469 146 q 565 236 543 190 q 586 350 586 282 q 565 463 586 418 q 506 531 543 508 q 424 554 469 554 q 342 531 379 554 q 283 463 304 508 q 261 350 261 418 q 283 236 261 282 q 341 168 304 190 q 422 146 378 146 z "},"ó":{"ha":847,"x_min":69,"x_max":778,"o":"m 422 -17 q 242 30 322 -17 q 116 159 163 76 q 69 349 69 242 q 116 541 69 458 q 243 670 163 624 q 424 717 324 717 q 605 670 525 717 q 731 541 685 624 q 778 350 778 458 q 731 159 778 242 q 604 30 685 76 q 422 -17 524 -17 m 422 146 q 506 168 469 146 q 565 236 543 190 q 586 350 586 282 q 565 463 586 418 q 506 531 543 508 q 424 554 469 554 q 342 531 379 554 q 283 463 304 508 q 261 350 261 418 q 283 236 261 282 q 341 168 304 190 q 422 146 378 146 m 278 760 l 261 883 l 565 1057 l 565 1057 l 588 914 l 278 760 z "},"ŏ":{"ha":847,"x_min":69,"x_max":778,"o":"m 422 -17 q 242 30 322 -17 q 116 159 163 76 q 69 349 69 242 q 116 541 69 458 q 243 670 163 624 q 424 717 324 717 q 605 670 525 717 q 731 541 685 624 q 778 350 778 458 q 731 159 778 242 q 604 30 685 76 q 422 -17 524 -17 m 422 146 q 506 168 469 146 q 565 236 543 190 q 586 350 586 282 q 565 463 586 418 q 506 531 543 508 q 424 554 469 554 q 342 531 379 554 q 283 463 304 508 q 261 350 261 418 q 283 236 261 282 q 341 168 304 190 q 422 146 378 146 m 425 782 q 308 808 357 782 q 232 882 258 833 q 206 997 206 931 l 206 1021 l 304 1021 q 331 947 304 974 q 425 921 357 921 q 519 947 492 921 q 546 1021 546 974 l 644 1021 l 644 996 q 617 881 644 929 q 541 808 590 833 q 425 782 492 782 z "},"ô":{"ha":847,"x_min":69,"x_max":778,"o":"m 422 -17 q 242 30 322 -17 q 116 159 163 76 q 69 349 69 242 q 116 541 69 458 q 243 670 163 624 q 424 717 324 717 q 605 670 525 717 q 731 541 685 624 q 778 350 778 458 q 731 159 778 242 q 604 30 685 76 q 422 -17 524 -17 m 422 146 q 506 168 469 146 q 565 236 543 190 q 586 350 586 282 q 565 463 586 418 q 506 531 543 508 q 424 554 469 554 q 342 531 379 554 q 283 463 304 508 q 261 350 261 418 q 283 236 261 282 q 341 168 304 190 q 422 146 378 146 m 219 764 l 219 897 l 425 1008 l 629 897 l 629 764 l 425 878 l 219 764 z "},"ö":{"ha":847,"x_min":69,"x_max":778,"o":"m 422 -17 q 242 30 322 -17 q 116 159 163 76 q 69 349 69 242 q 116 541 69 458 q 243 670 163 624 q 424 717 324 717 q 605 670 525 717 q 731 541 685 624 q 778 350 778 458 q 731 159 778 242 q 604 30 685 76 q 422 -17 524 -17 m 422 146 q 506 168 469 146 q 565 236 543 190 q 586 350 586 282 q 565 463 586 418 q 506 531 543 508 q 424 554 469 554 q 342 531 379 554 q 283 463 304 508 q 261 350 261 418 q 283 236 261 282 q 341 168 304 190 q 422 146 378 146 m 296 792 q 234 817 260 792 q 208 879 208 842 q 234 942 208 917 q 296 968 260 968 q 360 942 335 968 q 386 879 386 917 q 360 817 386 842 q 296 792 335 792 m 551 792 q 488 817 514 792 q 463 879 463 842 q 488 942 463 917 q 551 968 514 968 q 615 942 589 968 q 640 879 640 917 q 615 817 640 842 q 551 792 589 792 z "},"ò":{"ha":847,"x_min":69,"x_max":778,"o":"m 422 -17 q 242 30 322 -17 q 116 159 163 76 q 69 349 69 242 q 116 541 69 458 q 243 670 163 624 q 424 717 324 717 q 605 670 525 717 q 731 541 685 624 q 778 350 778 458 q 731 159 778 242 q 604 30 685 76 q 422 -17 524 -17 m 422 146 q 506 168 469 146 q 565 236 543 190 q 586 350 586 282 q 565 463 586 418 q 506 531 543 508 q 424 554 469 554 q 342 531 379 554 q 283 463 304 508 q 261 350 261 418 q 283 236 261 282 q 341 168 304 190 q 422 146 378 146 m 569 760 l 261 914 l 282 1057 l 282 1057 l 588 883 l 569 760 z "},"ő":{"ha":847,"x_min":69,"x_max":778,"o":"m 422 -17 q 242 30 322 -17 q 116 159 163 76 q 69 349 69 242 q 116 541 69 458 q 243 670 163 624 q 424 717 324 717 q 605 670 525 717 q 731 541 685 624 q 778 350 778 458 q 731 159 778 242 q 604 30 685 76 q 422 -17 524 -17 m 422 146 q 506 168 469 146 q 565 236 543 190 q 586 350 586 282 q 565 463 586 418 q 506 531 543 508 q 424 554 469 554 q 342 531 379 554 q 283 463 304 508 q 261 350 261 418 q 283 236 261 282 q 341 168 304 190 q 422 146 378 146 m 471 765 l 585 1021 l 738 1021 l 588 765 l 471 765 m 229 765 l 328 1021 l 481 1021 l 347 765 l 229 765 z "},"ō":{"ha":847,"x_min":69,"x_max":778,"o":"m 422 -17 q 242 30 322 -17 q 116 159 163 76 q 69 349 69 242 q 116 541 69 458 q 243 670 163 624 q 424 717 324 717 q 605 670 525 717 q 731 541 685 624 q 778 350 778 458 q 731 159 778 242 q 604 30 685 76 q 422 -17 524 -17 m 422 146 q 506 168 469 146 q 565 236 543 190 q 586 350 586 282 q 565 463 586 418 q 506 531 543 508 q 424 554 469 554 q 342 531 379 554 q 283 463 304 508 q 261 350 261 418 q 283 236 261 282 q 341 168 304 190 q 422 146 378 146 m 161 825 l 161 957 l 686 957 l 686 825 l 161 825 z "},"ø":{"ha":825,"x_min":39,"x_max":786,"o":"m 39 0 l 642 700 l 786 700 l 185 0 l 39 0 m 411 -17 q 231 30 311 -17 q 104 159 150 76 q 58 349 58 242 q 105 541 58 458 q 232 670 151 624 q 413 717 313 717 q 594 670 514 717 q 720 541 674 624 q 767 350 767 458 q 720 159 767 242 q 593 30 674 76 q 411 -17 513 -17 m 413 146 q 495 168 458 146 q 553 236 532 190 q 575 350 575 282 q 553 463 575 418 q 495 531 532 508 q 413 554 458 554 q 331 531 368 554 q 271 463 293 508 q 249 350 249 418 q 271 236 249 282 q 330 168 293 190 q 413 146 367 146 z "},"õ":{"ha":847,"x_min":69,"x_max":778,"o":"m 422 -17 q 242 30 322 -17 q 116 159 163 76 q 69 349 69 242 q 116 541 69 458 q 243 670 163 624 q 424 717 324 717 q 605 670 525 717 q 731 541 685 624 q 778 350 778 458 q 731 159 778 242 q 604 30 685 76 q 422 -17 524 -17 m 422 146 q 506 168 469 146 q 565 236 543 190 q 586 350 586 282 q 565 463 586 418 q 506 531 543 508 q 424 554 469 554 q 342 531 379 554 q 283 463 304 508 q 261 350 261 418 q 283 236 261 282 q 341 168 304 190 q 422 146 378 146 m 507 792 q 438 807 467 792 q 386 838 410 822 q 333 854 363 854 q 295 839 311 854 q 274 792 279 824 l 175 792 q 234 928 190 885 q 342 971 278 971 q 410 955 382 971 q 462 923 438 939 q 515 907 486 907 q 555 922 539 907 q 575 969 571 938 l 674 969 q 616 834 660 876 q 507 792 572 792 z "},"œ":{"ha":1356,"x_min":69,"x_max":1293,"o":"m 424 -17 q 242 30 322 -17 q 116 159 163 76 q 69 350 69 242 q 116 541 69 458 q 243 670 163 624 q 424 717 324 717 q 571 685 506 717 q 679 596 636 654 q 793 685 725 653 q 947 717 861 717 q 1128 671 1050 717 q 1250 547 1207 625 q 1293 371 1293 469 q 1292 340 1293 357 q 1290 304 1292 322 l 774 304 q 801 215 778 253 q 860 156 824 176 q 944 136 897 136 q 1038 163 1001 136 q 1090 229 1074 189 l 1278 229 q 1214 105 1260 161 q 1100 16 1168 49 q 946 -17 1032 -17 q 792 15 861 -17 q 678 101 724 46 q 569 15 633 46 q 424 -17 504 -17 m 424 146 q 506 168 469 146 q 565 236 543 190 q 586 350 586 282 q 565 463 586 418 q 506 531 543 508 q 424 554 469 554 q 342 531 379 554 q 283 463 304 508 q 261 350 261 418 q 283 236 261 282 q 341 168 304 190 q 424 146 378 146 m 779 418 l 1104 418 q 1056 525 1100 486 q 947 564 1013 564 q 870 548 906 564 q 811 500 835 532 q 779 418 788 468 z "},"p":{"ha":910,"x_min":92,"x_max":840,"o":"m 92 -306 l 92 700 l 258 700 l 279 603 l 279 603 q 332 659 301 633 q 405 701 363 685 q 504 717 447 717 q 678 668 603 717 q 797 537 753 619 q 840 349 840 454 q 796 160 840 243 q 676 31 751 78 q 506 -17 601 -17 q 372 12 428 -17 q 279 90 315 40 l 279 -306 l 92 -306 m 461 147 q 559 172 517 147 q 625 243 601 197 q 649 349 649 289 q 625 455 649 408 q 559 527 601 501 q 461 553 517 553 q 365 527 407 553 q 298 456 322 501 q 274 350 274 410 q 298 244 274 290 q 365 172 322 197 q 461 147 407 147 z "},"þ":{"ha":910,"x_min":92,"x_max":840,"o":"m 92 -306 l 92 1000 l 279 1000 l 279 603 q 332 659 301 633 q 405 701 363 685 q 504 717 447 717 q 678 669 603 717 q 797 538 753 621 q 840 349 840 454 q 796 160 840 243 q 676 31 751 78 q 506 -17 601 -17 q 372 12 428 -17 q 279 90 315 40 l 279 -306 l 92 -306 m 461 147 q 559 172 517 147 q 625 243 601 197 q 649 349 649 289 q 625 455 649 408 q 559 527 601 501 q 461 553 517 553 q 365 527 407 553 q 298 456 322 501 q 274 350 274 410 q 298 244 274 290 q 365 172 322 197 q 461 147 407 147 z "},"q":{"ha":910,"x_min":69,"x_max":818,"o":"m 631 -306 l 631 97 q 542 15 597 47 q 407 -17 488 -17 q 233 31 310 -17 q 113 163 157 79 q 69 350 69 246 q 113 538 69 456 q 234 669 157 621 q 407 717 311 717 q 501 703 460 717 q 576 666 543 690 q 631 608 608 642 l 631 608 l 651 700 l 818 700 l 818 -306 l 631 -306 m 447 147 q 545 173 503 147 q 611 244 588 199 q 635 350 635 290 q 611 456 635 410 q 545 527 588 501 q 447 553 503 553 q 351 527 394 553 q 284 456 308 501 q 260 351 260 410 q 284 244 260 290 q 351 173 308 199 q 447 147 393 147 z "},"r":{"ha":568,"x_min":92,"x_max":536,"o":"m 92 0 l 92 700 l 258 700 l 276 571 l 276 571 q 340 649 301 617 q 427 699 378 681 q 536 717 476 717 l 536 518 l 472 518 q 395 508 431 518 q 333 477 360 499 q 293 418 307 456 q 279 324 279 381 l 279 0 l 92 0 z "},"ŕ":{"ha":568,"x_min":92,"x_max":536,"o":"m 92 0 l 92 700 l 258 700 l 276 571 l 276 571 q 340 649 301 617 q 427 699 378 681 q 536 717 476 717 l 536 518 l 472 518 q 395 508 431 518 q 333 477 360 499 q 293 418 307 456 q 279 324 279 381 l 279 0 l 92 0 m 192 760 l 175 883 l 479 1057 l 479 1057 l 501 914 l 192 760 z "},"ř":{"ha":568,"x_min":92,"x_max":543,"o":"m 92 0 l 92 700 l 258 700 l 276 571 l 276 571 q 340 649 301 617 q 427 699 378 681 q 536 717 476 717 l 536 518 l 472 518 q 395 508 431 518 q 333 477 360 499 q 293 418 307 456 q 279 324 279 381 l 279 0 l 92 0 m 339 782 l 133 893 l 133 1026 l 339 907 l 543 1026 l 543 893 l 339 782 z "},"ŗ":{"ha":568,"x_min":92,"x_max":536,"o":"m 92 0 l 92 700 l 258 700 l 276 571 l 276 571 q 340 649 301 617 q 427 699 378 681 q 536 717 476 717 l 536 518 l 472 518 q 395 508 431 518 q 333 477 360 499 q 293 418 307 456 q 279 324 279 381 l 279 0 l 92 0 m 101 -389 l 101 -314 q 154 -292 138 -314 q 171 -226 171 -271 l 171 -206 l 93 -206 l 93 -61 l 250 -61 q 266 -133 261 -99 q 271 -200 271 -168 q 228 -339 271 -289 q 101 -389 186 -389 z "},"s":{"ha":739,"x_min":54,"x_max":672,"o":"m 378 -17 q 211 14 282 -17 q 100 99 140 44 q 54 221 60 153 l 240 221 q 264 173 247 194 q 308 139 281 151 q 375 126 336 126 q 436 137 413 126 q 472 165 460 147 q 483 203 483 183 q 467 248 483 232 q 418 274 450 264 q 340 293 386 283 q 242 317 290 303 q 157 354 194 332 q 97 411 119 376 q 75 497 75 446 q 108 609 75 560 q 206 688 142 658 q 360 717 269 717 q 560 660 486 717 q 647 503 633 603 l 471 503 q 434 553 463 535 q 358 572 406 572 q 282 554 308 572 q 256 507 256 536 q 273 472 256 488 q 322 447 290 457 q 400 426 354 436 q 542 388 481 410 q 638 327 603 367 q 672 213 672 288 q 636 94 672 146 q 534 13 600 42 q 378 -17 468 -17 z "},"ś":{"ha":739,"x_min":54,"x_max":672,"o":"m 378 -17 q 211 14 282 -17 q 100 99 140 44 q 54 221 60 153 l 240 221 q 264 173 247 194 q 308 139 281 151 q 375 126 336 126 q 436 137 413 126 q 472 165 460 147 q 483 203 483 183 q 467 248 483 232 q 418 274 450 264 q 340 293 386 283 q 242 317 290 303 q 157 354 194 332 q 97 411 119 376 q 75 497 75 446 q 108 609 75 560 q 206 688 142 658 q 360 717 269 717 q 560 660 486 717 q 647 503 633 603 l 471 503 q 434 553 463 535 q 358 572 406 572 q 282 554 308 572 q 256 507 256 536 q 273 472 256 488 q 322 447 290 457 q 400 426 354 436 q 542 388 481 410 q 638 327 603 367 q 672 213 672 288 q 636 94 672 146 q 534 13 600 42 q 378 -17 468 -17 m 222 760 l 206 883 l 510 1057 l 510 1057 l 532 914 l 222 760 z "},"š":{"ha":739,"x_min":54,"x_max":672,"o":"m 378 -17 q 211 14 282 -17 q 100 99 140 44 q 54 221 60 153 l 240 221 q 264 173 247 194 q 308 139 281 151 q 375 126 336 126 q 436 137 413 126 q 472 165 460 147 q 483 203 483 183 q 467 248 483 232 q 418 274 450 264 q 340 293 386 283 q 242 317 290 303 q 157 354 194 332 q 97 411 119 376 q 75 497 75 446 q 108 609 75 560 q 206 688 142 658 q 360 717 269 717 q 560 660 486 717 q 647 503 633 603 l 471 503 q 434 553 463 535 q 358 572 406 572 q 282 554 308 572 q 256 507 256 536 q 273 472 256 488 q 322 447 290 457 q 400 426 354 436 q 542 388 481 410 q 638 327 603 367 q 672 213 672 288 q 636 94 672 146 q 534 13 600 42 q 378 -17 468 -17 m 369 782 l 164 893 l 164 1026 l 369 907 l 574 1026 l 574 893 l 369 782 z "},"ş":{"ha":739,"x_min":54,"x_max":672,"o":"m 378 -17 q 211 14 282 -17 q 100 99 140 44 q 54 221 60 153 l 240 221 q 264 173 247 194 q 308 139 281 151 q 375 126 336 126 q 436 137 413 126 q 472 165 460 147 q 483 203 483 183 q 467 248 483 232 q 418 274 450 264 q 340 293 386 283 q 242 317 290 303 q 157 354 194 332 q 97 411 119 376 q 75 497 75 446 q 108 609 75 560 q 206 688 142 658 q 360 717 269 717 q 560 660 486 717 q 647 503 633 603 l 471 503 q 434 553 463 535 q 358 572 406 572 q 282 554 308 572 q 256 507 256 536 q 273 472 256 488 q 322 447 290 457 q 400 426 354 436 q 542 388 481 410 q 638 327 603 367 q 672 213 672 288 q 636 94 672 146 q 534 13 600 42 q 378 -17 468 -17 m 246 -371 l 246 -264 l 406 -264 q 458 -252 440 -264 q 476 -215 476 -240 q 458 -179 476 -190 q 406 -168 440 -168 l 319 -168 l 319 6 l 436 6 l 436 -71 q 523 -85 482 -69 q 590 -133 564 -100 q 615 -218 615 -165 q 590 -303 615 -269 q 523 -354 564 -337 q 433 -371 482 -371 l 246 -371 z "},"ș":{"ha":739,"x_min":54,"x_max":672,"o":"m 378 -17 q 211 14 282 -17 q 100 99 140 44 q 54 221 60 153 l 240 221 q 264 173 247 194 q 308 139 281 151 q 375 126 336 126 q 436 137 413 126 q 472 165 460 147 q 483 203 483 183 q 467 248 483 232 q 418 274 450 264 q 340 293 386 283 q 242 317 290 303 q 157 354 194 332 q 97 411 119 376 q 75 497 75 446 q 108 609 75 560 q 206 688 142 658 q 360 717 269 717 q 560 660 486 717 q 647 503 633 603 l 471 503 q 434 553 463 535 q 358 572 406 572 q 282 554 308 572 q 256 507 256 536 q 273 472 256 488 q 322 447 290 457 q 400 426 354 436 q 542 388 481 410 q 638 327 603 367 q 672 213 672 288 q 636 94 672 146 q 534 13 600 42 q 378 -17 468 -17 m 289 -389 l 289 -314 q 342 -292 325 -314 q 358 -226 358 -271 l 358 -206 l 281 -206 l 281 -61 l 438 -61 q 453 -133 449 -99 q 458 -200 458 -168 q 416 -339 458 -289 q 289 -389 374 -389 z "},"ß":{"ha":988,"x_min":93,"x_max":944,"o":"m 660 -14 q 451 53 532 -14 q 357 244 371 121 l 532 244 q 570 158 538 190 q 657 125 603 125 q 734 148 707 125 q 761 211 761 171 q 735 277 761 251 q 636 328 710 303 q 474 409 524 368 q 424 514 424 450 q 441 577 424 551 q 484 622 458 603 q 535 659 510 642 q 578 699 561 676 q 596 750 596 721 q 556 831 596 803 q 444 860 515 860 q 319 814 360 860 q 278 688 278 768 l 278 0 l 93 0 l 93 703 q 135 867 93 796 q 259 977 178 938 q 453 1017 340 1017 q 631 984 557 1017 q 743 896 704 951 q 782 772 782 840 q 765 699 782 729 q 723 649 749 669 q 672 612 697 628 q 628 579 646 596 q 611 543 611 563 q 622 513 611 526 q 663 484 633 499 q 750 449 692 469 q 899 358 854 411 q 944 224 944 306 q 910 100 944 154 q 811 16 875 46 q 660 -14 747 -14 z "},"t":{"ha":601,"x_min":43,"x_max":535,"o":"m 407 0 q 278 23 333 0 q 193 99 224 46 q 163 246 163 153 l 163 543 l 43 543 l 43 700 l 163 700 l 183 890 l 350 890 l 350 700 l 535 700 l 535 543 l 350 543 l 350 243 q 371 178 350 196 q 442 160 392 160 l 533 160 l 533 0 l 407 0 z "},"ť":{"ha":601,"x_min":43,"x_max":597,"o":"m 407 0 q 278 23 333 0 q 193 99 224 46 q 163 246 163 153 l 163 543 l 43 543 l 43 700 l 163 700 l 183 890 l 350 890 l 350 700 l 535 700 l 535 543 l 350 543 l 350 243 q 371 178 350 196 q 442 160 392 160 l 533 160 l 533 0 l 407 0 m 433 758 l 433 835 q 483 847 467 835 q 499 885 499 858 l 499 911 l 433 911 l 433 1058 l 579 1058 q 593 987 589 1018 q 597 922 597 956 q 556 801 597 843 q 433 758 514 758 z "},"ţ":{"ha":601,"x_min":43,"x_max":639,"o":"m 407 0 q 278 23 333 0 q 193 99 224 46 q 163 246 163 153 l 163 543 l 43 543 l 43 700 l 163 700 l 183 890 l 350 890 l 350 700 l 535 700 l 535 543 l 350 543 l 350 243 q 371 178 350 196 q 442 160 392 160 l 533 160 l 533 0 l 407 0 m 269 -371 l 269 -264 l 429 -264 q 482 -252 464 -264 q 500 -215 500 -240 q 482 -179 500 -190 q 429 -168 464 -168 l 343 -168 l 343 6 l 460 6 l 460 -71 q 547 -85 506 -69 q 613 -133 588 -100 q 639 -218 639 -165 q 613 -303 639 -269 q 547 -354 588 -337 q 457 -371 506 -371 l 269 -371 z "},"ț":{"ha":601,"x_min":43,"x_max":535,"o":"m 407 0 q 278 23 333 0 q 193 99 224 46 q 163 246 163 153 l 163 543 l 43 543 l 43 700 l 163 700 l 183 890 l 350 890 l 350 700 l 535 700 l 535 543 l 350 543 l 350 243 q 371 178 350 196 q 442 160 392 160 l 533 160 l 533 0 l 407 0 m 313 -389 l 313 -314 q 365 -292 349 -314 q 382 -226 382 -271 l 382 -206 l 304 -206 l 304 -61 l 461 -61 q 477 -133 472 -99 q 482 -200 482 -168 q 440 -339 482 -289 q 313 -389 397 -389 z "},"u":{"ha":856,"x_min":83,"x_max":764,"o":"m 353 -17 q 208 19 268 -17 q 115 123 147 54 q 83 293 83 192 l 83 700 l 271 700 l 271 313 q 306 185 271 228 q 415 142 342 142 q 499 163 463 142 q 556 226 535 185 q 578 326 578 267 l 578 700 l 764 700 l 764 0 l 600 0 l 585 114 l 585 114 q 494 19 554 54 q 353 -17 435 -17 z "},"ú":{"ha":856,"x_min":83,"x_max":764,"o":"m 353 -17 q 208 19 268 -17 q 115 123 147 54 q 83 293 83 192 l 83 700 l 271 700 l 271 313 q 306 185 271 228 q 415 142 342 142 q 499 163 463 142 q 556 226 535 185 q 578 326 578 267 l 578 700 l 764 700 l 764 0 l 600 0 l 585 114 l 585 114 q 494 19 554 54 q 353 -17 435 -17 m 275 760 l 258 883 l 563 1057 l 563 1057 l 585 914 l 275 760 z "},"ŭ":{"ha":856,"x_min":83,"x_max":764,"o":"m 353 -17 q 208 19 268 -17 q 115 123 147 54 q 83 293 83 192 l 83 700 l 271 700 l 271 313 q 306 185 271 228 q 415 142 342 142 q 499 163 463 142 q 556 226 535 185 q 578 326 578 267 l 578 700 l 764 700 l 764 0 l 600 0 l 585 114 l 585 114 q 494 19 554 54 q 353 -17 435 -17 m 422 782 q 305 808 354 782 q 229 882 256 833 q 203 997 203 931 l 203 1021 l 301 1021 q 328 947 301 974 q 422 921 354 921 q 516 947 489 921 q 543 1021 543 974 l 642 1021 l 642 996 q 615 881 642 929 q 538 808 588 833 q 422 782 489 782 z "},"û":{"ha":856,"x_min":83,"x_max":764,"o":"m 353 -17 q 208 19 268 -17 q 115 123 147 54 q 83 293 83 192 l 83 700 l 271 700 l 271 313 q 306 185 271 228 q 415 142 342 142 q 499 163 463 142 q 556 226 535 185 q 578 326 578 267 l 578 700 l 764 700 l 764 0 l 600 0 l 585 114 l 585 114 q 494 19 554 54 q 353 -17 435 -17 m 217 764 l 217 897 l 422 1008 l 626 897 l 626 764 l 422 878 l 217 764 z "},"ü":{"ha":856,"x_min":83,"x_max":764,"o":"m 353 -17 q 208 19 268 -17 q 115 123 147 54 q 83 293 83 192 l 83 700 l 271 700 l 271 313 q 306 185 271 228 q 415 142 342 142 q 499 163 463 142 q 556 226 535 185 q 578 326 578 267 l 578 700 l 764 700 l 764 0 l 600 0 l 585 114 l 585 114 q 494 19 554 54 q 353 -17 435 -17 m 294 792 q 233 817 258 792 q 207 879 207 842 q 233 942 207 917 q 294 968 258 968 q 359 942 333 968 q 385 879 385 917 q 359 817 385 842 q 294 792 333 792 m 550 792 q 487 817 513 792 q 461 879 461 842 q 487 942 461 917 q 550 968 513 968 q 613 942 588 968 q 639 879 639 917 q 613 817 639 842 q 550 792 588 792 z "},"ù":{"ha":856,"x_min":83,"x_max":764,"o":"m 353 -17 q 208 19 268 -17 q 115 123 147 54 q 83 293 83 192 l 83 700 l 271 700 l 271 313 q 306 185 271 228 q 415 142 342 142 q 499 163 463 142 q 556 226 535 185 q 578 326 578 267 l 578 700 l 764 700 l 764 0 l 600 0 l 585 114 l 585 114 q 494 19 554 54 q 353 -17 435 -17 m 567 760 l 258 914 l 279 1057 l 279 1057 l 585 883 l 567 760 z "},"ű":{"ha":856,"x_min":83,"x_max":764,"o":"m 353 -17 q 208 19 268 -17 q 115 123 147 54 q 83 293 83 192 l 83 700 l 271 700 l 271 313 q 306 185 271 228 q 415 142 342 142 q 499 163 463 142 q 556 226 535 185 q 578 326 578 267 l 578 700 l 764 700 l 764 0 l 600 0 l 585 114 l 585 114 q 494 19 554 54 q 353 -17 435 -17 m 469 765 l 583 1021 l 736 1021 l 586 765 l 469 765 m 228 765 l 326 1021 l 479 1021 l 346 765 l 228 765 z "},"ū":{"ha":856,"x_min":83,"x_max":764,"o":"m 353 -17 q 208 19 268 -17 q 115 123 147 54 q 83 293 83 192 l 83 700 l 271 700 l 271 313 q 306 185 271 228 q 415 142 342 142 q 499 163 463 142 q 556 226 535 185 q 578 326 578 267 l 578 700 l 764 700 l 764 0 l 600 0 l 585 114 l 585 114 q 494 19 554 54 q 353 -17 435 -17 m 160 825 l 160 957 l 685 957 l 685 825 l 160 825 z "},"ų":{"ha":856,"x_min":83,"x_max":772,"o":"m 353 -17 q 208 19 268 -17 q 115 123 147 54 q 83 293 83 192 l 83 700 l 271 700 l 271 313 q 306 185 271 228 q 415 142 342 142 q 499 163 463 142 q 556 226 535 185 q 578 326 578 267 l 578 700 l 764 700 l 764 0 l 600 0 l 585 114 l 585 114 q 494 19 554 54 q 353 -17 435 -17 m 650 -293 q 556 -278 599 -293 q 487 -229 513 -262 q 461 -146 461 -196 q 479 -74 461 -108 q 541 -6 497 -39 q 661 60 585 28 l 724 88 l 765 0 l 694 -35 q 624 -82 644 -60 q 603 -129 603 -104 q 622 -169 603 -154 q 674 -185 640 -185 q 720 -179 694 -185 q 772 -164 746 -174 l 772 -274 q 715 -288 746 -283 q 650 -293 683 -293 z "},"ů":{"ha":856,"x_min":83,"x_max":764,"o":"m 353 -17 q 208 19 268 -17 q 115 123 147 54 q 83 293 83 192 l 83 700 l 271 700 l 271 313 q 306 185 271 228 q 415 142 342 142 q 499 163 463 142 q 556 226 535 185 q 578 326 578 267 l 578 700 l 764 700 l 764 0 l 600 0 l 585 114 l 585 114 q 494 19 554 54 q 353 -17 435 -17 m 422 792 q 310 833 357 792 q 263 949 263 875 q 310 1065 263 1022 q 422 1107 357 1107 q 536 1065 489 1107 q 583 949 583 1022 q 536 833 583 875 q 422 792 489 792 m 422 874 q 474 894 453 874 q 494 949 494 915 q 474 1003 494 983 q 422 1022 453 1022 q 372 1003 393 1022 q 351 949 351 983 q 372 894 351 915 q 422 874 393 874 z "},"ũ":{"ha":856,"x_min":83,"x_max":764,"o":"m 353 -17 q 208 19 268 -17 q 115 123 147 54 q 83 293 83 192 l 83 700 l 271 700 l 271 313 q 306 185 271 228 q 415 142 342 142 q 499 163 463 142 q 556 226 535 185 q 578 326 578 267 l 578 700 l 764 700 l 764 0 l 600 0 l 585 114 l 585 114 q 494 19 554 54 q 353 -17 435 -17 m 504 792 q 435 807 464 792 q 383 838 407 822 q 331 854 360 854 q 292 839 308 854 q 271 792 276 824 l 172 792 q 231 928 188 885 q 339 971 275 971 q 407 955 379 971 q 459 923 435 939 q 513 907 483 907 q 552 922 536 907 q 572 969 568 938 l 671 969 q 613 834 657 876 q 504 792 569 792 z "},"v":{"ha":785,"x_min":22,"x_max":763,"o":"m 279 0 l 22 700 l 219 700 l 393 176 l 393 176 l 567 700 l 763 700 l 507 0 l 279 0 z "},"w":{"ha":1139,"x_min":24,"x_max":1115,"o":"m 229 0 l 24 700 l 208 700 l 344 132 l 310 133 l 465 700 l 674 700 l 829 133 l 793 132 l 931 700 l 1115 700 l 910 0 l 715 0 l 550 583 l 589 583 l 424 0 l 229 0 z "},"ẃ":{"ha":1139,"x_min":24,"x_max":1115,"o":"m 229 0 l 24 700 l 208 700 l 344 132 l 310 133 l 465 700 l 674 700 l 829 133 l 793 132 l 931 700 l 1115 700 l 910 0 l 715 0 l 550 583 l 589 583 l 424 0 l 229 0 m 422 760 l 406 883 l 710 1057 l 710 1057 l 732 914 l 422 760 z "},"ŵ":{"ha":1139,"x_min":24,"x_max":1115,"o":"m 229 0 l 24 700 l 208 700 l 344 132 l 310 133 l 465 700 l 674 700 l 829 133 l 793 132 l 931 700 l 1115 700 l 910 0 l 715 0 l 550 583 l 589 583 l 424 0 l 229 0 m 364 764 l 364 897 l 569 1008 l 774 897 l 774 764 l 569 878 l 364 764 z "},"ẅ":{"ha":1139,"x_min":24,"x_max":1115,"o":"m 229 0 l 24 700 l 208 700 l 344 132 l 310 133 l 465 700 l 674 700 l 829 133 l 793 132 l 931 700 l 1115 700 l 910 0 l 715 0 l 550 583 l 589 583 l 424 0 l 229 0 m 442 792 q 380 817 406 792 q 354 879 354 842 q 380 942 354 917 q 442 968 406 968 q 506 942 481 968 q 532 879 532 917 q 506 817 532 842 q 442 792 481 792 m 697 792 q 634 817 660 792 q 608 879 608 842 q 634 942 608 917 q 697 968 660 968 q 760 942 735 968 q 786 879 786 917 q 760 817 786 842 q 697 792 735 792 z "},"ẁ":{"ha":1139,"x_min":24,"x_max":1115,"o":"m 229 0 l 24 700 l 208 700 l 344 132 l 310 133 l 465 700 l 674 700 l 829 133 l 793 132 l 931 700 l 1115 700 l 910 0 l 715 0 l 550 583 l 589 583 l 424 0 l 229 0 m 714 760 l 406 914 l 426 1057 l 426 1057 l 732 883 l 714 760 z "},"x":{"ha":793,"x_min":26,"x_max":767,"o":"m 26 0 l 278 350 l 26 700 l 229 700 l 397 460 l 397 460 l 565 700 l 767 700 l 515 350 l 767 0 l 565 0 l 397 242 l 397 242 l 229 0 l 26 0 z "},"y":{"ha":839,"x_min":28,"x_max":811,"o":"m 181 -306 l 350 78 l 308 78 l 28 700 l 232 700 l 432 249 l 432 249 l 613 700 l 811 700 l 379 -306 l 181 -306 z "},"ý":{"ha":839,"x_min":28,"x_max":811,"o":"m 181 -306 l 350 78 l 308 78 l 28 700 l 232 700 l 432 249 l 432 249 l 613 700 l 811 700 l 379 -306 l 181 -306 m 274 760 l 257 883 l 561 1057 l 561 1057 l 583 914 l 274 760 z "},"ŷ":{"ha":839,"x_min":28,"x_max":811,"o":"m 181 -306 l 350 78 l 308 78 l 28 700 l 232 700 l 432 249 l 432 249 l 613 700 l 811 700 l 379 -306 l 181 -306 m 215 764 l 215 897 l 421 1008 l 625 897 l 625 764 l 421 878 l 215 764 z "},"ÿ":{"ha":839,"x_min":28,"x_max":811,"o":"m 181 -306 l 350 78 l 308 78 l 28 700 l 232 700 l 432 249 l 432 249 l 613 700 l 811 700 l 379 -306 l 181 -306 m 292 792 q 230 817 256 792 q 204 879 204 842 q 230 942 204 917 q 292 968 256 968 q 356 942 331 968 q 382 879 382 917 q 356 817 382 842 q 292 792 331 792 m 547 792 q 484 817 510 792 q 458 879 458 842 q 484 942 458 917 q 547 968 510 968 q 610 942 585 968 q 636 879 636 917 q 610 817 636 842 q 547 792 585 792 z "},"ỳ":{"ha":839,"x_min":28,"x_max":811,"o":"m 181 -306 l 350 78 l 308 78 l 28 700 l 232 700 l 432 249 l 432 249 l 613 700 l 811 700 l 379 -306 l 181 -306 m 565 760 l 257 914 l 278 1057 l 278 1057 l 583 883 l 565 760 z "},"ỹ":{"ha":839,"x_min":28,"x_max":811,"o":"m 181 -306 l 350 78 l 308 78 l 28 700 l 232 700 l 432 249 l 432 249 l 613 700 l 811 700 l 379 -306 l 181 -306 m 503 792 q 434 807 463 792 q 382 838 406 822 q 329 854 358 854 q 291 839 307 854 q 269 792 275 824 l 171 792 q 230 928 186 885 q 338 971 274 971 q 406 955 378 971 q 458 923 433 939 q 511 907 482 907 q 551 922 535 907 q 571 969 567 938 l 669 969 q 612 834 656 876 q 503 792 568 792 z "},"z":{"ha":681,"x_min":46,"x_max":621,"o":"m 46 0 l 46 150 l 399 544 l 50 544 l 50 700 l 614 700 l 614 549 l 258 156 l 621 156 l 621 0 l 46 0 z "},"ź":{"ha":681,"x_min":46,"x_max":621,"o":"m 46 0 l 46 150 l 399 544 l 50 544 l 50 700 l 614 700 l 614 549 l 258 156 l 621 156 l 621 0 l 46 0 m 192 760 l 175 883 l 479 1057 l 479 1057 l 501 914 l 192 760 z "},"ž":{"ha":681,"x_min":46,"x_max":621,"o":"m 46 0 l 46 150 l 399 544 l 50 544 l 50 700 l 614 700 l 614 549 l 258 156 l 621 156 l 621 0 l 46 0 m 339 782 l 133 893 l 133 1026 l 339 907 l 543 1026 l 543 893 l 339 782 z "},"ż":{"ha":681,"x_min":46,"x_max":621,"o":"m 46 0 l 46 150 l 399 544 l 50 544 l 50 700 l 614 700 l 614 549 l 258 156 l 621 156 l 621 0 l 46 0 m 338 793 q 276 819 301 793 q 250 881 250 844 q 276 944 250 918 q 338 969 301 969 q 402 944 376 969 q 428 881 428 918 q 402 819 428 844 q 338 793 376 793 z "},"ﬁ":{"ha":847,"x_min":28,"x_max":775,"o":"m 124 0 l 124 543 l 28 543 l 28 700 l 124 700 l 124 763 q 153 901 124 850 q 237 976 182 953 q 365 1000 292 1000 l 442 1000 l 442 840 l 393 840 q 331 823 350 840 q 311 764 311 806 l 311 700 l 751 700 l 751 0 l 564 0 l 564 543 l 311 543 l 311 0 l 124 0 m 658 794 q 576 825 608 794 q 543 901 543 856 q 576 976 543 947 q 658 1006 608 1006 q 742 976 710 1006 q 775 901 775 947 q 742 825 775 856 q 658 794 710 794 z "},"ﬂ":{"ha":886,"x_min":28,"x_max":794,"o":"m 124 0 l 124 763 q 153 901 124 850 q 237 976 182 953 q 365 1000 292 1000 l 451 1000 l 451 840 l 393 840 q 330 823 349 840 q 311 763 311 806 l 311 0 l 124 0 m 28 543 l 28 700 l 463 700 l 463 543 l 28 543 m 607 0 l 607 1000 l 794 1000 l 794 0 l 607 0 z "},"ª":{"ha":703,"x_min":72,"x_max":619,"o":"m 306 483 q 186 515 239 483 q 103 603 133 546 q 72 736 72 660 q 103 869 72 813 q 185 956 133 925 q 301 986 238 986 q 410 963 367 986 q 476 904 453 940 l 488 979 l 619 979 l 619 490 l 488 490 l 476 564 l 476 564 q 411 506 454 529 q 306 483 368 483 m 347 596 q 412 613 383 596 q 458 660 440 629 q 476 735 476 692 q 438 837 476 801 q 347 872 400 872 q 258 837 296 872 q 219 735 219 801 q 258 632 219 668 q 347 596 296 596 z "},"º":{"ha":675,"x_min":69,"x_max":606,"o":"m 336 485 q 197 517 257 485 q 103 606 138 549 q 69 738 69 663 q 103 869 69 813 q 198 958 138 926 q 338 989 258 989 q 477 958 417 989 q 572 869 538 926 q 606 738 606 813 q 572 606 606 663 q 476 517 538 549 q 336 485 415 485 m 336 597 q 397 613 369 597 q 442 660 425 629 q 458 736 458 692 q 442 815 458 783 q 398 862 425 846 q 336 878 371 878 q 276 862 303 878 q 233 815 249 846 q 217 736 217 783 q 233 660 217 692 q 276 613 249 629 q 336 597 303 597 z "},"π":{"ha":899,"x_min":43,"x_max":856,"o":"m 144 0 l 144 556 l 43 556 l 43 700 l 856 700 l 856 556 l 753 556 l 753 0 l 565 0 l 565 556 l 332 556 l 332 0 l 144 0 z "},"⁄":{"ha":711,"x_min":-6,"x_max":724,"o":"m -6 0 l 540 972 l 724 972 l 176 0 l -6 0 z "},"½":{"ha":1213,"x_min":32,"x_max":1164,"o":"m 129 489 l 129 843 l 32 821 l 32 910 l 192 978 l 274 978 l 274 489 l 129 489 m 185 0 l 731 972 l 914 972 l 367 0 l 185 0 m 763 0 l 763 106 l 926 219 q 989 276 967 247 q 1011 339 1011 304 q 997 381 1011 367 q 960 396 982 396 q 919 379 933 396 q 900 333 904 363 l 758 333 q 817 453 763 406 q 972 500 872 500 q 1078 478 1036 500 q 1142 422 1121 457 q 1163 349 1163 388 q 1126 255 1163 294 q 1011 171 1089 215 l 915 113 l 1161 113 l 1161 0 l 763 0 z "},"¼":{"ha":1164,"x_min":32,"x_max":1135,"o":"m 129 489 l 129 843 l 32 821 l 32 910 l 192 978 l 274 978 l 274 489 l 129 489 m 185 0 l 731 972 l 914 972 l 367 0 l 185 0 m 943 0 l 943 85 l 714 85 l 714 179 l 928 483 l 1082 483 l 1082 182 l 1133 182 l 1133 85 l 1082 85 l 1082 0 l 943 0 m 856 182 l 954 182 l 954 331 l 954 331 l 856 182 z "},"¾":{"ha":1285,"x_min":28,"x_max":1254,"o":"m 246 483 q 87 526 140 483 q 28 643 33 569 l 174 643 q 185 610 176 622 q 208 592 193 597 q 239 586 222 586 q 285 601 268 586 q 301 643 301 615 q 282 688 301 672 q 231 703 263 703 l 176 703 l 176 772 l 225 772 q 277 787 258 772 q 296 831 296 801 q 279 871 296 857 q 233 885 263 885 q 191 872 207 885 q 169 833 175 858 l 35 833 q 61 911 38 875 q 131 968 85 947 q 249 989 178 989 q 392 948 336 989 q 447 846 447 907 q 423 776 447 803 q 356 738 399 749 l 356 735 q 428 693 401 721 q 454 621 454 665 q 398 522 454 560 q 246 483 342 483 m 306 0 l 851 972 l 1035 972 l 488 0 l 306 0 m 1064 0 l 1064 85 l 835 85 l 835 179 l 1049 483 l 1203 483 l 1203 182 l 1254 182 l 1254 85 l 1203 85 l 1203 0 l 1064 0 m 976 182 l 1075 182 l 1075 331 l 1075 331 l 976 182 z "},"¹":{"ha":329,"x_min":32,"x_max":274,"o":"m 129 489 l 129 843 l 32 821 l 32 910 l 192 978 l 274 978 l 274 489 l 129 489 z "},"²":{"ha":501,"x_min":47,"x_max":451,"o":"m 51 489 l 51 594 l 215 708 q 278 765 256 736 q 300 828 300 793 q 285 870 300 856 q 249 885 271 885 q 208 868 222 885 q 189 822 193 851 l 47 822 q 106 942 51 894 q 261 989 161 989 q 367 967 325 989 q 431 911 410 946 q 451 838 451 876 q 415 744 451 783 q 300 660 378 704 l 204 601 l 450 601 l 450 489 l 51 489 z "},"³":{"ha":494,"x_min":28,"x_max":454,"o":"m 246 483 q 87 526 140 483 q 28 643 33 569 l 174 643 q 185 610 176 622 q 208 592 193 597 q 239 586 222 586 q 285 601 268 586 q 301 643 301 615 q 282 688 301 672 q 231 703 263 703 l 176 703 l 176 772 l 225 772 q 277 787 258 772 q 296 831 296 801 q 279 871 296 857 q 233 885 263 885 q 191 872 207 885 q 169 833 175 858 l 35 833 q 61 911 38 875 q 131 968 85 947 q 249 989 178 989 q 392 948 336 989 q 447 846 447 907 q 423 776 447 803 q 356 738 399 749 l 356 735 q 428 693 401 721 q 454 621 454 665 q 398 522 454 560 q 246 483 342 483 z "},"⁴":{"ha":486,"x_min":36,"x_max":456,"o":"m 265 489 l 265 574 l 36 574 l 36 668 l 250 972 l 404 972 l 404 671 l 456 671 l 456 574 l 404 574 l 404 489 l 265 489 m 178 671 l 276 671 l 276 819 l 276 819 l 178 671 z "}," ":{"ha":326,"x_min":0,"x_max":0,"o":""}," ":{"ha":326,"x_min":0,"x_max":0,"o":""},"\r":{"ha":833,"x_min":0,"x_max":0,"o":""},".":{"ha":350,"x_min":60,"x_max":290,"o":"m 176 -7 q 92 24 124 -7 q 60 101 60 56 q 92 178 60 147 q 176 210 124 210 q 258 178 226 210 q 290 101 290 147 q 258 24 290 56 q 176 -7 226 -7 z "},",":{"ha":342,"x_min":31,"x_max":290,"o":"m 31 -171 l 110 182 l 290 182 l 153 -171 l 31 -171 z "},":":{"ha":353,"x_min":60,"x_max":290,"o":"m 176 -7 q 92 24 124 -7 q 60 101 60 56 q 92 178 60 147 q 176 210 124 210 q 258 178 226 210 q 290 101 290 147 q 258 24 290 56 q 176 -7 226 -7 m 176 501 q 92 533 124 501 q 60 610 60 564 q 92 687 60 656 q 176 718 124 718 q 258 687 226 718 q 290 610 290 656 q 258 533 290 564 q 176 501 226 501 z "},";":{"ha":386,"x_min":43,"x_max":324,"o":"m 210 501 q 125 533 157 501 q 93 610 93 564 q 125 687 93 656 q 210 718 157 718 q 292 687 260 718 q 324 610 324 656 q 292 533 324 564 q 210 501 260 501 m 42 -171 l 121 182 l 301 182 l 164 -171 l 42 -171 z "},"…":{"ha":954,"x_min":60,"x_max":894,"o":"m 478 -7 q 393 24 425 -7 q 361 101 361 56 q 393 178 361 147 q 478 210 425 210 q 560 178 528 210 q 592 101 592 147 q 560 24 592 56 q 478 -7 528 -7 m 781 -7 q 696 24 728 -7 q 664 101 664 56 q 696 178 664 147 q 781 210 728 210 q 863 178 831 210 q 894 101 894 147 q 863 24 894 56 q 781 -7 831 -7 m 176 -7 q 92 24 124 -7 q 60 101 60 56 q 92 178 60 147 q 176 210 124 210 q 258 178 226 210 q 290 101 290 147 q 258 24 290 56 q 176 -7 226 -7 z "},"!":{"ha":429,"x_min":99,"x_max":331,"o":"m 135 317 l 114 972 l 315 972 l 294 317 l 135 317 m 215 -7 q 131 24 164 -7 q 99 101 99 56 q 131 178 99 147 q 215 210 164 210 q 299 178 267 210 q 331 101 331 147 q 299 24 331 56 q 215 -7 267 -7 z "},"¡":{"ha":429,"x_min":99,"x_max":331,"o":"m 135 393 l 294 393 l 315 -262 l 114 -262 l 135 393 m 215 717 q 299 685 267 717 q 331 608 331 653 q 299 531 331 563 q 215 499 267 499 q 131 531 164 499 q 99 608 99 563 q 131 685 99 653 q 215 717 164 717 z "},"?":{"ha":747,"x_min":44,"x_max":692,"o":"m 199 314 l 192 538 l 258 538 q 357 544 311 538 q 437 568 403 551 q 490 616 471 585 q 510 697 510 647 q 492 771 510 740 q 443 818 475 801 q 368 835 411 835 q 290 817 322 835 q 240 770 258 800 q 222 699 222 740 l 46 699 q 83 847 44 782 q 195 951 122 913 q 369 989 268 989 q 537 955 464 989 q 651 856 610 921 q 692 697 692 790 q 651 539 692 601 q 537 446 610 476 q 368 414 464 415 l 364 314 l 199 314 m 282 -7 q 198 24 231 -7 q 165 101 165 56 q 198 178 165 147 q 282 210 231 210 q 365 178 333 210 q 397 101 397 147 q 365 24 397 56 q 282 -7 333 -7 z "},"¿":{"ha":747,"x_min":56,"x_max":704,"o":"m 550 394 l 556 171 l 489 171 q 390 165 436 171 q 310 142 344 158 q 257 93 276 125 q 238 13 238 61 q 256 -60 238 -29 q 305 -108 274 -92 q 381 -125 336 -125 q 458 -108 426 -125 q 508 -61 490 -92 q 525 11 525 -31 l 703 11 q 665 -138 704 -72 q 553 -242 626 -204 q 378 -279 479 -279 q 212 -245 285 -279 q 97 -146 139 -211 q 56 13 56 -81 q 97 170 56 108 q 213 263 139 232 q 379 294 286 294 l 383 394 l 550 394 m 465 717 q 549 685 517 717 q 582 608 582 653 q 549 531 582 563 q 465 499 517 499 q 383 531 415 499 q 351 608 351 563 q 383 685 351 653 q 465 717 415 717 z "},"·":{"ha":350,"x_min":60,"x_max":290,"o":"m 176 344 q 92 376 124 344 q 60 453 60 407 q 92 530 60 499 q 176 561 124 561 q 258 530 226 561 q 290 453 290 499 q 258 376 290 407 q 176 344 226 344 z "},"•":{"ha":538,"x_min":78,"x_max":461,"o":"m 268 271 q 172 297 215 271 q 103 366 129 322 q 78 463 78 410 q 103 560 78 517 q 172 630 129 604 q 268 656 215 656 q 366 630 322 656 q 435 560 410 604 q 461 463 461 517 q 435 366 461 410 q 366 297 410 322 q 268 271 322 271 z "},"*":{"ha":713,"x_min":97,"x_max":619,"o":"m 293 500 l 319 694 l 168 571 l 97 694 l 276 764 l 99 832 l 164 949 l 321 828 l 292 1024 l 428 1024 l 397 828 l 554 949 l 618 833 l 439 763 l 619 693 l 551 572 l 397 694 l 426 500 l 293 500 z "},"#":{"ha":1190,"x_min":44,"x_max":1135,"o":"m 621 0 l 832 1008 l 1007 1008 l 797 0 l 621 0 m 192 0 l 401 1008 l 578 1008 l 368 0 l 192 0 m 44 238 l 44 407 l 1060 407 l 1060 238 l 44 238 m 118 607 l 118 775 l 1135 775 l 1135 607 l 118 607 z "},"/":{"ha":593,"x_min":32,"x_max":561,"o":"m 32 -158 l 379 1082 l 561 1082 l 214 -158 l 32 -158 z "},"\\":{"ha":593,"x_min":32,"x_max":561,"o":"m 561 -158 l 379 -158 l 32 1082 l 214 1082 l 561 -158 z "},"-":{"ha":800,"x_min":107,"x_max":693,"o":"m 107 331 l 107 488 l 693 488 l 693 331 l 107 331 z "},"–":{"ha":967,"x_min":107,"x_max":860,"o":"m 107 331 l 107 488 l 860 488 l 860 331 l 107 331 z "},"—":{"ha":1275,"x_min":107,"x_max":1168,"o":"m 107 331 l 107 488 l 1168 488 l 1168 331 l 107 331 z "},"_":{"ha":1007,"x_min":107,"x_max":900,"o":"m 107 -233 l 107 -54 l 900 -54 l 900 -233 l 107 -233 z "},"(":{"ha":563,"x_min":64,"x_max":518,"o":"m 332 -201 q 193 -20 254 -122 q 98 204 132 82 q 64 463 64 326 q 98 722 64 600 q 193 946 132 843 q 332 1126 254 1049 l 518 1126 l 518 1108 q 374 917 435 1021 q 281 698 314 813 q 247 463 247 583 q 281 227 247 342 q 375 9 314 113 q 518 -183 436 -94 l 518 -201 l 332 -201 z "},")":{"ha":563,"x_min":43,"x_max":499,"o":"m 231 -201 l 43 -201 l 43 -183 q 188 9 126 -94 q 281 227 249 113 q 314 463 314 342 q 281 698 314 583 q 188 917 249 813 q 43 1108 126 1021 l 43 1126 l 231 1126 q 369 946 308 1049 q 464 722 429 843 q 499 463 499 600 q 464 204 499 326 q 369 -20 429 82 q 231 -201 308 -122 z "},"{":{"ha":653,"x_min":121,"x_max":565,"o":"m 475 -246 q 299 -186 367 -246 q 232 -11 232 -126 q 239 74 232 35 q 253 152 246 113 q 261 239 261 192 q 248 299 261 272 q 204 344 235 326 q 121 367 174 361 l 121 517 q 204 539 174 522 q 248 583 235 556 q 261 643 261 610 q 253 730 261 690 q 239 808 246 769 q 232 893 232 847 q 299 1067 232 1008 q 475 1126 367 1126 l 565 1126 l 565 971 l 510 971 q 437 949 461 971 q 413 876 413 926 q 419 806 413 842 q 433 728 426 769 q 439 636 439 688 q 403 511 439 563 q 288 443 367 460 l 288 440 q 403 372 367 424 q 439 246 439 319 q 433 153 439 194 q 419 77 426 113 q 413 6 413 42 q 437 -67 413 -43 q 510 -90 461 -90 l 565 -90 l 565 -246 l 475 -246 z "},"}":{"ha":653,"x_min":88,"x_max":533,"o":"m 179 -246 l 88 -246 l 88 -90 l 143 -90 q 217 -67 193 -90 q 240 6 240 -43 q 234 77 240 42 q 222 153 228 113 q 215 246 215 194 q 251 372 215 319 q 365 440 288 424 l 365 443 q 251 511 288 460 q 215 636 215 563 q 222 728 215 688 q 234 806 228 769 q 240 876 240 842 q 217 949 240 926 q 143 971 193 971 l 88 971 l 88 1126 l 179 1126 q 354 1067 288 1126 q 421 893 421 1008 q 414 808 421 847 q 399 730 407 769 q 392 643 392 690 q 405 583 392 610 q 449 539 418 556 q 533 517 481 522 l 533 367 q 449 344 481 361 q 405 299 418 326 q 392 239 392 272 q 399 152 392 192 q 414 74 407 113 q 421 -11 421 35 q 354 -186 421 -126 q 179 -246 288 -246 z "},"[":{"ha":524,"x_min":96,"x_max":447,"o":"m 96 -240 l 96 1126 l 447 1126 l 447 975 l 271 975 l 271 -87 l 447 -87 l 447 -240 l 96 -240 z "},"]":{"ha":524,"x_min":76,"x_max":428,"o":"m 428 -240 l 76 -240 l 76 -87 l 253 -87 l 253 975 l 76 975 l 76 1126 l 428 1126 l 428 -240 z "},"‚":{"ha":354,"x_min":31,"x_max":303,"o":"m 31 -154 l 106 197 l 303 197 l 158 -154 l 31 -154 z "},"„":{"ha":631,"x_min":31,"x_max":581,"o":"m 31 -154 l 106 197 l 303 197 l 158 -154 l 31 -154 m 310 -154 l 385 197 l 581 197 l 438 -154 l 310 -154 z "},"“":{"ha":629,"x_min":42,"x_max":588,"o":"m 317 617 l 461 972 l 588 972 l 513 617 l 317 617 m 42 617 l 185 972 l 313 972 l 238 617 l 42 617 z "},"”":{"ha":629,"x_min":42,"x_max":588,"o":"m 313 972 l 169 617 l 42 617 l 117 972 l 313 972 m 588 972 l 444 617 l 317 617 l 392 972 l 588 972 z "},"‘":{"ha":354,"x_min":42,"x_max":313,"o":"m 42 617 l 185 972 l 313 972 l 238 617 l 42 617 z "},"’":{"ha":354,"x_min":42,"x_max":313,"o":"m 313 972 l 169 617 l 42 617 l 117 972 l 313 972 z "},"«":{"ha":714,"x_min":58,"x_max":644,"o":"m 468 167 l 343 410 l 468 653 l 644 653 l 515 410 l 644 167 l 468 167 m 182 167 l 58 410 l 182 653 l 358 653 l 231 410 l 358 167 l 182 167 z "},"»":{"ha":714,"x_min":69,"x_max":656,"o":"m 246 167 l 69 167 l 197 410 l 69 653 l 246 653 l 369 410 l 246 167 m 532 167 l 356 167 l 483 410 l 356 653 l 532 653 l 656 410 l 532 167 z "},"‹":{"ha":432,"x_min":60,"x_max":360,"o":"m 185 167 l 60 410 l 185 653 l 360 653 l 232 410 l 360 167 l 185 167 z "},"›":{"ha":432,"x_min":72,"x_max":372,"o":"m 249 167 l 72 167 l 200 410 l 72 653 l 249 653 l 372 410 l 249 167 z "},"\"":{"ha":510,"x_min":56,"x_max":454,"o":"m 310 746 l 293 1049 l 454 1049 l 438 746 l 310 746 m 74 746 l 56 1049 l 217 1049 l 200 746 l 74 746 z "},"'":{"ha":274,"x_min":56,"x_max":218,"o":"m 74 746 l 56 1049 l 218 1049 l 200 746 l 74 746 z "},"ƒ":{"ha":465,"x_min":-76,"x_max":476,"o":"m -76 -326 l -61 -168 l -28 -168 q 20 -151 4 -168 q 40 -97 36 -135 l 138 814 q 235 1015 151 953 q 476 1078 318 1078 l 460 919 q 362 896 394 919 q 325 814 329 872 l 228 -97 q 184 -234 219 -183 q 92 -306 149 -285 q -40 -326 35 -326 l -76 -326 m 31 614 l 46 769 l 454 769 l 439 614 l 31 614 z "},"@":{"ha":1453,"x_min":106,"x_max":1349,"o":"m 617 -297 q 349 -237 464 -297 q 169 -67 233 -178 q 106 193 106 44 q 158 478 106 347 q 306 706 210 608 q 534 857 403 803 q 822 911 665 911 q 1101 850 983 911 q 1283 681 1218 789 q 1349 429 1349 572 q 1327 267 1349 344 q 1265 127 1306 189 q 1163 29 1224 65 q 1024 -7 1103 -7 q 883 49 928 -7 q 850 196 838 104 l 854 240 l 882 165 q 777 38 849 85 q 618 -10 706 -10 q 457 53 515 -10 q 399 225 399 117 q 422 371 399 301 q 488 494 444 440 q 590 581 531 549 q 721 613 650 613 q 847 573 801 613 q 901 460 892 533 l 872 439 l 901 601 l 1054 601 l 990 232 q 993 148 981 181 q 1050 115 1006 115 q 1117 143 1089 115 q 1165 217 1146 171 q 1194 317 1185 263 q 1203 422 1203 371 q 1155 616 1203 535 q 1017 741 1107 697 q 803 785 928 785 q 580 740 681 785 q 405 617 479 696 q 290 433 331 538 q 249 208 249 329 q 296 4 249 89 q 431 -124 343 -81 q 639 -168 518 -168 q 765 -156 703 -168 q 878 -119 826 -143 l 908 -242 q 769 -283 842 -269 q 617 -297 696 -297 m 676 128 q 763 155 724 128 q 828 228 803 182 q 856 332 853 274 q 845 406 858 374 q 805 458 832 439 q 738 476 778 476 q 665 458 697 476 q 610 409 633 440 q 575 338 588 378 q 563 256 563 299 q 591 163 563 199 q 676 128 619 128 z "},"&":{"ha":1085,"x_min":56,"x_max":1051,"o":"m 828 0 l 300 525 q 210 641 236 589 q 183 751 183 693 q 217 872 183 818 q 315 958 250 926 q 469 989 379 989 q 622 956 560 989 q 716 868 683 922 q 747 746 749 814 l 568 746 q 539 821 568 796 q 467 846 510 846 q 391 820 419 846 q 363 753 363 794 q 383 683 363 719 q 447 603 404 647 l 1051 0 l 828 0 m 406 -15 q 220 22 299 -15 q 99 125 142 58 q 56 282 56 192 q 85 412 56 351 q 172 519 114 472 q 317 593 231 565 l 388 615 l 469 499 l 406 478 q 280 403 321 450 q 239 293 239 356 q 260 215 239 250 q 321 158 281 179 q 415 138 361 138 q 550 171 490 138 q 665 278 610 204 q 715 353 690 311 q 765 446 740 394 l 794 506 l 985 506 l 938 410 q 867 278 903 338 q 792 172 831 218 q 619 29 713 74 q 406 -15 525 -15 z "},"¶":{"ha":906,"x_min":44,"x_max":811,"o":"m 399 -139 l 399 390 l 374 390 q 185 431 258 390 q 78 537 113 471 q 44 681 44 603 q 79 826 44 760 q 187 932 114 892 q 374 972 260 972 l 811 972 l 811 -139 l 653 -139 l 653 828 l 556 828 l 556 -139 l 399 -139 z "},"§":{"ha":857,"x_min":63,"x_max":793,"o":"m 422 -322 q 250 -288 325 -322 q 132 -190 175 -254 q 86 -40 89 -126 l 288 -40 q 306 -101 289 -72 q 353 -147 322 -129 q 425 -164 383 -164 q 519 -137 482 -165 q 556 -56 556 -110 q 538 1 556 -21 q 490 39 521 24 q 419 67 460 54 q 329 97 378 81 q 196 157 257 121 q 99 248 135 193 q 63 386 63 303 q 82 490 63 440 q 139 578 101 539 q 111 637 121 604 q 101 710 101 669 q 144 860 101 797 q 261 956 186 922 q 431 989 336 989 q 605 955 531 989 q 723 857 679 921 q 768 707 767 793 l 568 707 q 550 767 567 739 q 503 813 533 796 q 429 831 472 831 q 336 804 374 832 q 299 722 299 776 q 316 665 299 688 q 364 628 333 643 q 436 599 394 613 q 526 569 478 585 q 660 509 599 544 q 757 419 721 474 q 793 281 793 365 q 774 177 793 226 q 715 89 754 128 q 744 30 735 63 q 753 -43 753 -3 q 710 -191 753 -128 q 594 -288 668 -254 q 422 -322 519 -322 m 565 193 q 586 226 579 207 q 593 268 593 246 q 577 329 593 304 q 531 373 561 354 q 458 408 500 392 q 367 443 417 425 q 323 459 342 451 q 289 474 304 467 q 268 441 275 460 q 261 399 261 422 q 272 350 261 371 q 301 312 282 329 q 349 281 321 294 q 412 253 376 267 q 488 224 447 239 q 528 209 508 217 q 565 193 547 201 z "},"©":{"ha":1090,"x_min":60,"x_max":1031,"o":"m 546 -8 q 292 56 401 -8 q 122 232 183 119 q 60 489 60 344 q 122 747 60 635 q 292 922 183 858 q 546 985 401 985 q 799 922 690 985 q 969 747 908 858 q 1031 489 1031 635 q 969 232 1031 344 q 799 56 908 119 q 546 -8 690 -8 m 546 172 q 391 210 461 172 q 281 320 321 249 q 242 489 242 392 q 281 658 242 588 q 391 767 321 729 q 546 806 461 806 q 733 747 654 806 q 835 585 811 689 l 671 585 q 623 652 657 628 q 542 676 589 676 q 467 656 500 676 q 415 593 435 635 q 396 489 396 551 q 415 385 396 426 q 467 322 435 343 q 542 301 500 301 q 624 326 593 301 q 671 393 656 350 l 835 393 q 733 233 811 293 q 546 172 654 172 m 546 58 q 767 113 674 58 q 910 265 860 168 q 960 489 960 361 q 909 715 960 619 q 766 865 858 811 q 546 918 674 918 q 325 865 418 918 q 182 715 232 811 q 132 489 132 619 q 182 264 132 361 q 325 113 232 167 q 546 58 418 58 z "},"®":{"ha":708,"x_min":61,"x_max":646,"o":"m 354 404 q 203 442 269 404 q 99 546 136 481 q 61 696 61 611 q 99 848 61 782 q 203 951 136 914 q 354 989 269 989 q 506 951 440 989 q 608 848 571 914 q 646 696 646 782 q 608 546 646 611 q 506 442 571 481 q 354 404 440 404 m 400 551 l 322 685 l 413 685 l 499 551 l 400 551 m 354 471 q 472 499 422 471 q 548 579 521 528 q 575 696 575 631 q 548 815 575 764 q 472 894 521 865 q 354 922 422 922 q 238 894 288 922 q 160 815 188 865 q 133 696 133 764 q 160 579 133 631 q 238 499 188 528 q 354 471 288 471 m 235 551 l 235 847 l 379 847 q 456 822 428 847 q 485 754 485 797 q 456 685 485 711 q 379 660 428 660 l 321 660 l 321 551 l 235 551 m 319 722 l 368 722 q 389 728 381 722 q 397 749 397 735 q 389 769 397 764 q 368 775 381 775 l 319 775 l 319 722 z "},"™":{"ha":1163,"x_min":38,"x_max":1097,"o":"m 38 861 l 38 972 l 413 972 l 413 861 l 294 861 l 294 485 l 156 485 l 156 861 l 38 861 m 485 485 l 485 972 l 669 972 l 792 651 l 926 972 l 1097 972 l 1097 485 l 969 485 l 969 804 l 835 485 l 740 485 l 608 808 l 608 485 l 485 485 z "},"°":{"ha":504,"x_min":51,"x_max":451,"o":"m 251 588 q 153 612 199 588 q 79 681 107 636 q 51 786 51 726 q 80 894 51 849 q 154 965 108 940 q 253 989 200 989 q 352 965 307 989 q 424 894 397 940 q 451 786 451 849 q 424 681 451 726 q 351 612 396 636 q 251 588 306 588 m 251 706 q 304 726 279 706 q 329 789 329 747 q 305 851 329 831 q 253 871 281 871 q 200 850 225 871 q 175 789 175 829 q 199 726 175 747 q 251 706 224 706 z "},"|":{"ha":378,"x_min":96,"x_max":283,"o":"m 96 -139 l 96 1000 l 283 1000 l 283 -139 l 96 -139 z "},"¦":{"ha":378,"x_min":96,"x_max":283,"o":"m 96 549 l 96 1000 l 283 1000 l 283 549 l 96 549 m 96 -139 l 96 313 l 283 313 l 283 -139 l 96 -139 z "},"ℓ":{"ha":378,"x_min":96,"x_max":283,"o":"m 96 -139 l 96 1000 l 283 1000 l 283 -139 l 96 -139 z "},"†":{"ha":838,"x_min":64,"x_max":772,"o":"m 325 -365 l 343 639 l 64 625 l 64 769 l 343 754 l 325 1090 l 513 1090 l 493 754 l 772 769 l 772 625 l 493 639 l 513 -365 l 325 -365 z "},"‡":{"ha":839,"x_min":65,"x_max":774,"o":"m 325 -365 l 344 -29 l 65 -43 l 65 101 l 344 86 l 344 639 l 65 625 l 65 769 l 344 754 l 325 1090 l 513 1090 l 493 754 l 774 769 l 774 625 l 493 639 l 493 86 l 774 101 l 774 -43 l 493 -29 l 513 -365 l 325 -365 z "},"℮":{"ha":1047,"x_min":56,"x_max":990,"o":"m 536 -10 q 290 46 399 -10 q 119 207 182 101 q 56 464 56 313 q 110 726 56 608 q 269 913 165 844 q 524 982 374 982 q 723 944 636 982 q 869 842 810 907 q 960 697 929 778 q 990 528 990 615 l 990 442 l 286 442 l 286 201 q 397 128 336 153 q 536 104 457 104 q 663 124 604 104 q 776 179 722 143 q 881 267 829 215 l 951 188 q 761 42 864 94 q 536 -10 658 -10 m 286 549 l 754 549 l 754 785 q 654 849 714 828 q 524 871 594 871 q 389 847 449 871 q 286 774 329 822 l 286 549 z "},"¢":{"ha":843,"x_min":69,"x_max":774,"o":"m 344 -144 l 344 94 l 517 94 l 517 -144 l 344 -144 m 344 606 l 344 844 l 517 844 l 517 606 l 344 606 m 431 -17 q 243 31 325 -17 q 115 160 161 78 q 69 347 69 242 q 115 538 69 456 q 243 669 161 621 q 431 717 325 717 q 657 646 565 717 q 774 451 749 575 l 575 451 q 523 528 563 500 q 429 556 483 556 q 342 531 381 556 q 283 460 304 507 q 261 350 261 414 q 274 263 261 301 q 308 198 286 225 q 362 157 331 171 q 429 143 393 143 q 495 156 465 143 q 546 191 525 168 q 575 247 567 214 l 774 247 q 656 55 749 126 q 431 -17 564 -17 z "},"¤":{"ha":778,"x_min":88,"x_max":692,"o":"m 389 164 q 251 194 311 164 q 156 281 190 225 q 121 414 121 338 q 156 546 121 490 q 253 631 192 601 q 390 661 314 661 q 529 631 468 661 q 625 546 590 601 q 660 414 660 490 q 624 281 660 338 q 528 194 589 225 q 389 164 467 164 m 164 108 l 88 188 l 215 315 l 307 251 l 164 108 m 614 108 l 488 235 l 569 310 l 692 188 l 614 108 m 390 283 q 444 297 418 283 q 488 338 471 310 q 504 413 504 367 q 488 488 504 460 q 445 530 471 517 q 389 543 419 543 q 334 530 360 543 q 292 488 308 517 q 275 413 275 460 q 291 338 275 367 q 333 297 307 310 q 390 283 360 283 m 211 518 l 88 642 l 164 721 l 297 588 l 211 518 m 556 507 l 481 586 l 614 721 l 692 642 l 556 507 z "},"$":{"ha":839,"x_min":63,"x_max":775,"o":"m 372 -121 l 372 1100 l 464 1100 l 464 -121 l 372 -121 m 431 -17 q 242 19 325 -17 q 112 125 160 56 q 63 293 64 194 l 261 293 q 283 215 263 250 q 341 160 304 181 q 429 140 378 140 q 506 155 474 140 q 557 196 539 169 q 575 258 575 222 q 555 328 575 300 q 499 375 535 356 q 417 410 464 394 q 319 444 371 426 q 144 544 204 482 q 83 710 83 607 q 126 860 83 797 q 243 956 168 922 q 414 989 318 989 q 587 955 513 989 q 705 857 661 921 q 750 707 749 793 l 550 707 q 531 767 549 739 q 483 813 514 796 q 411 831 453 831 q 345 819 375 832 q 298 783 315 807 q 281 722 281 758 q 298 664 281 688 q 346 623 315 640 q 418 591 376 606 q 508 561 460 576 q 642 502 581 536 q 739 414 703 468 q 775 271 775 360 q 735 129 775 194 q 619 24 694 64 q 431 -17 543 -17 z "},"€":{"ha":1097,"x_min":29,"x_max":1033,"o":"m 29 328 l 29 436 l 629 436 l 629 328 l 29 328 m 29 535 l 29 643 l 629 643 l 629 535 l 29 535 m 604 -17 q 353 47 458 -17 q 192 223 249 110 q 135 485 135 336 q 192 747 135 633 q 353 925 249 861 q 604 989 458 989 q 893 901 781 989 q 1033 654 1006 814 l 828 654 q 753 776 810 732 q 603 819 696 819 q 453 778 515 819 q 359 663 392 738 q 326 485 326 589 q 359 307 326 382 q 453 192 392 232 q 603 151 515 151 q 753 192 696 151 q 828 307 810 233 l 1033 307 q 893 69 1006 156 q 604 -17 781 -17 z "},"₺":{"ha":1147,"x_min":26,"x_max":1044,"o":"m 526 -17 q 383 -7 458 -17 q 226 18 308 3 l 226 972 l 417 972 l 417 168 q 472 160 446 163 q 525 158 499 158 q 686 191 622 158 q 786 283 750 224 q 838 426 822 343 q 853 608 853 510 l 1044 608 q 992 258 1044 396 q 826 51 940 119 q 526 -17 713 -17 m 29 299 l 29 419 l 631 544 l 631 424 l 29 299 m 26 526 l 26 644 l 632 774 l 632 654 l 26 526 z "},"₽":{"ha":908,"x_min":38,"x_max":864,"o":"m 38 139 l 38 283 l 164 283 l 164 390 l 38 390 l 38 536 l 164 536 l 164 972 l 517 972 q 710 934 633 972 q 826 830 788 896 q 864 682 864 764 q 827 537 864 603 q 714 431 790 471 q 517 390 638 390 l 351 390 l 351 283 l 606 283 l 606 139 l 351 139 l 351 0 l 164 0 l 164 139 l 38 139 m 351 536 l 510 536 q 635 576 596 536 q 674 682 674 617 q 635 788 674 747 q 510 828 596 828 l 351 828 l 351 536 z "},"₨":{"ha":1563,"x_min":96,"x_max":1497,"o":"m 96 0 l 96 972 l 458 972 q 653 932 576 972 q 767 824 729 892 q 804 675 804 757 q 768 530 804 597 q 655 422 732 463 q 457 381 578 381 l 283 381 l 283 0 l 96 0 m 600 0 l 400 428 l 603 428 l 814 0 l 600 0 m 283 517 l 447 517 q 572 558 532 517 q 613 668 613 600 q 573 776 613 736 q 447 815 533 815 l 283 815 l 283 517 m 1203 -17 q 1036 14 1107 -17 q 925 99 965 44 q 879 221 885 153 l 1065 221 q 1089 173 1072 194 q 1133 139 1106 151 q 1200 126 1161 126 q 1261 137 1238 126 q 1297 165 1285 147 q 1308 203 1308 183 q 1292 248 1308 232 q 1243 274 1275 264 q 1165 293 1211 283 q 1067 317 1115 303 q 982 354 1019 332 q 922 411 944 376 q 900 497 900 446 q 933 609 900 560 q 1031 688 967 658 q 1185 717 1094 717 q 1385 660 1311 717 q 1472 503 1458 603 l 1296 503 q 1259 553 1288 535 q 1183 572 1231 572 q 1107 554 1133 572 q 1081 507 1081 536 q 1098 472 1081 488 q 1147 447 1115 457 q 1225 426 1179 436 q 1367 388 1306 410 q 1463 327 1428 367 q 1497 213 1497 288 q 1461 94 1497 146 q 1359 13 1425 42 q 1203 -17 1293 -17 z "},"₹":{"ha":854,"x_min":61,"x_max":804,"o":"m 406 -17 q 181 62 258 -17 q 103 294 103 140 l 103 483 q 308 491 232 483 q 422 520 385 499 q 470 588 458 542 q 482 710 482 633 l 482 906 l 658 906 l 658 714 q 639 556 658 624 q 576 445 619 489 q 458 380 532 401 q 278 358 385 358 l 278 274 q 306 167 278 208 q 403 126 333 126 q 497 165 469 126 q 525 272 525 204 l 697 272 q 621 59 694 135 q 406 -17 547 -17 m 61 611 l 61 731 l 804 731 l 804 611 l 61 611 m 61 843 l 61 972 l 804 972 l 804 843 l 61 843 z "},"£":{"ha":871,"x_min":57,"x_max":792,"o":"m 106 0 l 106 108 q 167 182 142 144 q 205 264 192 219 q 218 367 218 308 q 207 443 218 406 q 181 520 196 481 q 155 603 165 560 q 144 693 144 646 q 185 851 144 785 q 297 953 225 917 q 464 989 369 989 q 640 948 569 989 q 747 839 710 907 q 788 686 783 771 l 614 686 q 575 792 613 750 q 467 835 538 835 q 394 818 428 835 q 342 769 361 801 q 322 686 322 736 q 333 613 322 651 q 359 535 344 575 q 384 453 374 496 q 394 368 394 411 q 373 255 394 311 q 299 150 351 199 l 792 150 l 792 0 l 106 0 m 57 413 l 57 539 l 615 539 l 615 413 l 57 413 z "},"¥":{"ha":903,"x_min":31,"x_max":874,"o":"m 81 210 l 81 338 l 824 338 l 824 210 l 81 210 m 393 443 l 81 443 l 81 571 l 388 571 l 393 443 m 550 443 l 556 571 l 824 571 l 824 443 l 550 443 m 358 0 l 358 342 l 31 972 l 243 972 l 472 492 l 435 492 l 663 972 l 874 972 l 546 342 l 546 0 l 358 0 z "},"∕":{"ha":592,"x_min":32,"x_max":561,"o":"m 32 -158 l 379 1082 l 561 1082 l 214 -158 l 32 -158 z "},"+":{"ha":804,"x_min":63,"x_max":740,"o":"m 322 85 l 322 718 l 482 718 l 482 85 l 322 85 m 63 324 l 63 481 l 740 481 l 740 324 l 63 324 z "},"−":{"ha":804,"x_min":110,"x_max":696,"o":"m 110 331 l 110 488 l 696 488 l 696 331 l 110 331 z "},"×":{"ha":804,"x_min":119,"x_max":683,"o":"m 231 121 l 119 231 l 292 403 l 124 571 l 233 681 l 403 513 l 574 685 l 683 575 l 513 403 l 681 235 l 571 124 l 401 293 l 231 121 z "},"÷":{"ha":804,"x_min":100,"x_max":704,"o":"m 100 324 l 100 481 l 704 481 l 704 324 l 100 324 m 404 43 q 319 74 351 43 q 288 150 288 106 q 319 228 288 197 q 404 260 351 260 q 486 228 454 260 q 518 150 518 197 q 486 74 518 106 q 404 43 454 43 m 404 550 q 319 581 351 550 q 288 658 288 613 q 319 735 288 704 q 404 767 351 767 q 486 735 454 767 q 518 658 518 704 q 486 581 518 613 q 404 550 454 550 z "},"=":{"ha":804,"x_min":104,"x_max":700,"o":"m 104 476 l 104 640 l 700 640 l 700 476 l 104 476 m 104 165 l 104 329 l 700 329 l 700 165 l 104 165 z "},"≠":{"ha":804,"x_min":104,"x_max":700,"o":"m 133 71 l 481 732 l 626 732 l 278 71 l 133 71 m 104 475 l 104 639 l 700 639 l 700 475 l 104 475 m 104 164 l 104 328 l 700 328 l 700 164 l 104 164 z "},">":{"ha":804,"x_min":131,"x_max":674,"o":"m 131 75 l 438 386 l 131 700 l 368 700 l 674 386 l 674 386 l 368 75 l 131 75 z "},"<":{"ha":804,"x_min":132,"x_max":674,"o":"m 674 75 l 438 75 l 132 386 l 132 386 l 438 700 l 674 700 l 367 386 l 674 75 z "},"≥":{"ha":804,"x_min":131,"x_max":675,"o":"m 131 235 l 435 496 l 131 757 l 367 757 l 675 496 l 675 496 l 367 235 l 131 235 m 132 0 l 132 143 l 656 143 l 656 0 l 132 0 z "},"≤":{"ha":804,"x_min":129,"x_max":674,"o":"m 674 235 l 438 235 l 129 496 l 129 496 l 438 757 l 674 757 l 369 496 l 674 235 m 674 0 l 149 0 l 149 143 l 674 143 l 674 0 z "},"±":{"ha":804,"x_min":58,"x_max":746,"o":"m 58 0 l 58 143 l 746 143 l 746 0 l 58 0 m 322 235 l 322 739 l 482 739 l 482 235 l 322 235 m 58 408 l 58 565 l 746 565 l 746 408 l 58 408 z "},"≈":{"ha":804,"x_min":40,"x_max":763,"o":"m 524 114 q 445 128 479 114 q 382 162 411 143 q 326 194 353 181 q 268 208 299 208 q 210 184 232 208 q 181 115 188 160 l 40 115 q 87 263 54 206 q 169 348 119 321 q 278 375 218 375 q 357 360 322 375 q 421 328 392 346 q 477 295 450 310 q 535 281 504 281 q 594 305 571 281 q 622 374 617 329 l 763 374 q 718 226 751 283 q 635 142 685 169 q 524 114 586 114 m 524 436 q 445 451 479 436 q 382 484 411 465 q 326 517 353 503 q 268 531 299 531 q 210 506 232 531 q 181 438 188 482 l 40 438 q 87 585 54 528 q 169 670 119 643 q 278 697 218 697 q 357 683 322 697 q 421 650 392 668 q 477 617 450 632 q 535 603 504 603 q 594 627 571 603 q 622 696 617 651 l 763 696 q 718 549 751 606 q 635 464 685 492 q 524 436 586 436 z "},"~":{"ha":804,"x_min":40,"x_max":763,"o":"m 524 311 q 445 326 479 311 q 382 359 411 340 q 326 392 353 378 q 268 406 299 406 q 210 381 232 406 q 181 313 188 357 l 40 313 q 87 460 54 403 q 169 545 119 518 q 278 572 218 572 q 357 558 322 572 q 421 525 392 543 q 477 492 450 507 q 535 478 504 478 q 594 502 571 478 q 622 571 617 526 l 763 571 q 718 424 751 481 q 635 339 685 367 q 524 311 586 311 z "},"¬":{"ha":804,"x_min":-11,"x_max":817,"o":"m 629 275 l 629 464 l -11 464 l -11 608 l 817 608 l 817 275 l 629 275 z "},"^":{"ha":940,"x_min":49,"x_max":892,"o":"m 49 278 l 381 972 l 560 972 l 892 278 l 703 278 l 471 761 l 471 761 l 238 278 l 49 278 z "},"∞":{"ha":1026,"x_min":46,"x_max":981,"o":"m 272 175 q 110 233 175 175 q 46 396 46 292 q 76 520 46 469 q 160 597 107 571 q 276 624 213 624 q 388 601 340 624 q 472 541 436 578 q 539 463 508 504 q 598 385 569 422 q 660 325 626 349 q 733 301 693 301 q 806 328 779 301 q 832 400 832 354 q 806 472 832 447 q 739 496 781 496 q 640 458 686 496 q 568 357 593 421 l 476 399 q 529 509 492 458 q 623 592 567 560 q 753 624 679 625 q 916 565 851 624 q 981 403 981 507 q 949 279 981 331 q 865 201 918 228 q 747 175 813 175 q 635 198 683 175 q 547 258 586 221 q 476 335 508 294 q 415 413 444 376 q 353 474 385 450 q 285 497 322 497 q 220 472 246 497 q 194 399 194 446 q 220 328 194 353 q 288 303 246 303 q 388 341 340 303 q 458 442 435 379 l 550 400 q 497 291 535 343 q 403 207 460 239 q 272 175 347 175 z "},"∫":{"ha":386,"x_min":-62,"x_max":454,"o":"m -62 -326 l -47 -168 l -21 -168 q 22 -151 8 -168 q 40 -97 36 -135 l 164 1067 q 208 1202 174 1153 q 299 1272 243 1251 q 428 1293 356 1293 l 454 1293 l 439 1133 l 414 1133 q 371 1119 386 1133 q 351 1067 356 1104 l 228 -97 q 184 -234 218 -183 q 94 -306 150 -285 q -35 -326 38 -326 l -62 -326 z "},"Ω":{"ha":1094,"x_min":53,"x_max":1043,"o":"m 65 0 l 65 144 l 335 144 l 306 99 q 161 198 217 136 q 79 339 106 260 q 53 506 53 418 q 91 705 53 617 q 197 857 129 793 q 355 955 265 921 q 547 989 444 989 q 741 955 651 989 q 899 857 831 921 q 1005 705 967 793 q 1043 506 1043 617 q 1017 339 1043 418 q 935 198 990 260 q 789 99 879 136 l 760 144 l 1029 144 l 1029 0 l 653 0 l 653 149 q 756 226 711 178 q 826 339 801 274 q 851 486 851 404 q 829 625 851 564 q 767 729 807 686 q 670 795 726 772 q 547 818 614 818 q 424 795 479 818 q 328 729 368 772 q 265 624 288 686 q 243 486 243 563 q 269 339 243 404 q 340 226 294 274 q 443 149 385 178 l 443 0 l 65 0 z "},"∆":{"ha":993,"x_min":31,"x_max":963,"o":"m 31 0 l 31 143 l 419 972 l 574 972 l 963 143 l 963 0 l 31 0 m 224 143 l 769 143 l 497 760 l 224 143 z "},"∏":{"ha":1025,"x_min":38,"x_max":988,"o":"m 140 0 l 140 828 l 38 828 l 38 972 l 988 972 l 988 828 l 885 828 l 885 0 l 697 0 l 697 828 l 328 828 l 328 0 l 140 0 z "},"∑":{"ha":694,"x_min":61,"x_max":658,"o":"m 61 -69 l 61 149 l 403 460 l 63 756 l 63 972 l 658 972 l 658 829 l 219 829 l 581 528 l 581 392 l 225 75 l 657 75 l 657 -69 l 61 -69 z "},"√":{"ha":1101,"x_min":26,"x_max":1176,"o":"m 26 311 l 293 468 l 468 158 l 1057 1233 l 1176 1233 l 467 -58 l 375 -58 l 185 281 l 81 221 l 26 311 z "},"µ":{"ha":867,"x_min":92,"x_max":775,"o":"m 92 -306 l 92 689 l 279 689 l 279 319 q 314 188 279 233 q 425 142 349 142 q 509 165 472 142 q 567 231 546 188 q 588 333 588 274 l 588 689 l 775 689 l 775 0 l 611 0 l 596 115 l 596 115 q 504 19 564 56 q 361 -17 444 -17 q 317 -12 338 -17 q 279 3 297 -7 l 279 -306 l 92 -306 z "},"∂":{"ha":826,"x_min":50,"x_max":776,"o":"m 353 -11 q 202 26 271 -11 q 92 138 133 63 q 50 329 50 214 q 78 506 50 424 q 158 648 107 588 q 277 742 208 708 q 425 776 346 776 q 493 767 461 776 q 551 736 525 758 q 594 676 576 714 q 565 803 589 749 q 497 888 542 857 q 381 919 453 919 q 333 916 357 919 q 281 907 308 913 l 281 1006 q 359 1023 322 1018 q 429 1028 396 1028 q 620 972 543 1028 q 737 814 697 917 q 776 567 776 711 q 722 258 776 388 q 573 58 668 128 q 353 -11 478 -11 m 371 149 q 453 172 417 149 q 517 236 490 196 q 558 331 543 276 q 572 444 572 385 q 535 577 572 535 q 439 619 499 619 q 358 598 394 619 q 294 537 321 576 q 254 444 268 497 q 240 331 240 392 q 278 192 240 236 q 371 149 317 149 z "},"%":{"ha":1253,"x_min":58,"x_max":1194,"o":"m 260 0 l 806 972 l 988 972 l 442 0 l 260 0 m 954 -17 q 831 13 886 -17 q 744 99 776 43 q 713 232 713 156 q 744 365 713 310 q 831 451 776 421 q 954 481 886 481 q 1076 451 1022 481 q 1163 365 1131 421 q 1194 232 1194 310 q 1163 99 1194 156 q 1076 13 1131 43 q 954 -17 1022 -17 m 953 113 q 1001 126 981 113 q 1035 167 1022 140 q 1047 232 1047 193 q 1035 299 1047 272 q 1002 340 1024 326 q 953 354 981 354 q 905 340 926 354 q 871 299 883 326 q 858 232 858 272 q 871 167 858 193 q 905 126 883 140 q 953 113 926 113 m 300 490 q 178 521 233 490 q 90 607 122 551 q 58 739 58 663 q 91 873 58 818 q 178 958 124 928 q 301 989 233 989 q 423 958 369 989 q 509 873 476 928 q 542 739 542 818 q 509 607 542 663 q 422 521 476 551 q 300 490 368 490 m 300 619 q 348 633 326 619 q 382 674 369 647 q 394 739 394 700 q 382 807 394 781 q 348 847 369 833 q 300 861 326 861 q 252 847 274 861 q 218 806 231 833 q 206 739 206 779 q 218 674 206 700 q 252 633 231 647 q 300 619 274 619 z "},"‰":{"ha":1778,"x_min":58,"x_max":1719,"o":"m 1479 -17 q 1356 13 1411 -17 q 1269 99 1301 43 q 1236 232 1236 156 q 1269 365 1236 310 q 1356 451 1301 421 q 1479 481 1411 481 q 1601 451 1547 481 q 1688 365 1656 421 q 1719 232 1719 310 q 1688 99 1719 156 q 1601 13 1656 43 q 1479 -17 1546 -17 m 1478 111 q 1527 125 1506 111 q 1561 166 1549 139 q 1574 232 1574 193 q 1561 300 1574 274 q 1527 341 1549 326 q 1478 356 1506 356 q 1429 341 1451 356 q 1394 300 1407 326 q 1382 232 1382 274 q 1394 166 1382 193 q 1429 125 1407 139 q 1478 111 1451 111 m 260 0 l 806 972 l 988 972 l 442 0 l 260 0 m 954 -17 q 831 13 886 -17 q 744 99 776 43 q 713 232 713 156 q 744 365 713 310 q 831 451 776 421 q 954 481 886 481 q 1076 451 1022 481 q 1163 365 1131 421 q 1194 232 1194 310 q 1163 99 1194 156 q 1076 13 1131 43 q 954 -17 1022 -17 m 953 113 q 1001 126 981 113 q 1035 167 1022 140 q 1047 232 1047 193 q 1035 299 1047 272 q 1002 340 1024 326 q 953 354 981 354 q 905 340 926 354 q 871 299 883 326 q 858 232 858 272 q 871 167 858 193 q 905 126 883 140 q 953 113 926 113 m 300 490 q 178 521 233 490 q 90 607 122 551 q 58 739 58 663 q 91 873 58 818 q 178 958 124 928 q 301 989 233 989 q 423 958 369 989 q 509 873 476 928 q 542 739 542 818 q 509 607 542 663 q 422 521 476 551 q 300 490 368 490 m 300 619 q 348 633 326 619 q 382 674 369 647 q 394 739 394 700 q 382 807 394 781 q 348 847 369 833 q 300 861 326 861 q 252 847 274 861 q 218 806 231 833 q 206 739 206 779 q 218 674 206 700 q 252 633 231 647 q 300 619 274 619 z "},"↑":{"ha":1219,"x_min":47,"x_max":1172,"o":"m 47 481 l 554 972 l 665 972 l 1172 481 l 1054 363 l 699 711 l 699 0 l 521 0 l 521 711 l 165 363 l 47 481 z "},"↗":{"ha":906,"x_min":60,"x_max":850,"o":"m 183 79 l 60 204 l 565 708 l 64 708 l 64 872 l 772 872 l 850 793 l 850 83 l 688 83 l 688 583 l 183 79 z "},"→":{"ha":1083,"x_min":57,"x_max":1029,"o":"m 57 399 l 57 565 l 767 565 l 419 878 l 538 996 l 1029 538 l 1029 428 l 538 -32 l 419 86 l 767 399 l 57 399 z "},"↘":{"ha":914,"x_min":60,"x_max":850,"o":"m 183 871 l 688 367 l 688 867 l 850 867 l 850 157 l 772 78 l 64 78 l 64 242 l 565 242 l 60 746 l 183 871 z "},"↓":{"ha":1236,"x_min":56,"x_max":1181,"o":"m 56 492 l 174 610 l 529 261 l 529 972 l 707 972 l 707 261 l 1063 610 l 1181 492 l 674 0 l 563 0 l 56 492 z "},"↙":{"ha":914,"x_min":64,"x_max":854,"o":"m 731 871 l 854 746 l 349 242 l 850 242 l 850 78 l 142 78 l 64 157 l 64 867 l 228 867 l 228 367 l 731 871 z "},"←":{"ha":1083,"x_min":54,"x_max":1026,"o":"m 1026 399 l 317 399 l 664 86 l 546 -32 l 54 428 l 54 538 l 546 996 l 664 878 l 317 565 l 1026 565 l 1026 399 z "},"↖":{"ha":914,"x_min":64,"x_max":854,"o":"m 731 63 l 228 567 l 228 67 l 64 67 l 64 776 l 142 856 l 850 856 l 850 692 l 349 692 l 854 188 l 731 63 z "},"↔":{"ha":1322,"x_min":56,"x_max":1267,"o":"m 56 425 l 56 536 l 464 978 l 582 878 l 288 567 l 1035 567 l 740 878 l 858 978 l 1267 536 l 1267 425 l 858 -18 l 740 82 l 1039 400 l 283 400 l 582 82 l 464 -18 l 56 425 z "},"↕":{"ha":1132,"x_min":57,"x_max":1075,"o":"m 57 300 l 156 418 l 482 204 l 482 769 l 156 557 l 57 674 l 510 975 l 622 975 l 1075 674 l 978 557 l 651 768 l 651 207 l 978 418 l 1075 300 l 622 0 l 510 0 l 57 300 z "},"◊":{"ha":778,"x_min":38,"x_max":740,"o":"m 389 136 l 38 489 l 390 839 l 740 489 l 389 136 m 389 324 l 553 489 l 390 653 l 226 489 l 389 324 z "},"̈":{"ha":0,"x_min":0,"x_max":432,"o":"m 88 792 q 26 817 51 792 q 0 879 0 842 q 26 942 0 917 q 88 968 51 968 q 152 942 126 968 q 178 879 178 917 q 152 817 178 842 q 88 792 126 792 m 343 792 q 280 817 306 792 q 254 879 254 842 q 280 942 254 917 q 343 968 306 968 q 406 942 381 968 q 432 879 432 917 q 406 817 432 842 q 343 792 381 792 z "},"̇":{"ha":0,"x_min":0,"x_max":178,"o":"m 88 793 q 26 819 51 793 q 0 881 0 844 q 26 944 0 918 q 88 969 51 969 q 152 944 126 969 q 178 881 178 918 q 152 819 178 844 q 88 793 126 793 z "},"̀":{"ha":0,"x_min":0,"x_max":326,"o":"m 308 760 l 0 914 l 21 1057 l 21 1057 l 326 883 l 308 760 z "},"́":{"ha":0,"x_min":0,"x_max":326,"o":"m 17 760 l 0 883 l 304 1057 l 304 1057 l 326 914 l 17 760 z "},"̋":{"ha":0,"x_min":0,"x_max":508,"o":"m 242 754 l 356 1010 l 508 1010 l 358 754 l 242 754 m 0 754 l 99 1010 l 251 1010 l 118 754 l 0 754 z "},"̂":{"ha":0,"x_min":0,"x_max":410,"o":"m 0 764 l 0 897 l 206 1008 l 410 897 l 410 764 l 206 878 l 0 764 z "},"̌":{"ha":0,"x_min":0,"x_max":410,"o":"m 206 782 l 0 893 l 0 1026 l 206 907 l 410 1026 l 410 893 l 206 782 z "},"̆":{"ha":0,"x_min":0,"x_max":439,"o":"m 219 782 q 102 808 151 782 q 26 882 53 833 q 0 997 0 931 l 0 1021 l 99 1021 q 125 947 99 974 q 219 921 151 921 q 313 947 286 921 q 340 1021 340 974 l 439 1021 l 439 996 q 412 881 439 929 q 335 808 385 833 q 219 782 286 782 z "},"̊":{"ha":0,"x_min":0,"x_max":321,"o":"m 160 792 q 47 833 94 792 q 0 949 0 875 q 47 1065 0 1022 q 160 1107 94 1107 q 274 1065 226 1107 q 321 949 321 1022 q 274 833 321 875 q 160 792 226 792 m 160 874 q 211 894 190 874 q 232 949 232 915 q 211 1003 232 983 q 160 1022 190 1022 q 110 1003 131 1022 q 89 949 89 983 q 110 894 89 915 q 160 874 131 874 z "},"̃":{"ha":0,"x_min":0,"x_max":499,"o":"m 332 792 q 263 807 292 792 q 211 838 235 822 q 158 854 188 854 q 120 839 136 854 q 99 792 104 824 l 0 792 q 59 928 15 885 q 167 971 103 971 q 235 955 207 971 q 287 923 263 939 q 340 907 311 907 q 380 922 364 907 q 400 969 396 938 l 499 969 q 441 834 485 876 q 332 792 397 792 z "},"̄":{"ha":0,"x_min":0,"x_max":525,"o":"m 0 825 l 0 957 l 525 957 l 525 825 l 0 825 z "},"̒":{"ha":0,"x_min":0,"x_max":164,"o":"m 164 1085 l 164 1010 q 115 997 132 1010 q 99 958 99 985 l 99 933 l 164 933 l 164 786 l 18 786 q 5 858 10 826 q 0 922 0 889 q 42 1042 0 1000 q 164 1085 83 1085 z "},"̦":{"ha":0,"x_min":0,"x_max":178,"o":"m 8 -389 l 8 -314 q 61 -292 44 -314 q 78 -226 78 -271 l 78 -206 l 0 -206 l 0 -61 l 157 -61 q 173 -133 168 -99 q 178 -200 178 -168 q 135 -339 178 -289 q 8 -389 93 -389 z "},"̧":{"ha":0,"x_min":0,"x_max":369,"o":"m 0 -367 l 0 -260 l 160 -260 q 213 -248 194 -260 q 231 -211 231 -236 q 213 -175 231 -186 q 160 -164 194 -164 l 74 -164 l 74 10 l 190 10 l 190 -67 q 277 -81 236 -65 q 344 -128 318 -96 q 369 -214 369 -161 q 344 -299 369 -265 q 277 -350 318 -333 q 188 -367 236 -367 l 0 -367 z "},"̨":{"ha":0,"x_min":0,"x_max":311,"o":"m 189 -293 q 94 -278 138 -293 q 26 -229 51 -262 q 0 -146 0 -196 q 18 -74 0 -108 q 80 -6 36 -39 q 200 60 124 28 l 263 88 l 304 0 l 233 -35 q 163 -82 183 -60 q 142 -129 142 -104 q 160 -169 142 -154 q 213 -185 179 -185 q 259 -179 233 -185 q 311 -164 285 -174 l 311 -274 q 253 -288 285 -283 q 189 -293 222 -293 z "},"¨":{"ha":471,"x_min":19,"x_max":451,"o":"m 363 782 q 300 808 325 782 q 275 871 275 833 q 300 934 275 908 q 363 960 325 960 q 426 934 400 960 q 451 871 451 908 q 426 808 451 833 q 363 782 400 782 m 107 782 q 45 808 71 782 q 19 871 19 833 q 45 934 19 908 q 107 960 71 960 q 172 934 146 960 q 197 871 197 908 q 172 808 197 833 q 107 782 146 782 z "},"˙":{"ha":211,"x_min":17,"x_max":194,"o":"m 106 778 q 42 803 68 778 q 17 865 17 829 q 42 928 17 903 q 106 954 68 954 q 169 928 143 954 q 194 865 194 903 q 169 803 194 829 q 106 778 143 778 z "},"`":{"ha":326,"x_min":0,"x_max":326,"o":"m 308 760 l 0 914 l 21 1057 l 21 1057 l 326 883 l 308 760 z "},"´":{"ha":326,"x_min":0,"x_max":326,"o":"m 17 760 l 0 883 l 304 1057 l 304 1057 l 326 914 l 17 760 z "},"˝":{"ha":544,"x_min":15,"x_max":524,"o":"m 257 754 l 371 1010 l 524 1010 l 374 754 l 257 754 m 15 754 l 115 1010 l 267 1010 l 133 754 l 15 754 z "},"ˆ":{"ha":442,"x_min":15,"x_max":425,"o":"m 15 751 l 15 886 l 221 996 l 425 886 l 425 751 l 221 867 l 15 751 z "},"ˇ":{"ha":442,"x_min":15,"x_max":425,"o":"m 221 751 l 15 863 l 15 996 l 221 876 l 425 996 l 425 863 l 221 751 z "},"˘":{"ha":471,"x_min":15,"x_max":454,"o":"m 235 756 q 118 782 167 756 q 42 856 69 808 q 15 971 15 904 l 15 994 l 114 994 q 140 921 114 947 q 235 894 167 894 q 328 921 301 894 q 356 994 356 947 l 454 994 l 454 969 q 427 856 454 904 q 351 781 400 807 q 235 756 301 756 z "},"˚":{"ha":347,"x_min":14,"x_max":335,"o":"m 174 757 q 61 799 108 757 q 14 915 14 842 q 61 1031 14 989 q 174 1072 108 1072 q 288 1031 240 1072 q 335 915 335 989 q 288 799 335 842 q 174 757 240 757 m 174 840 q 225 861 204 840 q 246 915 246 882 q 225 969 246 950 q 174 989 204 989 q 124 969 144 989 q 103 915 103 950 q 124 861 103 882 q 174 840 146 840 z "},"˜":{"ha":524,"x_min":13,"x_max":511,"o":"m 344 760 q 276 776 304 760 q 224 808 247 792 q 171 824 200 824 q 133 808 149 824 q 111 761 117 793 l 13 761 q 72 897 28 854 q 179 939 115 939 q 247 923 219 939 q 299 891 275 907 q 351 875 324 875 q 392 891 375 875 q 413 938 408 907 l 511 938 q 453 803 497 846 q 344 760 408 760 z "},"¯":{"ha":557,"x_min":15,"x_max":542,"o":"m 15 801 l 15 933 l 542 933 l 542 801 l 15 801 z "},"¸":{"ha":369,"x_min":0,"x_max":369,"o":"m 0 -367 l 0 -260 l 160 -260 q 213 -248 194 -260 q 231 -211 231 -236 q 213 -175 231 -186 q 160 -164 194 -164 l 74 -164 l 74 10 l 190 10 l 190 -67 q 277 -81 236 -65 q 344 -128 318 -96 q 369 -214 369 -161 q 344 -299 369 -265 q 277 -350 318 -333 q 188 -367 236 -367 l 0 -367 z "},"˛":{"ha":311,"x_min":0,"x_max":311,"o":"m 189 -293 q 94 -278 138 -293 q 26 -229 51 -262 q 0 -146 0 -196 q 18 -74 0 -108 q 80 -6 36 -39 q 200 60 124 28 l 263 88 l 304 0 l 233 -35 q 162 -82 182 -60 q 142 -129 142 -104 q 160 -169 142 -154 q 213 -185 179 -185 q 259 -179 233 -185 q 311 -164 285 -174 l 311 -274 q 253 -288 285 -283 q 189 -293 221 -293 z "}}}
